<svg width="943" height="270" viewBox="0 0 943 270" fill="none" xmlns="http://www.w3.org/2000/svg">
<rect width="943" height="270" rx="20" fill="#EFEBF5"/>
<mask id="mask0_44_3282" style="mask-type:alpha" maskUnits="userSpaceOnUse" x="0" y="0" width="943" height="270">
<rect width="943" height="270" rx="20" fill="#EFEBF5"/>
</mask>
<g mask="url(#mask0_44_3282)">
</g>
<g clip-path="url(#clip0_44_3282)">
<path d="M652.556 144.425H637.604V162.035H652.556V144.425Z" fill="#F5F5F5"/>
<path d="M638.124 143.274H570.56V163.138H638.124V143.274Z" fill="#E0E0E0"/>
<path d="M653.008 144.945H636.309V143.274H653.008C653.472 143.274 653.851 143.649 653.851 144.109C653.851 144.574 653.472 144.945 653.008 144.945Z" fill="#E0E0E0"/>
<path d="M653.008 163.138H636.309V161.468H653.008C653.472 161.468 653.851 161.843 653.851 162.303C653.851 162.768 653.472 163.138 653.008 163.138Z" fill="#E0E0E0"/>
<path d="M632.812 143.274H624.828V163.138H632.812V143.274Z" fill="#EBEBEB"/>
<path d="M584.966 143.496H576.983V163.36H584.966V143.496Z" fill="#EBEBEB"/>
<path d="M652.556 147.335C652.556 147.382 649.321 147.425 645.329 147.425C641.338 147.425 638.103 147.386 638.103 147.335C638.103 147.288 641.338 147.246 645.329 147.246C649.321 147.246 652.556 147.288 652.556 147.335Z" fill="#E0E0E0"/>
<path d="M652.556 149.978C652.556 150.025 649.321 150.068 645.329 150.068C641.338 150.068 638.103 150.029 638.103 149.978C638.103 149.931 641.338 149.889 645.329 149.889C649.321 149.889 652.556 149.927 652.556 149.978Z" fill="#E0E0E0"/>
<path d="M652.556 153.23C652.556 153.277 649.321 153.319 645.329 153.319C641.338 153.319 638.103 153.281 638.103 153.23C638.103 153.183 641.338 153.14 645.329 153.14C649.321 153.14 652.556 153.178 652.556 153.23Z" fill="#E0E0E0"/>
<path d="M652.556 156.477C652.556 156.524 649.321 156.567 645.329 156.567C641.338 156.567 638.103 156.528 638.103 156.477C638.103 156.43 641.338 156.388 645.329 156.388C649.321 156.392 652.556 156.43 652.556 156.477Z" fill="#E0E0E0"/>
<path d="M652.556 159.729C652.556 159.776 649.321 159.818 645.329 159.818C641.338 159.818 638.103 159.78 638.103 159.729C638.103 159.682 641.338 159.639 645.329 159.639C649.321 159.643 652.556 159.682 652.556 159.729Z" fill="#E0E0E0"/>
<path d="M620.536 151.439H590.141V155.015H620.536V151.439Z" fill="#EBEBEB"/>
<path d="M652.406 163.531H637.226V174.262H652.406V163.531Z" fill="#FAFAFA"/>
<path d="M637.398 163.139H572.797V174.646H637.398V163.139Z" fill="#F5F5F5"/>
<path d="M636.924 163.919H653.24C653.455 163.919 653.631 163.744 653.631 163.531C653.631 163.318 653.455 163.143 653.24 163.143H636.924V163.919Z" fill="#F5F5F5"/>
<path d="M636.924 174.65H653.451C653.55 174.65 653.631 174.569 653.631 174.471V174.049C653.631 173.951 653.55 173.87 653.451 173.87H636.924V174.65Z" fill="#F5F5F5"/>
<path d="M652.405 165.568C652.405 165.615 649.046 165.658 644.899 165.658C640.753 165.658 637.393 165.619 637.393 165.568C637.393 165.521 640.753 165.479 644.899 165.479C649.042 165.479 652.405 165.521 652.405 165.568Z" fill="#E0E0E0"/>
<path d="M652.405 167.597C652.405 167.644 649.046 167.686 644.899 167.686C640.753 167.686 637.393 167.648 637.393 167.597C637.393 167.55 640.753 167.507 644.899 167.507C649.042 167.512 652.405 167.55 652.405 167.597Z" fill="#E0E0E0"/>
<path d="M652.405 169.63C652.405 169.676 649.046 169.719 644.899 169.719C640.753 169.719 637.393 169.681 637.393 169.63C637.393 169.583 640.753 169.54 644.899 169.54C649.042 169.54 652.405 169.578 652.405 169.63Z" fill="#E0E0E0"/>
<path d="M652.405 171.658C652.405 171.705 649.046 171.748 644.899 171.748C640.753 171.748 637.393 171.709 637.393 171.658C637.393 171.611 640.753 171.569 644.899 171.569C649.042 171.569 652.405 171.607 652.405 171.658Z" fill="#E0E0E0"/>
<path d="M654.707 175.673H639.213V204.76H654.707V175.673Z" fill="#EBEBEB"/>
<path d="M639.213 174.652H566.487V206.189H639.213V174.652Z" fill="#E0E0E0"/>
<path d="M655.92 206.183H637.226V204.137H655.92C656.492 204.137 656.952 204.593 656.952 205.16C656.952 205.727 656.488 206.183 655.92 206.183Z" fill="#E0E0E0"/>
<path d="M656.479 176.691H637.226V174.646H656.479C656.742 174.646 656.952 174.854 656.952 175.114V176.222C656.952 176.482 656.737 176.691 656.479 176.691Z" fill="#E0E0E0"/>
<path d="M654.707 179.568C654.707 179.615 651.24 179.658 646.96 179.658C642.68 179.658 639.213 179.619 639.213 179.568C639.213 179.521 642.68 179.479 646.96 179.479C651.24 179.483 654.707 179.521 654.707 179.568Z" fill="#E0E0E0"/>
<path d="M654.707 183.301C654.707 183.348 651.24 183.391 646.96 183.391C642.68 183.391 639.213 183.353 639.213 183.301C639.213 183.255 642.68 183.212 646.96 183.212C651.24 183.212 654.707 183.25 654.707 183.301Z" fill="#E0E0E0"/>
<path d="M654.707 187.031C654.707 187.078 651.24 187.12 646.96 187.12C642.68 187.12 639.213 187.082 639.213 187.031C639.213 186.984 642.68 186.941 646.96 186.941C651.24 186.941 654.707 186.984 654.707 187.031Z" fill="#E0E0E0"/>
<path d="M654.707 190.759C654.707 190.806 651.24 190.849 646.96 190.849C642.68 190.849 639.213 190.811 639.213 190.759C639.213 190.713 642.68 190.67 646.96 190.67C651.24 190.674 654.707 190.713 654.707 190.759Z" fill="#E0E0E0"/>
<path d="M654.707 194.493C654.707 194.54 651.24 194.582 646.96 194.582C642.68 194.582 639.213 194.544 639.213 194.493C639.213 194.446 642.68 194.403 646.96 194.403C651.24 194.403 654.707 194.442 654.707 194.493Z" fill="#E0E0E0"/>
<path d="M654.707 198.222C654.707 198.269 651.24 198.311 646.96 198.311C642.68 198.311 639.213 198.273 639.213 198.222C639.213 198.175 642.68 198.132 646.96 198.132C651.24 198.132 654.707 198.175 654.707 198.222Z" fill="#E0E0E0"/>
<path d="M654.707 201.951C654.707 201.998 651.24 202.041 646.96 202.041C642.68 202.041 639.213 202.002 639.213 201.951C639.213 201.904 642.68 201.862 646.96 201.862C651.24 201.866 654.707 201.904 654.707 201.951Z" fill="#E0E0E0"/>
<path d="M591.371 192.141V193.897C591.371 196.01 590.304 197.217 588.248 197.217C586.192 197.217 585.125 196.01 585.125 193.897V187.027C585.125 184.913 586.192 183.707 588.248 183.707C590.304 183.707 591.371 184.913 591.371 187.027V188.309H589.392V186.894C589.392 185.953 588.975 185.595 588.308 185.595C587.642 185.595 587.225 185.953 587.225 186.894V194.029C587.225 194.971 587.642 195.312 588.308 195.312C588.975 195.312 589.392 194.971 589.392 194.029V192.141H591.371Z" fill="#EBEBEB"/>
<path d="M592.477 187.031C592.477 184.917 593.599 183.711 595.655 183.711C597.712 183.711 598.834 184.917 598.834 187.031V193.901C598.834 196.015 597.712 197.221 595.655 197.221C593.599 197.221 592.477 196.015 592.477 193.901V187.031ZM594.571 194.029C594.571 194.971 594.989 195.329 595.655 195.329C596.322 195.329 596.739 194.971 596.739 194.029V186.899C596.739 185.957 596.322 185.599 595.655 185.599C594.989 185.599 594.571 185.957 594.571 186.899V194.029Z" fill="#EBEBEB"/>
<path d="M600.185 183.86H602.28V195.18H605.725V197.068H600.185V183.86Z" fill="#EBEBEB"/>
<path d="M606.47 187.031C606.47 184.917 607.592 183.711 609.649 183.711C611.705 183.711 612.827 184.917 612.827 187.031V193.901C612.827 196.015 611.705 197.221 609.649 197.221C607.592 197.221 606.47 196.015 606.47 193.901V187.031ZM608.565 194.029C608.565 194.971 608.982 195.329 609.649 195.329C610.315 195.329 610.733 194.971 610.733 194.029V186.899C610.733 185.957 610.315 185.599 609.649 185.599C608.982 185.599 608.565 185.957 608.565 186.899V194.029Z" fill="#EBEBEB"/>
<path d="M616.182 183.86V194.05C616.182 194.992 616.599 195.333 617.266 195.333C617.933 195.333 618.35 194.992 618.35 194.05V183.86H620.329V193.918C620.329 196.032 619.262 197.238 617.206 197.238C615.15 197.238 614.083 196.032 614.083 193.918V183.86H616.182Z" fill="#EBEBEB"/>
<path d="M626.14 197.068C626.024 196.727 625.951 196.522 625.951 195.444V193.368C625.951 192.141 625.534 191.689 624.579 191.689H623.856V197.068H621.761V183.86H624.923C627.095 183.86 628.029 184.862 628.029 186.899V187.935C628.029 189.294 627.59 190.181 626.656 190.615C627.706 191.05 628.046 192.047 628.046 193.428V195.465C628.046 196.109 628.063 196.578 628.274 197.068H626.14ZM623.856 185.748V189.806H624.673C625.456 189.806 625.929 189.465 625.929 188.408V187.108C625.929 186.166 625.607 185.748 624.863 185.748H623.856Z" fill="#EBEBEB"/>
<path d="M590.92 167.673H589.393L589.474 167.281H592.98L592.894 167.673H591.371L590.584 171.569H590.132L590.92 167.673Z" fill="#E0E0E0"/>
<path d="M595.922 168.347L593.548 171.986C593.148 172.6 592.842 172.788 592.373 172.788C592.072 172.788 591.762 172.685 591.599 172.498L591.836 172.178C591.978 172.323 592.162 172.412 592.412 172.412C592.692 172.412 592.907 172.285 593.16 171.893L593.388 171.552L592.58 168.347H593.023L593.698 171.091L595.475 168.347H595.922Z" fill="#E0E0E0"/>
<path d="M599.536 169.68C599.536 170.788 598.757 171.598 597.695 171.598C597.075 171.598 596.645 171.346 596.456 170.895L596.086 172.757H595.647L596.533 168.346H596.955L596.852 168.862C597.161 168.521 597.596 168.325 598.121 168.325C598.951 168.32 599.536 168.836 599.536 169.68ZM599.093 169.706C599.093 169.075 598.701 168.7 598.022 168.7C597.213 168.7 596.619 169.331 596.619 170.213C596.619 170.843 597.011 171.21 597.691 171.21C598.499 171.214 599.093 170.584 599.093 169.706Z" fill="#E0E0E0"/>
<path d="M600.048 170.235C600.048 169.139 600.835 168.325 601.927 168.325C602.831 168.325 603.407 168.854 603.407 169.685C603.407 170.789 602.62 171.603 601.527 171.603C600.624 171.598 600.048 171.061 600.048 170.235ZM602.968 169.706C602.968 169.075 602.577 168.7 601.897 168.7C601.089 168.7 600.486 169.335 600.486 170.213C600.486 170.844 600.878 171.21 601.557 171.21C602.366 171.215 602.968 170.584 602.968 169.706Z" fill="#E0E0E0"/>
<path d="M607.614 168.346L607.046 171.176C606.818 172.314 606.212 172.787 605.154 172.787C604.543 172.787 604.04 172.617 603.708 172.301L603.966 171.969C604.225 172.233 604.663 172.399 605.184 172.399C606.005 172.399 606.44 172.024 606.595 171.249L606.668 170.891C606.358 171.236 605.919 171.445 605.369 171.445C604.508 171.445 603.932 170.95 603.932 170.145C603.932 169.109 604.706 168.321 605.786 168.321C606.384 168.321 606.87 168.564 607.055 169.054L607.193 168.342H607.614V168.346ZM606.874 169.638C606.874 169.05 606.474 168.7 605.799 168.7C604.977 168.7 604.384 169.301 604.384 170.119C604.384 170.707 604.779 171.057 605.459 171.057C606.276 171.061 606.874 170.46 606.874 169.638Z" fill="#E0E0E0"/>
<path d="M610.483 168.321L610.401 168.743C610.358 168.743 610.328 168.734 610.276 168.734C609.584 168.734 609.119 169.126 608.96 169.928L608.633 171.564H608.194L608.84 168.342H609.261L609.149 168.93C609.437 168.513 609.863 168.321 610.483 168.321Z" fill="#E0E0E0"/>
<path d="M614.212 168.347L613.562 171.568H613.141L613.244 171.061C612.934 171.398 612.504 171.598 611.975 171.598C611.141 171.598 610.56 171.083 610.56 170.235C610.56 169.131 611.339 168.325 612.397 168.325C613.016 168.325 613.446 168.577 613.631 169.024L613.769 168.351H614.212V168.347ZM613.481 169.706C613.481 169.075 613.089 168.7 612.41 168.7C611.601 168.7 610.999 169.335 610.999 170.213C610.999 170.844 611.39 171.21 612.07 171.21C612.883 171.215 613.481 170.584 613.481 169.706Z" fill="#E0E0E0"/>
<path d="M618.432 169.68C618.432 170.788 617.654 171.598 616.591 171.598C615.972 171.598 615.542 171.346 615.352 170.895L614.982 172.757H614.544L615.43 168.346H615.851L615.748 168.862C616.058 168.521 616.492 168.325 617.017 168.325C617.843 168.32 618.432 168.836 618.432 169.68ZM617.989 169.706C617.989 169.075 617.598 168.7 616.918 168.7C616.109 168.7 615.516 169.331 615.516 170.213C615.516 170.843 615.907 171.21 616.587 171.21C617.395 171.214 617.989 170.584 617.989 169.706Z" fill="#E0E0E0"/>
<path d="M622.368 169.369C622.368 169.484 622.355 169.608 622.329 169.736L621.959 171.568H621.521L621.891 169.731C621.908 169.629 621.921 169.531 621.921 169.437C621.921 168.977 621.641 168.713 621.082 168.713C620.389 168.713 619.912 169.088 619.757 169.838L619.413 171.564H618.974L619.89 167.017H620.329L619.963 168.824C620.273 168.474 620.708 168.316 621.207 168.316C621.942 168.321 622.368 168.713 622.368 169.369Z" fill="#E0E0E0"/>
<path d="M626.48 168.347L624.106 171.986C623.706 172.6 623.4 172.788 622.932 172.788C622.631 172.788 622.321 172.685 622.157 172.498L622.394 172.178C622.536 172.323 622.721 172.412 622.97 172.412C623.25 172.412 623.465 172.285 623.719 171.893L623.947 171.552L623.138 168.347H623.581L624.256 171.091L626.033 168.347H626.48Z" fill="#E0E0E0"/>
<path d="M865.116 206.182C865.116 206.242 797.655 206.293 714.455 206.293C631.225 206.293 563.782 206.242 563.782 206.182C563.782 206.122 631.23 206.071 714.455 206.071C797.651 206.071 865.116 206.122 865.116 206.182Z" fill="#263238"/>
<path d="M836.804 184.431C836.804 184.431 825.401 171.428 821.099 158.425C816.798 145.422 818.841 146.914 818.841 146.914C818.841 146.914 824.648 159.546 829.061 165.645C833.47 171.747 841.325 180.697 841.325 180.697L836.804 184.431Z" fill="#455A64"/>
<path d="M839.075 148.942C838.705 148.307 837.729 148.636 837.836 149.36C838.533 153.929 840.034 164.643 839.974 171.598C839.897 180.629 839.978 184.12 839.978 184.12H844.723C844.723 184.12 843.88 165.453 842.809 159.759C842.06 155.77 840.464 151.338 839.075 148.942Z" fill="#455A64"/>
<path d="M841.665 182.602C841.665 182.602 844.65 176.38 845.57 168.564C845.962 165.24 845.265 160.748 844.228 154.751C843.725 151.849 843.613 149.637 843.63 148.107C843.643 146.948 845.183 146.573 845.755 147.583C846.328 148.597 847.988 152.053 848.405 154.223C849.554 160.142 850.857 163.1 849.859 168.717C848.865 174.334 845.188 182.982 845.188 182.982L841.665 182.602Z" fill="#455A64"/>
<path d="M845.936 182.982C845.936 182.982 858.454 156.324 859.322 152.373C860.191 148.418 863.142 139.307 863.486 139.822C863.835 140.338 864.355 145.154 862.097 150.656C859.843 156.158 850.207 183.796 850.207 183.796H845.932" fill="#455A64"/>
<path d="M840.292 181.788C840.288 181.797 840.168 181.711 839.94 181.549C839.716 181.383 839.381 181.149 838.972 180.816C838.137 180.169 836.967 179.18 835.608 177.876C832.877 175.276 829.474 171.266 826.528 166.326C823.572 161.387 821.585 156.558 820.329 153.021C819.701 151.252 819.241 149.803 818.944 148.793C818.789 148.29 818.686 147.898 818.613 147.629C818.54 147.361 818.505 147.22 818.514 147.22C818.522 147.216 818.574 147.352 818.664 147.617C818.759 147.902 818.884 148.286 819.043 148.763C819.37 149.76 819.856 151.197 820.51 152.957C821.809 156.468 823.818 161.272 826.76 166.19C829.698 171.108 833.057 175.118 835.746 177.739C837.084 179.06 838.232 180.062 839.045 180.735C839.445 181.081 839.772 181.328 839.983 181.507C840.189 181.686 840.297 181.78 840.292 181.788Z" fill="#263238"/>
<path d="M841.661 168.998C841.643 168.998 841.605 168.721 841.549 168.214C841.489 167.66 841.411 166.944 841.316 166.079C841.119 164.276 840.809 161.787 840.366 159.055C839.923 156.324 839.428 153.865 839.045 152.092C838.86 151.239 838.705 150.532 838.589 149.991C838.482 149.496 838.43 149.219 838.447 149.215C838.465 149.211 838.551 149.479 838.688 149.969C838.83 150.459 839.015 151.171 839.23 152.053C839.66 153.818 840.185 156.277 840.628 159.017C841.071 161.757 841.351 164.251 841.501 166.062C841.579 166.965 841.626 167.703 841.648 168.21C841.678 168.717 841.682 168.998 841.661 168.998Z" fill="#263238"/>
<path d="M844.594 147.37C844.602 147.365 844.654 147.485 844.74 147.706C844.835 147.958 844.959 148.286 845.114 148.695C845.282 149.126 845.471 149.654 845.652 150.281C845.837 150.907 846.078 151.61 846.259 152.416C846.357 152.816 846.461 153.234 846.568 153.669C846.671 154.103 846.749 154.568 846.844 155.041C847.05 155.987 847.175 157.014 847.325 158.093C847.57 160.253 847.704 162.644 847.626 165.159C847.523 167.669 847.218 170.047 846.818 172.186C846.59 173.252 846.388 174.266 846.117 175.195C845.988 175.66 845.88 176.116 845.742 176.546C845.605 176.972 845.471 177.382 845.342 177.774C845.101 178.562 844.813 179.248 844.581 179.858C844.353 180.471 844.125 180.987 843.931 181.401C843.746 181.797 843.6 182.117 843.484 182.359C843.381 182.577 843.321 182.692 843.312 182.688C843.303 182.683 843.346 182.564 843.437 182.338C843.54 182.091 843.669 181.763 843.837 181.358C844.017 180.936 844.233 180.416 844.443 179.802C844.658 179.189 844.938 178.498 845.166 177.71C845.286 177.318 845.415 176.909 845.549 176.482C845.678 176.056 845.781 175.6 845.906 175.136C846.168 174.207 846.357 173.196 846.581 172.135C846.964 170.004 847.265 167.639 847.364 165.146C847.441 162.648 847.317 160.27 847.089 158.118C846.942 157.044 846.826 156.026 846.633 155.079C846.542 154.606 846.474 154.146 846.375 153.711C846.271 153.277 846.177 152.859 846.082 152.458C845.914 151.657 845.686 150.95 845.514 150.323C845.347 149.692 845.17 149.16 845.024 148.725C844.886 148.307 844.779 147.975 844.697 147.719C844.62 147.498 844.585 147.374 844.594 147.37Z" fill="#263238"/>
<path d="M863.344 140.354C863.349 140.354 863.344 140.397 863.336 140.474C863.323 140.568 863.301 140.683 863.28 140.819C863.224 141.122 863.155 141.573 863.035 142.144C862.794 143.291 862.389 144.94 861.766 146.943C861.142 148.946 860.286 151.295 859.271 153.873C858.26 156.456 857.086 159.264 855.976 162.256C854.849 165.244 853.98 168.159 853.163 170.805C852.354 173.452 851.584 175.83 850.844 177.795C850.109 179.759 849.403 181.306 848.865 182.355C848.607 182.883 848.379 183.275 848.229 183.548C848.16 183.672 848.1 183.77 848.052 183.855C848.014 183.923 847.988 183.957 847.984 183.953C847.979 183.949 847.997 183.915 848.027 183.842C848.07 183.757 848.117 183.651 848.177 183.527C848.311 183.25 848.526 182.849 848.767 182.312C849.27 181.255 849.949 179.704 850.659 177.735C851.378 175.77 852.126 173.392 852.922 170.741C853.726 168.095 854.591 165.167 855.722 162.171C856.836 159.17 858.019 156.362 859.039 153.788C860.062 151.218 860.936 148.882 861.581 146.892C862.23 144.902 862.656 143.265 862.931 142.127C863.069 141.561 863.155 141.113 863.228 140.815C863.263 140.678 863.288 140.568 863.31 140.474C863.327 140.393 863.34 140.354 863.344 140.354Z" fill="#263238"/>
<path d="M824.742 134.465C823.955 133.689 822.643 134.499 822.966 135.556C823.297 136.626 823.8 138.006 824.54 139.562C826.261 143.185 831.315 156.187 833.685 163.33C836.051 170.469 839.385 183.791 839.385 183.791L844.439 182.977C844.439 182.977 839.815 161.089 835.298 153.2C831.668 146.867 828.037 137.712 824.742 134.465Z" fill="#455A64"/>
<path d="M835.066 167.796C835.083 167.792 835.173 168.005 835.328 168.397C835.479 168.789 835.681 169.365 835.909 170.077C836.374 171.504 836.946 173.499 837.518 175.715C838.09 177.931 838.567 179.947 838.899 181.413C839.049 182.103 839.178 182.687 839.277 183.148C839.363 183.557 839.398 183.787 839.38 183.791C839.363 183.795 839.29 183.574 839.174 183.169C839.049 182.713 838.894 182.138 838.709 181.456C838.322 179.951 837.815 177.969 837.251 175.779C836.679 173.567 836.137 171.568 835.72 170.128C835.522 169.45 835.354 168.879 835.221 168.423C835.109 168.027 835.049 167.801 835.066 167.796Z" fill="#263238"/>
<path d="M841.922 183.386C841.918 183.386 841.91 183.339 841.892 183.254C841.875 183.152 841.858 183.02 841.836 182.858C841.785 182.513 841.737 181.997 841.63 181.341C841.445 180.024 841.114 178.131 840.572 175.817C840.034 173.503 839.247 170.784 838.206 167.818C837.169 164.852 835.87 161.647 834.395 158.331C831.422 151.704 828.45 145.827 826.502 141.48C825.516 139.31 824.751 137.542 824.248 136.31C823.989 135.696 823.809 135.21 823.68 134.887C823.624 134.733 823.577 134.614 823.538 134.512C823.508 134.426 823.495 134.384 823.499 134.379C823.503 134.379 823.525 134.418 823.564 134.499C823.607 134.597 823.663 134.716 823.727 134.861C823.878 135.202 824.08 135.671 824.342 136.263C824.876 137.482 825.663 139.238 826.669 141.394C828.665 145.716 831.659 151.58 834.636 158.216C836.111 161.536 837.406 164.754 838.434 167.733C839.462 170.712 840.232 173.443 840.752 175.77C841.273 178.093 841.578 179.998 841.729 181.324C841.819 181.984 841.849 182.5 841.888 182.849C841.901 183.011 841.91 183.143 841.918 183.246C841.927 183.339 841.927 183.386 841.922 183.386Z" fill="#263238"/>
<path d="M844.439 182.982C844.422 182.986 844.362 182.683 844.267 182.142C844.168 181.554 844.035 180.778 843.876 179.841C843.527 177.901 842.994 175.229 842.232 172.323C841.475 169.412 840.624 166.821 839.965 164.963C839.643 164.068 839.376 163.326 839.174 162.763C838.985 162.243 838.89 161.954 838.907 161.949C838.924 161.941 839.054 162.218 839.273 162.729C839.492 163.236 839.793 163.978 840.146 164.903C840.847 166.748 841.733 169.339 842.495 172.259C843.26 175.178 843.764 177.863 844.069 179.815C844.211 180.791 844.323 181.584 844.379 182.133C844.43 182.675 844.456 182.977 844.439 182.982Z" fill="#263238"/>
<path d="M854.814 182.261H835.087V206.072H854.814V182.261Z" fill="#FF6652"/>
<g opacity="0.3">
<path opacity="0.3" d="M854.814 182.261H835.087V206.072H854.814V182.261Z" fill="black"/>
</g>
<path d="M848.517 182.261H831.018V206.072H848.517V182.261Z" fill="#FF6652"/>
<path d="M592.081 173.985C588.722 171.854 584.063 171.812 580.794 174.079C577.689 176.231 576.114 180.144 576.252 183.894C576.389 187.644 578.222 192.226 581.655 194.199L591.72 194.161C594.933 191.817 597.11 188.045 597.26 184.094C597.407 180.139 595.441 176.116 592.081 173.985Z" fill="#455A64"/>
<path d="M587.122 194.557C587.1 194.557 587.079 194.25 587.057 193.7C587.04 193.086 587.019 192.302 586.989 191.36C586.937 189.387 586.86 186.66 586.726 183.646C586.593 180.633 586.429 177.91 586.305 175.941C586.249 175.003 586.201 174.219 586.163 173.606C586.133 173.051 586.128 172.749 586.15 172.745C586.171 172.745 586.219 173.047 586.287 173.593C586.356 174.143 586.438 174.939 586.528 175.924C586.709 177.893 586.911 180.621 587.045 183.634C587.178 186.647 587.221 189.379 587.212 191.356C587.208 192.345 587.195 193.146 587.178 193.696C587.165 194.25 587.143 194.557 587.122 194.557Z" fill="#263238"/>
<path d="M577.263 183.041C577.255 183.131 576.708 183.156 576.042 183.101C575.375 183.045 574.837 182.93 574.846 182.845C574.854 182.756 575.401 182.73 576.067 182.786C576.734 182.837 577.272 182.952 577.263 183.041Z" fill="#263238"/>
<path d="M577.452 179.675C577.418 179.756 576.944 179.624 576.398 179.385C575.852 179.146 575.439 178.887 575.473 178.806C575.508 178.725 575.981 178.852 576.527 179.095C577.073 179.334 577.486 179.594 577.452 179.675Z" fill="#263238"/>
<path d="M579.199 177.177C579.151 177.249 578.622 177.002 578.072 176.55C577.521 176.098 577.173 175.63 577.237 175.57C577.302 175.51 577.74 175.868 578.274 176.303C578.807 176.742 579.246 177.1 579.199 177.177Z" fill="#263238"/>
<path d="M580.958 174.82C580.876 174.854 580.622 174.462 580.39 173.942C580.158 173.422 580.033 172.971 580.115 172.937C580.196 172.903 580.45 173.295 580.682 173.815C580.915 174.335 581.035 174.786 580.958 174.82Z" fill="#263238"/>
<path d="M583.715 173.15C583.638 173.188 583.363 172.766 583.182 172.187C582.997 171.607 582.984 171.108 583.07 171.091C583.16 171.074 583.311 171.53 583.487 172.089C583.659 172.651 583.797 173.111 583.715 173.15Z" fill="#263238"/>
<path d="M588.314 171.262C588.395 171.292 588.348 171.65 588.197 172.059C588.051 172.472 587.862 172.779 587.78 172.753C587.698 172.724 587.746 172.366 587.896 171.956C588.043 171.543 588.232 171.232 588.314 171.262Z" fill="#263238"/>
<path d="M591.729 172.715C591.789 172.779 591.57 173.077 591.239 173.38C590.907 173.682 590.593 173.874 590.533 173.81C590.473 173.746 590.692 173.448 591.024 173.145C591.35 172.843 591.669 172.651 591.729 172.715Z" fill="#263238"/>
<path d="M594.732 174.637C594.783 174.71 594.516 174.974 594.134 175.23C593.755 175.485 593.407 175.63 593.355 175.558C593.303 175.485 593.57 175.221 593.953 174.965C594.336 174.71 594.684 174.565 594.732 174.637Z" fill="#263238"/>
<path d="M596.865 177.501C596.899 177.582 596.478 177.838 595.927 178.072C595.372 178.306 594.895 178.43 594.86 178.349C594.826 178.268 595.247 178.012 595.802 177.778C596.353 177.548 596.83 177.42 596.865 177.501Z" fill="#263238"/>
<path d="M597.708 180.629C597.721 180.714 597.291 180.842 596.753 180.906C596.215 180.974 595.768 180.953 595.759 180.868C595.746 180.782 596.177 180.655 596.714 180.591C597.252 180.522 597.695 180.539 597.708 180.629Z" fill="#263238"/>
<path d="M598.142 184.478C598.108 184.559 597.652 184.439 597.123 184.214C596.594 183.988 596.198 183.736 596.232 183.655C596.267 183.574 596.723 183.694 597.252 183.92C597.781 184.145 598.181 184.397 598.142 184.478Z" fill="#263238"/>
<path d="M597.76 187.781C597.73 187.862 597.153 187.725 596.551 187.333C595.945 186.945 595.587 186.477 595.652 186.417C595.717 186.353 596.155 186.698 596.727 187.065C597.295 187.435 597.79 187.695 597.76 187.781Z" fill="#263238"/>
<path d="M596.022 190.785C595.97 190.853 595.51 190.585 595.071 190.116C594.628 189.647 594.396 189.174 594.464 189.127C594.538 189.076 594.882 189.451 595.303 189.903C595.729 190.35 596.082 190.717 596.022 190.785Z" fill="#263238"/>
<path d="M579.547 191.139C579.59 191.216 579.104 191.544 578.472 191.872C577.835 192.201 577.289 192.401 577.246 192.324C577.203 192.247 577.689 191.919 578.321 191.591C578.958 191.263 579.504 191.063 579.547 191.139Z" fill="#263238"/>
<path d="M578.041 188.42C578.08 188.501 577.693 188.752 577.177 188.982C576.665 189.213 576.217 189.336 576.179 189.255C576.14 189.174 576.527 188.923 577.043 188.693C577.559 188.462 578.003 188.339 578.041 188.42Z" fill="#263238"/>
<path d="M576.936 186.012C576.949 186.097 576.471 186.238 575.873 186.323C575.276 186.408 574.777 186.404 574.764 186.319C574.751 186.234 575.228 186.093 575.826 186.008C576.424 185.923 576.923 185.922 576.936 186.012Z" fill="#263238"/>
<path d="M580.562 184.683C580.588 184.764 580.124 184.981 579.504 185.049C578.885 185.122 578.386 185.011 578.39 184.925C578.394 184.836 578.88 184.798 579.465 184.729C580.055 184.67 580.536 184.597 580.562 184.683Z" fill="#263238"/>
<path d="M583.578 181.712C583.603 181.793 583.233 181.98 582.735 182.027C582.236 182.078 581.84 181.967 581.848 181.882C581.857 181.793 582.24 181.759 582.704 181.712C583.169 181.665 583.552 181.626 583.578 181.712Z" fill="#263238"/>
<path d="M584.154 179.33C584.124 179.415 583.724 179.351 583.259 179.193C582.795 179.036 582.442 178.84 582.472 178.754C582.502 178.673 582.902 178.733 583.367 178.891C583.831 179.053 584.184 179.249 584.154 179.33Z" fill="#263238"/>
<path d="M585.259 176.921C585.199 176.981 584.924 176.802 584.726 176.465C584.528 176.129 584.511 175.805 584.592 175.779C584.679 175.754 584.829 176.005 585.001 176.303C585.177 176.61 585.324 176.862 585.259 176.921Z" fill="#263238"/>
<path d="M583.926 186.779C583.948 186.865 583.599 187.022 583.152 187.129C582.894 187.193 582.657 187.223 582.502 187.223L582.438 187.035C582.554 187.014 582.627 187.018 582.644 187.052C582.657 187.086 582.614 187.146 582.519 187.214L582.455 187.026C582.593 186.954 582.816 186.877 583.074 186.813C583.526 186.715 583.905 186.694 583.926 186.779Z" fill="#263238"/>
<path d="M584.549 191.002C584.584 191.083 584.141 191.335 583.564 191.556C582.988 191.782 582.493 191.897 582.459 191.816C582.424 191.735 582.867 191.488 583.444 191.262C584.02 191.037 584.515 190.921 584.549 191.002Z" fill="#263238"/>
<path d="M581.143 189.128C581.173 189.213 580.876 189.388 580.485 189.515C580.093 189.648 579.754 189.686 579.724 189.605C579.693 189.52 579.99 189.349 580.382 189.217C580.773 189.085 581.113 189.042 581.143 189.128Z" fill="#263238"/>
<path d="M581.401 180.536C581.379 180.621 580.868 180.57 580.274 180.361C579.68 180.152 579.25 179.875 579.289 179.794C579.328 179.713 579.805 179.858 580.382 180.059C580.958 180.263 581.422 180.446 581.401 180.536Z" fill="#263238"/>
<path d="M589.643 179.602C589.69 179.674 589.402 179.951 588.998 180.216C588.593 180.48 588.223 180.633 588.176 180.561C588.129 180.488 588.417 180.211 588.821 179.947C589.226 179.683 589.595 179.525 589.643 179.602Z" fill="#263238"/>
<path d="M590.094 183.839C590.112 183.924 589.811 184.06 589.415 184.141C589.023 184.222 588.692 184.218 588.671 184.133C588.653 184.047 588.955 183.911 589.35 183.83C589.742 183.749 590.073 183.753 590.094 183.839Z" fill="#263238"/>
<path d="M590.615 188.607C590.576 188.688 590.141 188.565 589.638 188.334C589.135 188.104 588.761 187.853 588.799 187.772C588.838 187.691 589.272 187.815 589.776 188.045C590.275 188.275 590.649 188.526 590.615 188.607Z" fill="#263238"/>
<path d="M589.509 193.244C589.441 193.299 589.157 193.069 588.877 192.733C588.597 192.392 588.425 192.072 588.49 192.017C588.559 191.961 588.843 192.191 589.122 192.528C589.406 192.869 589.578 193.189 589.509 193.244Z" fill="#263238"/>
<path d="M589.286 176.478C589.342 176.546 589.153 176.781 588.83 176.938C588.507 177.1 588.206 177.109 588.185 177.024C588.159 176.938 588.395 176.798 588.684 176.653C588.976 176.512 589.23 176.41 589.286 176.478Z" fill="#263238"/>
<path d="M593.325 180.753C593.355 180.834 592.981 181.039 592.469 181.107C591.957 181.179 591.544 181.081 591.548 180.996C591.552 180.907 591.948 180.856 592.426 180.792C592.899 180.732 593.295 180.672 593.325 180.753Z" fill="#263238"/>
<path d="M592.521 176.917C592.559 176.994 592.189 177.258 591.66 177.424C591.131 177.59 590.675 177.59 590.662 177.505C590.649 177.416 591.058 177.279 591.561 177.122C592.065 176.96 592.482 176.836 592.521 176.917Z" fill="#263238"/>
<path d="M594.206 186.698C594.206 186.783 593.57 186.839 592.804 186.702C592.038 186.566 591.462 186.293 591.492 186.212C591.522 186.127 592.12 186.259 592.86 186.387C593.6 186.523 594.206 186.608 594.206 186.698Z" fill="#263238"/>
<path d="M592.705 192.273C592.654 192.341 592.185 192.068 591.72 191.604C591.251 191.139 590.98 190.674 591.049 190.623C591.122 190.568 591.497 190.93 591.948 191.378C592.396 191.829 592.761 192.204 592.705 192.273Z" fill="#263238"/>
<path d="M586.107 172.378C586.154 172.446 584.825 172.979 583.289 174.586C581.754 176.154 580.171 178.924 579.779 182.27C579.594 183.932 579.753 185.543 579.99 186.979C580.24 188.416 580.575 189.694 580.88 190.76C581.19 191.825 581.474 192.677 581.663 193.266C581.853 193.858 581.956 194.186 581.934 194.195C581.913 194.203 581.775 193.888 581.547 193.308C581.319 192.729 581.005 191.885 580.665 190.823C580.33 189.762 579.973 188.484 579.702 187.03C579.444 185.581 579.272 183.945 579.461 182.236C579.861 178.814 581.517 175.992 583.126 174.432C583.926 173.64 584.679 173.111 585.229 172.804C585.496 172.638 585.724 172.549 585.875 172.472C586.021 172.404 586.103 172.37 586.107 172.378Z" fill="#263238"/>
<path d="M590.49 194.399C590.421 194.365 591.213 193.155 591.935 190.981C592.68 188.829 593.295 185.646 592.8 182.189C592.568 180.463 592.064 178.865 591.432 177.501C590.774 176.154 589.927 175.051 589.101 174.279C588.245 173.529 587.402 173.099 586.812 172.847C586.219 172.6 585.862 172.545 585.866 172.519C585.866 172.511 585.956 172.515 586.128 172.54C586.296 172.57 586.546 172.626 586.855 172.736C587.47 172.958 588.339 173.363 589.247 174.113C590.129 174.893 591.002 175.993 591.699 177.378C592.361 178.767 592.882 180.391 593.118 182.147C593.622 185.671 592.959 188.902 592.151 191.058C591.97 191.608 591.733 192.081 591.561 192.503C591.355 192.912 591.183 193.27 591.028 193.551C590.697 194.105 590.507 194.408 590.49 194.399Z" fill="#263238"/>
<path d="M578.042 193.645H595.755L595.863 197.157H578.042V193.645Z" fill="#FF6652"/>
<path d="M579.547 195.401L580.562 206.124H593.514L594.555 195.52L579.547 195.401Z" fill="#FF6652"/>
<path d="M595.863 197.2C595.863 197.289 591.875 197.357 586.954 197.357C582.033 197.357 578.046 197.285 578.046 197.2C578.046 197.114 582.033 197.042 586.954 197.042C591.875 197.042 595.863 197.11 595.863 197.2Z" fill="#263238"/>
<path d="M594.065 200.464C594.082 200.473 593.961 200.72 593.686 201.133C593.407 201.542 592.968 202.122 592.314 202.74L592.232 202.817L592.15 202.731C591.299 201.845 590.124 200.758 588.679 199.722L588.877 199.714C588.382 200.144 587.866 200.592 587.337 201.052C586.709 201.593 586.098 202.122 585.518 202.621L585.419 202.706L585.32 202.621C584.218 201.7 583.212 200.865 582.36 200.157L582.532 200.14C581.921 200.877 581.41 201.5 581.001 201.99C580.631 202.424 580.42 202.655 580.399 202.642C580.382 202.629 580.558 202.365 580.893 201.909C581.276 201.402 581.762 200.758 582.339 199.995L582.412 199.897L582.511 199.978C583.375 200.673 584.395 201.491 585.513 202.39L585.311 202.395C585.892 201.892 586.498 201.363 587.122 200.818C587.651 200.357 588.172 199.914 588.666 199.484L588.761 199.403L588.86 199.475C590.318 200.536 591.484 201.662 592.314 202.582L592.15 202.578C593.471 201.397 594.013 200.43 594.065 200.464Z" fill="#263238"/>
<path d="M806.908 203.182H619.396C615.933 203.182 613.129 200.403 613.129 196.972V78.3228C613.129 74.892 615.933 72.1133 619.396 72.1133H806.908C810.371 72.1133 813.175 74.892 813.175 78.3228V196.972C813.175 200.399 810.371 203.182 806.908 203.182Z" fill="#455A64"/>
<path d="M815.657 206.182H614.238C610.01 206.182 606.582 202.786 606.582 198.596V194.714H823.314V198.596C823.314 202.79 819.886 206.182 815.657 206.182Z" fill="#455A64"/>
<path d="M693.434 193.486L696.122 197.727H733.967L736.462 193.486H693.434Z" fill="#263238"/>
<path d="M811.454 193.486C811.454 193.558 767.054 193.614 712.296 193.614C657.52 193.614 613.129 193.558 613.129 193.486C613.129 193.413 657.52 193.358 712.296 193.358C767.054 193.358 811.454 193.413 811.454 193.486Z" fill="#263238"/>
<path d="M805.256 190.021H620.269C619.491 190.021 618.863 189.395 618.863 188.628V81.046C618.863 80.2746 619.495 79.6523 620.269 79.6523H805.26C806.039 79.6523 806.667 80.2788 806.667 81.046V188.628C806.663 189.395 806.035 190.021 805.256 190.021Z" fill="#EBEBEB"/>
<path d="M806.465 190.183H618.656L618.858 87.8989H806.465V190.183Z" fill="white"/>
<path d="M634.262 83.9146C634.262 84.7372 633.591 85.402 632.761 85.402C631.93 85.402 631.259 84.7372 631.259 83.9146C631.259 83.0921 631.93 82.4272 632.761 82.4272C633.591 82.4272 634.262 83.0921 634.262 83.9146Z" fill="#263238"/>
<path d="M625.173 83.9146C625.173 84.7372 624.502 85.402 623.672 85.402C622.841 85.402 622.17 84.7372 622.17 83.9146C622.17 83.0921 622.841 82.4272 623.672 82.4272C624.502 82.4272 625.173 83.0921 625.173 83.9146Z" fill="#263238"/>
<path d="M629.534 83.9146C629.534 84.7372 628.863 85.402 628.033 85.402C627.203 85.402 626.532 84.7372 626.532 83.9146C626.532 83.0921 627.203 82.4272 628.033 82.4272C628.863 82.4272 629.534 83.0921 629.534 83.9146Z" fill="#263238"/>
<path d="M806.663 180.304H618.656V190.183H806.663V180.304Z" fill="#263238"/>
<path d="M625.762 186.386V186.701H624.265V186.45L625.074 185.691C625.272 185.504 625.306 185.388 625.306 185.273C625.306 185.09 625.177 184.984 624.928 184.984C624.73 184.984 624.567 185.052 624.45 185.192L624.188 184.992C624.343 184.783 624.627 184.66 624.958 184.66C625.401 184.66 625.685 184.881 625.685 185.239C625.685 185.435 625.629 185.614 625.349 185.874L624.807 186.386H625.762Z" fill="white"/>
<path d="M625.964 185.388C625.964 185.243 626.072 185.149 626.201 185.149C626.33 185.149 626.438 185.243 626.438 185.388C626.438 185.524 626.33 185.627 626.201 185.627C626.072 185.627 625.964 185.529 625.964 185.388ZM625.964 186.483C625.964 186.338 626.072 186.245 626.201 186.245C626.33 186.245 626.438 186.338 626.438 186.483C626.438 186.62 626.33 186.722 626.201 186.722C626.072 186.722 625.964 186.624 625.964 186.483Z" fill="white"/>
<path d="M627.384 184.689V186.701H627.005V185H626.575V184.685H627.384V184.689Z" fill="white"/>
<path d="M629.599 186.245H629.238V186.701H628.872V186.245H627.758V185.985L628.76 184.689H629.165L628.223 185.93H628.889V185.525H629.242V185.93H629.604V186.245H629.599Z" fill="white"/>
<path d="M787.014 185.44H632.916V186.135H787.014V185.44Z" fill="white"/>
<path d="M680.955 184.694H632.8V186.553H680.955V184.694Z" fill="#FF6652"/>
<path d="M682.513 185.79C682.513 187.073 681.463 188.113 680.168 188.113C678.874 188.113 677.824 187.073 677.824 185.79C677.824 184.507 678.874 183.467 680.168 183.467C681.463 183.467 682.513 184.507 682.513 185.79Z" fill="#FF6652"/>
<path d="M790.894 185.768C790.894 186.169 790.567 186.42 790.149 186.42C789.595 186.42 789.272 186.067 789.272 185.419C789.272 184.728 789.676 184.349 790.266 184.349C790.468 184.349 790.661 184.392 790.799 184.477L790.661 184.758C790.55 184.686 790.416 184.66 790.274 184.66C789.891 184.66 789.651 184.895 789.651 185.355V185.359C789.771 185.219 789.969 185.15 790.193 185.15C790.597 185.15 790.894 185.393 790.894 185.768ZM790.528 185.785C790.528 185.577 790.369 185.444 790.124 185.444C789.878 185.444 789.711 185.589 789.711 185.79C789.711 185.977 789.861 186.131 790.132 186.131C790.369 186.126 790.528 185.994 790.528 185.785Z" fill="white"/>
<path d="M791.079 185.078C791.079 184.933 791.186 184.839 791.315 184.839C791.444 184.839 791.552 184.933 791.552 185.078C791.552 185.214 791.444 185.316 791.315 185.316C791.186 185.316 791.079 185.214 791.079 185.078ZM791.079 186.173C791.079 186.028 791.186 185.934 791.315 185.934C791.444 185.934 791.552 186.028 791.552 186.173C791.552 186.309 791.444 186.411 791.315 186.411C791.186 186.411 791.079 186.309 791.079 186.173Z" fill="white"/>
<path d="M791.797 185.385C791.797 184.724 792.163 184.349 792.645 184.349C793.131 184.349 793.496 184.724 793.496 185.385C793.496 186.045 793.131 186.42 792.645 186.42C792.163 186.42 791.797 186.045 791.797 185.385ZM793.113 185.385C793.113 184.899 792.924 184.673 792.645 184.673C792.369 184.673 792.176 184.899 792.176 185.385C792.176 185.871 792.369 186.096 792.645 186.096C792.924 186.096 793.113 185.871 793.113 185.385Z" fill="white"/>
<path d="M793.745 185.385C793.745 184.724 794.111 184.349 794.593 184.349C795.079 184.349 795.444 184.724 795.444 185.385C795.444 186.045 795.079 186.42 794.593 186.42C794.111 186.42 793.745 186.045 793.745 185.385ZM795.066 185.385C795.066 184.899 794.877 184.673 794.597 184.673C794.322 184.673 794.128 184.899 794.128 185.385C794.128 185.871 794.322 186.096 794.597 186.096C794.872 186.096 795.066 185.871 795.066 185.385Z" fill="white"/>
<path d="M798.726 185.261H798.025V183.254H800.043V183.949H798.726V185.261Z" fill="white"/>
<path d="M800.047 187.878H798.021V185.879H798.722V187.184H800.047V187.878Z" fill="white"/>
<path d="M803.273 187.878H801.251V187.183H802.568V185.871H803.273V187.878Z" fill="white"/>
<path d="M803.274 185.257H802.572V183.949H801.248V183.254H803.274V185.257Z" fill="white"/>
<path d="M644.414 93.981H633.342L627.81 103.476L633.342 112.976H644.414L649.945 103.476L644.414 93.981Z" fill="#EBEBEB"/>
<path d="M634.245 105.339C633.75 104.798 633.251 104.248 632.89 103.609C632.529 102.969 632.313 102.228 632.434 101.503C632.503 101.081 632.683 100.681 632.713 100.255C632.752 99.6666 632.503 99.0528 632.713 98.5031C633.04 97.6422 634.21 97.5101 634.92 96.9177C635.471 96.4531 635.742 95.703 636.348 95.3152C636.877 94.9743 637.561 94.9828 638.185 95.0723C638.809 95.1618 639.441 95.3152 640.065 95.2342C640.512 95.1746 640.929 94.9956 641.368 94.889C641.807 94.7825 642.293 94.7527 642.68 94.9785C643.067 95.2044 643.287 95.7499 643.033 96.1164C643.76 95.784 644.68 96.3466 644.878 97.1095C645.076 97.8766 644.68 98.7034 644.065 99.2105C643.45 99.7177 642.654 99.9521 641.871 100.097C639.652 100.51 637.239 100.276 635.325 99.0869" fill="#263238"/>
<path d="M644.508 107.683C644.435 106.324 644.048 103.537 643.674 101.018C643.27 98.3072 640.831 96.3639 638.073 96.5471L637.798 96.5642C634.856 96.9307 633.527 99.6114 633.978 102.518L634.843 112.981H642.026C642.026 112.981 641.859 111.144 641.854 111.127C641.854 111.123 644.663 110.496 644.508 107.683Z" fill="#FFBE9D"/>
<path d="M641.854 111.085C641.854 111.085 640.069 111.349 638.082 110.288C638.082 110.288 639.093 112.252 641.91 111.813L641.854 111.085Z" fill="#EB996E"/>
<path d="M643.158 102.433C643.111 102.488 642.788 102.283 642.354 102.313C641.919 102.339 641.614 102.582 641.562 102.531C641.537 102.509 641.584 102.411 641.713 102.3C641.842 102.19 642.07 102.079 642.341 102.062C642.612 102.045 642.849 102.13 642.986 102.224C643.128 102.313 643.18 102.407 643.158 102.433Z" fill="#263238"/>
<path d="M638.874 102.799C638.826 102.855 638.504 102.65 638.069 102.68C637.635 102.705 637.329 102.948 637.278 102.897C637.252 102.876 637.299 102.778 637.433 102.667C637.562 102.556 637.79 102.446 638.061 102.428C638.332 102.411 638.568 102.497 638.706 102.59C638.844 102.68 638.895 102.774 638.874 102.799Z" fill="#263238"/>
<path d="M640.672 105.897C640.667 105.872 640.934 105.808 641.373 105.723C641.485 105.706 641.588 105.676 641.601 105.599C641.622 105.518 641.566 105.403 641.506 105.275C641.381 105.015 641.257 104.742 641.119 104.457C640.581 103.289 640.181 102.33 640.229 102.309C640.276 102.288 640.753 103.217 641.291 104.384C641.42 104.674 641.545 104.947 641.665 105.211C641.717 105.335 641.799 105.471 641.751 105.642C641.725 105.727 641.648 105.791 641.579 105.816C641.51 105.842 641.446 105.846 641.39 105.855C640.951 105.902 640.676 105.923 640.672 105.897Z" fill="#263238"/>
<path d="M638.869 101.094C638.835 101.213 638.396 101.188 637.888 101.281C637.377 101.367 636.977 101.541 636.899 101.443C636.865 101.396 636.929 101.281 637.088 101.153C637.248 101.03 637.501 100.902 637.807 100.851C638.112 100.795 638.396 100.825 638.59 100.889C638.783 100.953 638.886 101.038 638.869 101.094Z" fill="#263238"/>
<path d="M642.913 101.192C642.844 101.295 642.534 101.214 642.173 101.231C641.811 101.239 641.51 101.341 641.433 101.243C641.398 101.197 641.441 101.094 641.566 100.992C641.691 100.89 641.906 100.8 642.155 100.792C642.405 100.783 642.624 100.86 642.758 100.949C642.891 101.043 642.943 101.141 642.913 101.192Z" fill="#263238"/>
<path d="M634.352 104.581C634.301 104.564 632.361 104.138 632.554 106.06C632.748 107.978 634.847 107.355 634.843 107.3C634.843 107.24 634.352 104.581 634.352 104.581Z" fill="#FFBE9D"/>
<path d="M633.982 106.669C633.973 106.665 633.952 106.695 633.896 106.729C633.844 106.759 633.75 106.784 633.642 106.759C633.431 106.703 633.225 106.401 633.182 106.056C633.16 105.881 633.182 105.71 633.229 105.57C633.272 105.425 633.358 105.318 633.457 105.288C633.556 105.254 633.638 105.31 633.664 105.361C633.694 105.412 633.685 105.45 633.698 105.455C633.702 105.459 633.737 105.421 633.711 105.34C633.698 105.301 633.672 105.259 633.621 105.229C633.569 105.195 633.5 105.182 633.427 105.199C633.281 105.224 633.156 105.374 633.105 105.531C633.044 105.689 633.014 105.881 633.04 106.077C633.092 106.46 633.328 106.806 633.616 106.857C633.754 106.878 633.866 106.827 633.922 106.776C633.986 106.716 633.991 106.669 633.982 106.669Z" fill="#EB996E"/>
<path d="M643.532 98.3882C643.399 99.1511 641.837 99.85 640.538 99.8159C639.342 99.7818 638.753 99.1937 637.884 98.776C637.333 98.5118 637.333 98.5118 636.589 98.6311C635.987 98.7292 635.673 99.4324 635.333 99.9353C635.978 101.329 635.716 102.948 635.445 104.457C635.415 104.623 635.376 104.802 635.247 104.917C635.028 105.109 634.675 104.994 634.464 104.798C634.12 104.487 633.965 104.027 633.854 103.579C633.595 102.561 633.501 101.495 633.66 100.459C633.823 99.4238 634.254 98.4138 634.972 97.6424C635.867 96.6749 637.17 96.1166 638.495 96.0484C639.815 95.9803 641.145 96.3851 642.25 97.1054C642.758 97.4421 643.239 97.8512 643.532 98.3882Z" fill="#263238"/>
<path d="M640.96 106.869C640.629 106.716 640.302 106.566 639.97 106.413C639.914 106.388 639.854 106.362 639.79 106.366C639.721 106.375 639.665 106.426 639.618 106.481C639.39 106.754 639.329 107.172 639.51 107.483C639.687 107.794 640.104 107.956 640.435 107.819C640.783 107.675 640.955 107.274 640.981 106.899L640.96 106.869Z" fill="#EB996E"/>
<path d="M640.469 107.892C640.486 107.909 640.263 108.049 639.888 107.943C639.708 107.887 639.501 107.751 639.377 107.529C639.248 107.312 639.2 107.005 639.312 106.728C639.364 106.592 639.45 106.468 639.553 106.374C639.605 106.328 639.656 106.285 639.721 106.251C639.785 106.204 639.919 106.2 639.979 106.234C640.203 106.357 640.357 106.464 640.508 106.562C640.796 106.754 640.968 106.882 640.951 106.911C640.934 106.937 640.736 106.856 640.426 106.698C640.246 106.605 640.073 106.515 639.897 106.426C639.854 106.413 639.858 106.413 639.82 106.434C639.781 106.46 639.734 106.494 639.699 106.532C639.622 106.609 639.557 106.703 639.519 106.809C639.433 107.022 639.463 107.257 639.557 107.436C639.652 107.615 639.798 107.734 639.944 107.798C640.241 107.921 640.461 107.853 640.469 107.892Z" fill="#263238"/>
<path d="M640.155 103.476C640.134 103.476 640.138 103.297 640.048 102.999C639.962 102.705 639.755 102.274 639.308 101.946C638.873 101.618 638.164 101.435 637.48 101.691C636.8 101.925 636.215 102.641 636.224 103.476C636.215 104.312 636.8 105.028 637.48 105.262C638.164 105.518 638.873 105.334 639.308 105.006C639.755 104.678 639.966 104.248 640.048 103.954C640.138 103.655 640.134 103.476 640.155 103.476C640.164 103.476 640.168 103.519 640.172 103.604C640.177 103.689 640.168 103.817 640.134 103.975C640.069 104.29 639.876 104.759 639.402 105.13C638.947 105.501 638.168 105.722 637.407 105.454C636.65 105.207 635.987 104.41 635.996 103.476C635.987 102.543 636.65 101.746 637.407 101.499C638.172 101.226 638.947 101.448 639.402 101.823C639.876 102.193 640.069 102.666 640.134 102.978C640.168 103.135 640.177 103.263 640.172 103.348C640.168 103.434 640.164 103.476 640.155 103.476Z" fill="#263238"/>
<path d="M644.986 103.289C644.964 103.289 644.964 103.114 644.883 102.824C644.801 102.539 644.599 102.121 644.16 101.802C643.738 101.482 643.046 101.307 642.379 101.554C641.717 101.78 641.149 102.479 641.157 103.293C641.149 104.107 641.721 104.802 642.379 105.032C643.046 105.279 643.738 105.104 644.16 104.785C644.599 104.465 644.801 104.048 644.883 103.762C644.969 103.464 644.964 103.289 644.986 103.289C644.994 103.289 644.999 103.332 645.003 103.417C645.007 103.498 644.999 103.621 644.969 103.779C644.908 104.086 644.719 104.542 644.259 104.908C643.816 105.271 643.059 105.488 642.31 105.224C641.57 104.981 640.925 104.205 640.934 103.293C640.925 102.381 641.57 101.605 642.31 101.363C643.054 101.098 643.812 101.316 644.259 101.678C644.719 102.04 644.908 102.5 644.969 102.807C645.003 102.961 645.007 103.084 645.003 103.17C644.999 103.246 644.994 103.289 644.986 103.289Z" fill="#263238"/>
<path d="M641.046 102.85C641.003 102.893 640.809 102.769 640.551 102.778C640.293 102.778 640.108 102.91 640.061 102.867C640 102.837 640.181 102.56 640.547 102.552C640.912 102.548 641.102 102.816 641.046 102.85Z" fill="#263238"/>
<path d="M636.232 103.195C636.271 103.247 635.892 103.583 635.393 103.954C634.894 104.325 634.456 104.585 634.421 104.534C634.382 104.482 634.761 104.146 635.26 103.775C635.759 103.404 636.193 103.144 636.232 103.195Z" fill="#263238"/>
<path d="M676.159 103.382C676.159 103.442 671.182 103.493 665.044 103.493C658.905 103.493 653.928 103.442 653.928 103.382C653.928 103.323 658.905 103.271 665.044 103.271C671.182 103.271 676.159 103.318 676.159 103.382Z" fill="#263238"/>
<path d="M665.878 105.688C665.878 105.748 663.237 105.799 659.977 105.799C656.716 105.799 654.075 105.748 654.075 105.688C654.075 105.629 656.716 105.577 659.977 105.577C663.237 105.573 665.878 105.624 665.878 105.688Z" fill="#263238"/>
<path d="M742.746 120.409C742.746 120.409 748.652 123.26 750.73 130.625C752.807 137.989 759.156 157.168 759.156 157.168C759.156 157.168 762.787 161.4 763.178 164.532C763.565 167.664 762.791 175.246 761.621 176.661C760.455 178.076 758.791 177.842 758.791 177.842L743.507 176.405L737.49 136.481L742.746 120.409Z" fill="#FF6652"/>
<path d="M692.212 119.715C692.212 119.715 681.286 123.111 678.563 126.065L687.51 167.307L687.368 180.318H739.176C739.176 179.674 739.64 137.116 739.64 137.116L742.755 120.414L724.34 117.2L720.709 114.375L700.221 115.402L697.107 118.487L692.212 119.715Z" fill="#FF6652"/>
<g opacity="0.3">
<path opacity="0.3" d="M696.363 155.493C696.204 155.143 695.976 154.764 695.597 154.687C694.974 154.559 694.556 155.292 694.346 155.885C692.664 160.607 690.435 164.95 687.541 169.049L687.407 175.383C690.427 172.864 693.404 170.166 695.331 166.752C697.249 163.339 697.989 159.055 696.363 155.493Z" fill="black"/>
</g>
<path d="M678.559 126.064C678.559 126.064 674.959 130.927 673.462 134.102C671.965 137.277 659.576 163.939 658.832 166.693C658.084 169.446 656.161 178.119 661.822 180.13H673.462L685.145 156.72L685.742 129.551L678.559 126.064Z" fill="#FF6652"/>
<path d="M674.21 163.219C674.193 163.236 673.952 162.993 673.414 162.691C672.881 162.393 672.046 162.047 670.971 161.813C670.433 161.698 669.835 161.604 669.19 161.566C668.545 161.527 667.852 161.536 667.147 161.698C665.736 162.009 664.334 162.895 663.228 164.136C662.105 165.376 661.417 166.842 661.009 168.223C660.596 169.608 660.419 170.908 660.307 171.994C660.2 173.085 660.157 173.972 660.118 174.586C660.101 174.871 660.084 175.106 660.075 175.293C660.062 175.455 660.054 175.54 660.045 175.54C660.036 175.54 660.032 175.455 660.032 175.293C660.032 175.106 660.032 174.871 660.036 174.586C660.049 173.972 660.067 173.081 660.153 171.982C660.243 170.886 660.406 169.574 660.811 168.163C661.211 166.761 661.912 165.256 663.06 163.986C664.192 162.716 665.637 161.809 667.104 161.498C667.835 161.336 668.549 161.331 669.203 161.382C669.857 161.429 670.463 161.532 671.005 161.659C672.094 161.915 672.928 162.286 673.457 162.614C673.72 162.78 673.913 162.93 674.034 163.04C674.154 163.151 674.214 163.215 674.21 163.219Z" fill="#263238"/>
<path d="M668.691 158.557C668.691 158.54 668.829 158.518 669.083 158.493C669.337 158.463 669.707 158.454 670.163 158.48C670.618 158.501 671.16 158.578 671.75 158.714C672.335 158.859 672.971 159.072 673.604 159.366C674.232 159.669 674.8 160.023 675.281 160.385C675.759 160.756 676.159 161.122 676.464 161.463C676.77 161.8 676.998 162.09 677.131 162.303C677.269 162.516 677.342 162.635 677.329 162.644C677.294 162.669 676.98 162.205 676.348 161.57C676.034 161.25 675.63 160.901 675.157 160.551C674.675 160.206 674.12 159.865 673.505 159.571C672.885 159.281 672.27 159.072 671.698 158.919C671.122 158.774 670.597 158.685 670.15 158.646C669.255 158.552 668.691 158.599 668.691 158.557Z" fill="#263238"/>
<path d="M679.213 157.274C679.209 157.291 679.019 157.274 678.675 157.231C678.331 157.188 677.832 157.137 677.217 157.09C675.987 156.997 674.275 156.975 672.399 157.197C670.528 157.423 668.868 157.845 667.694 158.22C667.104 158.407 666.631 158.573 666.308 158.697C665.986 158.816 665.801 158.876 665.797 158.863C665.792 158.85 665.96 158.761 666.278 158.616C666.592 158.467 667.057 158.279 667.646 158.071C668.816 157.653 670.485 157.201 672.378 156.975C674.266 156.754 676 156.801 677.234 156.933C677.854 156.997 678.353 157.073 678.693 157.141C679.032 157.218 679.217 157.261 679.213 157.274Z" fill="#263238"/>
<path d="M712.373 134.494C712.369 134.499 712.33 134.452 712.253 134.354C712.171 134.243 712.063 134.102 711.934 133.932C711.65 133.54 711.255 132.998 710.764 132.325C709.758 130.919 708.36 128.962 706.708 126.657L706.889 126.631C706.261 128.455 705.568 130.471 704.841 132.589L704.794 132.721L704.678 132.645C704.6 132.598 704.518 132.542 704.437 132.491C703.473 131.886 702.621 131.157 701.903 130.369C701.185 129.576 700.587 128.732 700.092 127.888C699.103 126.196 698.505 124.53 698.101 123.119C697.696 121.704 697.485 120.528 697.348 119.723C697.279 119.335 697.227 119.028 697.184 118.794C697.163 118.687 697.141 118.61 697.128 118.555C697.107 118.508 697.098 118.478 697.103 118.478C697.15 118.457 697.275 118.904 697.434 119.71C697.602 120.511 697.834 121.679 698.255 123.081C698.677 124.479 699.284 126.128 700.273 127.79C700.768 128.621 701.357 129.448 702.067 130.228C702.781 131 703.615 131.716 704.557 132.308C704.639 132.359 704.721 132.41 704.794 132.457L704.63 132.517C705.366 130.399 706.063 128.387 706.695 126.567L706.76 126.375L706.876 126.542C708.497 128.864 709.874 130.838 710.863 132.257C711.336 132.943 711.711 133.497 711.986 133.898C712.106 134.077 712.201 134.221 712.278 134.337C712.343 134.439 712.377 134.49 712.373 134.494Z" fill="#263238"/>
<g opacity="0.3">
<path opacity="0.3" d="M725.859 154.18C725.377 158.949 726.439 163.858 728.852 168.009C731.261 172.165 734.797 175.864 739.198 177.854C739.34 173.622 739.133 168.636 739.275 164.404L725.859 154.18Z" fill="black"/>
</g>
<path d="M725.372 148.609C725.372 148.609 723.492 149.125 724.903 152.948C726.314 156.766 726.783 156.536 727.725 160.112C728.667 163.683 729.764 166.948 731.411 168.968C733.059 170.988 739.176 175.105 739.176 175.105L744.664 169.978C744.664 169.978 743.761 166.155 743.976 163.56C744.191 160.964 744.742 154.593 744.664 153.506C744.587 152.419 743.408 149.777 743.408 149.777V147.97L740.587 139.365C740.587 139.365 739.017 138.666 738.47 141.151L737.528 138.513C737.528 138.513 736.04 138.279 735.648 141.309C735.257 144.339 735.962 148.533 735.962 148.533L735.18 153.817L734.005 157.389L732.986 157.542C732.986 157.542 731.45 157.129 730.611 154.265C729.764 151.405 727.488 147.987 725.372 148.609Z" fill="#FFBE9D"/>
<path d="M742.823 162.119C742.819 162.119 742.811 162.051 742.798 161.923C742.789 161.774 742.776 161.586 742.759 161.352C742.729 160.832 742.69 160.111 742.643 159.212C742.557 157.358 742.441 154.776 742.303 151.763L742.329 151.826C742.075 151.528 741.628 151.439 741.219 151.541C740.802 151.639 740.432 151.895 740.2 152.278C739.722 153.041 739.692 154.038 739.546 155.002C739.249 157.179 738.965 159.251 738.707 161.143C738.578 162.085 738.44 162.984 738.251 163.815C738.07 164.646 737.817 165.405 737.571 166.082C737.33 166.76 737.115 167.374 736.982 167.928C736.849 168.482 736.793 168.968 736.806 169.368C736.823 170.169 737.059 170.579 737.021 170.587C737.012 170.591 736.969 170.489 736.887 170.289C736.823 170.084 736.733 169.777 736.715 169.372C736.689 168.968 736.733 168.465 736.857 167.902C736.982 167.34 737.188 166.717 737.421 166.035C737.657 165.354 737.898 164.608 738.07 163.781C738.247 162.958 738.376 162.063 738.5 161.122C738.754 159.229 739.03 157.158 739.322 154.98C739.391 154.494 739.442 154.017 739.528 153.535C739.615 153.058 739.748 152.581 740.015 152.172C740.264 151.754 740.703 151.447 741.167 151.341C741.628 151.226 742.174 151.328 742.488 151.703L742.509 151.733V151.767C742.613 154.78 742.703 157.363 742.768 159.221C742.789 160.12 742.811 160.84 742.823 161.364C742.828 161.599 742.828 161.786 742.828 161.936C742.832 162.055 742.828 162.119 742.823 162.119Z" fill="#EB996E"/>
<path d="M739.821 152.33C739.808 152.334 739.722 152.164 739.589 151.844C739.46 151.525 739.288 151.051 739.128 150.451C738.969 149.854 738.819 149.125 738.733 148.311C738.69 147.902 738.66 147.467 738.711 147.016C738.758 146.564 738.892 146.086 739.184 145.682C739.434 145.332 739.787 145.051 740.187 144.936L740.273 144.91L740.316 144.987C741.111 146.376 741.8 147.604 742.286 148.486C742.509 148.899 742.694 149.244 742.849 149.53C742.978 149.777 743.043 149.914 743.03 149.922C743.017 149.931 742.931 149.803 742.78 149.568C742.613 149.296 742.406 148.959 742.161 148.558C741.641 147.693 740.926 146.483 740.122 145.098L740.251 145.149C739.907 145.251 739.593 145.494 739.369 145.814C739.107 146.18 738.978 146.615 738.931 147.041C738.883 147.472 738.905 147.893 738.939 148.294C739.012 149.1 739.141 149.82 739.283 150.416C739.421 151.013 739.567 151.49 739.67 151.819C739.778 152.143 739.838 152.326 739.821 152.33Z" fill="#EB996E"/>
<path d="M738.509 153.033C738.492 153.033 738.474 152.858 738.457 152.539C738.444 152.172 738.423 151.721 738.401 151.188C738.363 150.046 738.328 148.469 738.302 146.726C738.289 144.983 738.221 143.401 738.371 142.255C738.444 141.684 738.561 141.228 738.664 140.925C738.767 140.618 738.853 140.465 738.866 140.469C738.905 140.482 738.625 141.143 738.526 142.276C738.419 143.406 738.509 144.983 738.522 146.726C738.548 148.469 738.556 150.046 738.556 151.188C738.552 151.721 738.543 152.172 738.539 152.543C738.535 152.854 738.526 153.029 738.509 153.033Z" fill="#EB996E"/>
<path d="M733.867 167.358C733.837 167.332 734.177 166.931 734.603 166.203C734.818 165.84 735.037 165.389 735.24 164.877C735.433 164.357 735.61 163.773 735.73 163.147C735.842 162.516 735.881 161.911 735.881 161.357C735.872 160.803 735.825 160.304 735.752 159.895C735.61 159.068 735.429 158.574 735.468 158.561C735.481 158.557 735.536 158.676 735.622 158.898C735.713 159.119 735.812 159.452 735.906 159.865C736.001 160.283 736.066 160.79 736.087 161.353C736.1 161.919 736.061 162.542 735.949 163.185C735.829 163.829 735.644 164.425 735.433 164.95C735.214 165.47 734.973 165.926 734.736 166.284C734.504 166.642 734.293 166.919 734.13 167.093C733.975 167.272 733.88 167.366 733.867 167.358Z" fill="#EB996E"/>
<path d="M743.503 164.685L748.265 166.322C748.265 166.322 752.812 163.99 755.947 166.322C759.083 168.653 761.806 174.794 760.946 177.279C760.946 177.279 758.782 179.925 757.135 180.313C755.487 180.701 749.087 179.167 746.424 178.608C743.753 178.05 739.167 175.097 739.167 175.097L743.503 164.685Z" fill="#FFBE9D"/>
<path d="M744.088 171.636C744.071 171.636 744.054 171.487 744.037 171.218C744.019 170.899 743.994 170.519 743.968 170.08C743.916 169.117 743.852 167.788 743.83 166.313C743.809 164.838 743.852 163.504 743.942 162.541C743.985 162.06 744.037 161.672 744.084 161.403C744.131 161.135 744.166 160.99 744.183 160.994C744.217 160.998 744.144 161.591 744.097 162.55C744.05 163.509 744.032 164.838 744.054 166.309C744.08 167.749 744.105 169.053 744.123 170.076C744.127 170.558 744.127 170.95 744.118 171.218C744.118 171.487 744.105 171.636 744.088 171.636Z" fill="#EB996E"/>
<path d="M759.793 166.134C759.759 166.168 759.268 165.495 758.21 164.719C757.165 163.944 755.47 163.117 753.465 163.006C751.457 162.899 749.68 163.534 748.557 164.191C747.417 164.847 746.858 165.461 746.828 165.427C746.82 165.418 746.953 165.261 747.22 165.005C747.491 164.749 747.908 164.408 748.476 164.059C749.598 163.355 751.414 162.674 753.478 162.789C755.543 162.904 757.272 163.777 758.309 164.596C758.834 165.005 759.217 165.393 759.453 165.674C759.69 165.959 759.806 166.13 759.793 166.134Z" fill="#263238"/>
<path d="M759.183 162.2C759.152 162.247 758.516 161.608 757.2 161.118C755.905 160.615 753.896 160.385 751.836 160.96C750.807 161.245 749.865 161.65 749.061 162.102C748.257 162.558 747.586 163.057 747.052 163.509C746.519 163.96 746.11 164.357 745.831 164.629C745.551 164.906 745.396 165.056 745.383 165.047C745.375 165.039 745.508 164.868 745.77 164.57C746.033 164.276 746.424 163.862 746.953 163.389C747.478 162.916 748.149 162.396 748.962 161.923C749.775 161.454 750.73 161.032 751.78 160.743C753.892 160.154 755.952 160.419 757.26 160.968C757.922 161.237 758.413 161.548 758.727 161.787C758.89 161.902 758.998 162.013 759.075 162.081C759.148 162.158 759.187 162.196 759.183 162.2Z" fill="#263238"/>
<path d="M759.221 158.791C759.208 158.833 758.378 158.582 756.993 158.399C756.3 158.301 755.47 158.245 754.549 158.245C753.629 158.258 752.618 158.335 751.568 158.509C750.523 158.697 749.547 158.97 748.674 159.268C747.809 159.579 747.048 159.912 746.432 160.24C745.198 160.883 744.501 161.399 744.475 161.365C744.467 161.352 744.634 161.22 744.953 160.986C745.108 160.866 745.305 160.73 745.542 160.585C745.779 160.44 746.045 160.261 746.355 160.103C746.966 159.758 747.732 159.409 748.6 159.081C749.478 158.769 750.467 158.488 751.525 158.296C752.588 158.117 753.612 158.045 754.545 158.045C755.479 158.058 756.317 158.13 757.01 158.249C757.358 158.292 757.668 158.373 757.943 158.428C758.219 158.484 758.451 158.548 758.636 158.603C759.019 158.71 759.225 158.778 759.221 158.791Z" fill="#263238"/>
<path d="M722.731 117.059C722.731 117.059 722.951 117.468 723.062 118.312C723.179 119.152 723.161 120.413 722.882 121.973C722.74 122.753 722.55 123.61 722.267 124.526C721.97 125.442 721.522 126.38 721.015 127.36C719.991 129.32 718.696 131.456 717.204 133.736L717.027 134.004V133.685C717.023 132.18 717.023 130.599 717.019 128.954L717.187 129.035C715.905 130.058 714.558 131.136 713.169 132.248L713.203 132.197C712.274 135.121 711.659 138.377 711.418 141.765C711.027 146.952 711.341 151.912 711.59 156.413C711.801 160.918 711.939 164.979 712.081 168.384C712.218 171.794 712.343 174.547 712.446 176.452C712.502 177.394 712.545 178.131 712.575 178.643C712.592 178.886 712.605 179.073 712.614 179.214C712.623 179.342 712.618 179.41 712.618 179.41C712.618 179.41 712.605 179.346 712.588 179.218C712.575 179.082 712.554 178.89 712.528 178.651C712.481 178.153 712.42 177.411 712.356 176.461C712.227 174.556 712.076 171.802 711.921 168.393C711.767 164.983 711.586 160.926 711.379 156.426C711.121 151.929 710.799 146.956 711.19 141.752C711.435 138.351 712.051 135.078 712.993 132.137L713.001 132.108L713.027 132.086C714.416 130.978 715.767 129.904 717.049 128.881L717.217 128.749V128.962C717.212 130.603 717.212 132.184 717.208 133.693L717.032 133.642C719.987 129.103 722.391 125.157 722.761 121.964C723.058 120.417 723.092 119.169 722.994 118.329C722.951 117.907 722.869 117.596 722.817 117.383C722.757 117.166 722.731 117.059 722.731 117.059Z" fill="#263238"/>
<path d="M715.014 172.033L714.86 172.028C714.236 172.045 713.681 172.608 713.681 173.226C713.681 173.844 714.232 174.411 714.851 174.432C715.475 174.453 716.064 173.925 716.103 173.311C716.15 172.693 715.634 172.092 715.014 172.033Z" fill="white"/>
<path d="M715.014 155.607L714.86 155.603C714.236 155.62 713.681 156.183 713.681 156.801C713.681 157.419 714.232 157.985 714.851 158.007C715.475 158.028 716.064 157.5 716.103 156.886C716.15 156.268 715.634 155.667 715.014 155.607Z" fill="white"/>
<path d="M714.855 140.913C715.479 140.934 716.068 140.405 716.107 139.792C716.15 139.178 715.634 138.577 715.014 138.517L714.86 138.513C714.236 138.53 713.681 139.093 713.681 139.711C713.681 140.324 714.232 140.891 714.855 140.913Z" fill="white"/>
<path d="M696.281 97.8127C694.771 96.1591 693.253 94.4842 692.152 92.5408C691.05 90.5974 690.397 88.3258 690.762 86.1267C690.973 84.8396 691.528 83.6165 691.614 82.3166C691.734 80.5267 690.977 78.6557 691.614 76.9808C692.616 74.3598 696.178 73.9549 698.337 72.1436C700.019 70.733 700.836 68.4443 702.69 67.2553C704.308 66.2197 706.385 66.241 708.291 66.5095C710.196 66.778 712.115 67.2553 714.025 66.9996C715.384 66.8163 716.666 66.2751 717.999 65.9469C719.333 65.6187 720.817 65.5335 722.004 66.2154C723.191 66.8973 723.858 68.5679 723.08 69.6888C725.291 68.6787 728.099 70.3877 728.706 72.7232C729.312 75.0587 728.099 77.586 726.224 79.1245C724.348 80.6673 721.927 81.3833 719.535 81.8308C712.76 83.0965 705.413 82.3806 699.576 78.7495" fill="#263238"/>
<path d="M720.099 120.375C719.767 117.835 719.496 115.717 719.479 115.453C719.479 115.453 728.048 113.543 727.575 104.96C727.347 100.813 726.172 92.3022 725.024 84.6181C723.789 76.3672 716.352 70.4433 707.951 70.9973L707.117 71.0527C698.144 72.1693 694.092 80.3435 695.468 89.1996L700.307 118.892C700.307 118.892 702.372 125.459 706.794 126.597L712.369 134.49L713.289 131.093L717.444 127.509C717.444 127.509 718.399 126.486 719.492 124.488C720.395 122.855 720.206 121.172 720.099 120.375Z" fill="#FFBE9D"/>
<path d="M719.483 115.329C719.483 115.329 714.042 116.134 707.981 112.899C707.981 112.899 711.065 118.896 719.651 117.549L719.483 115.329Z" fill="#EB996E"/>
<path d="M723.449 88.9525C723.307 89.123 722.322 88.4965 720.993 88.5902C719.664 88.6627 718.731 89.4043 718.576 89.2551C718.498 89.1869 718.636 88.8886 719.04 88.5561C719.44 88.2237 720.133 87.8785 720.963 87.8274C721.793 87.7762 722.512 88.0319 722.933 88.3175C723.363 88.5945 723.518 88.8758 723.449 88.9525Z" fill="#263238"/>
<path d="M710.39 90.0648C710.248 90.2353 709.263 89.6088 707.934 89.7025C706.605 89.775 705.671 90.5165 705.516 90.3674C705.439 90.2992 705.577 90.0009 705.981 89.6684C706.377 89.336 707.073 88.9908 707.899 88.9397C708.73 88.8885 709.448 89.1442 709.869 89.4298C710.3 89.7068 710.459 89.9881 710.39 90.0648Z" fill="#263238"/>
<path d="M715.874 99.5221C715.861 99.4497 716.679 99.2494 718.008 98.9937C718.343 98.9383 718.662 98.8488 718.705 98.6144C718.769 98.3672 718.602 98.0134 718.412 97.6299C718.038 96.8372 717.647 96.0061 717.234 95.1324C715.59 91.5738 714.377 88.6416 714.524 88.5777C714.67 88.5138 716.115 91.3437 717.758 94.9023C718.154 95.7802 718.533 96.6156 718.894 97.4168C719.049 97.7918 719.298 98.2095 719.161 98.7252C719.088 98.9809 718.851 99.1812 718.636 99.2536C718.421 99.3346 718.232 99.3517 718.064 99.373C716.722 99.5349 715.887 99.5946 715.874 99.5221Z" fill="#263238"/>
<path d="M710.381 84.8742C710.274 85.2407 708.936 85.1598 707.388 85.4496C705.835 85.7095 704.604 86.2465 704.376 85.9354C704.273 85.7863 704.471 85.4368 704.957 85.0532C705.439 84.6739 706.222 84.2904 707.151 84.1241C708.08 83.9622 708.949 84.0517 709.534 84.2435C710.119 84.4395 710.429 84.7038 710.381 84.8742Z" fill="#263238"/>
<path d="M722.701 85.1681C722.486 85.4835 721.548 85.2321 720.447 85.2917C719.341 85.313 718.425 85.6284 718.188 85.3301C718.085 85.1852 718.21 84.8741 718.601 84.5629C718.984 84.2561 719.642 83.9791 720.399 83.9492C721.156 83.9237 721.832 84.1496 722.236 84.4308C722.649 84.7164 722.795 85.0147 722.701 85.1681Z" fill="#263238"/>
<path d="M696.604 95.5069C696.453 95.4515 690.538 94.1559 691.123 100.012C691.708 105.863 698.109 103.958 698.105 103.788C698.096 103.617 696.604 95.5069 696.604 95.5069Z" fill="#FFBE9D"/>
<path d="M695.485 101.866C695.46 101.849 695.391 101.947 695.223 102.045C695.06 102.139 694.776 102.22 694.457 102.134C693.812 101.968 693.188 101.039 693.055 99.9864C692.986 99.4536 693.051 98.9379 693.197 98.499C693.335 98.0515 693.584 97.7276 693.894 97.6424C694.199 97.5401 694.44 97.7063 694.531 97.864C694.625 98.0217 694.599 98.141 694.634 98.1453C694.651 98.158 694.75 98.0344 694.681 97.7958C694.647 97.6807 694.561 97.5529 694.41 97.4506C694.255 97.3483 694.044 97.3142 693.825 97.3568C693.373 97.4335 693.003 97.8895 692.84 98.3711C692.651 98.857 692.569 99.4408 692.646 100.038C692.801 101.214 693.52 102.258 694.401 102.416C694.827 102.484 695.163 102.326 695.326 102.168C695.49 102.006 695.507 101.874 695.485 101.866Z" fill="#EB996E"/>
<path d="M724.59 76.623C724.185 78.9542 719.415 81.0851 715.462 80.9743C711.818 80.8678 710.016 79.0778 707.366 77.8035C705.689 76.998 705.689 76.998 703.417 77.3645C701.576 77.6629 700.626 79.8108 699.593 81.3494C701.559 85.5984 700.763 90.5379 699.933 95.1407C699.843 95.6478 699.727 96.1976 699.335 96.5386C698.673 97.1182 697.593 96.773 696.944 96.1806C695.898 95.2344 695.421 93.8238 695.081 92.4642C694.303 89.3616 694.001 86.1098 694.496 82.9476C694.991 79.7853 696.311 76.7168 698.492 74.3557C701.215 71.4065 705.198 69.706 709.229 69.5015C713.259 69.2969 717.307 70.5328 720.679 72.7234C722.241 73.7335 723.703 74.9907 724.59 76.623Z" fill="#263238"/>
<path d="M716.748 102.484C715.746 102.019 714.739 101.555 713.737 101.094C713.565 101.013 713.38 100.932 713.19 100.958C712.975 100.988 712.808 101.145 712.67 101.307C711.973 102.147 711.797 103.408 712.334 104.355C712.876 105.301 714.145 105.799 715.161 105.382C716.227 104.943 716.748 103.715 716.829 102.573L716.748 102.484Z" fill="#EB996E"/>
<path d="M715.255 105.595C715.264 105.62 715.117 105.706 714.816 105.77C714.519 105.825 714.055 105.851 713.522 105.676C712.992 105.51 712.395 105.101 712.025 104.444C711.65 103.805 711.513 102.906 711.84 102.092C711.995 101.687 712.24 101.329 712.537 101.047C712.687 100.907 712.846 100.788 713.027 100.681C713.122 100.63 713.238 100.579 713.375 100.57C713.509 100.562 713.629 100.596 713.724 100.638C713.922 100.724 714.046 100.817 714.193 100.903C714.335 100.988 714.468 101.073 714.601 101.154C714.859 101.316 715.105 101.465 715.332 101.61C716.227 102.173 716.761 102.543 716.73 102.599C716.7 102.65 716.107 102.373 715.173 101.883C714.937 101.755 714.683 101.619 714.412 101.474C714.274 101.397 714.132 101.32 713.99 101.244C713.848 101.167 713.689 101.069 713.565 101.022C713.427 100.975 713.367 100.979 713.233 101.052C713.1 101.133 712.958 101.244 712.838 101.363C712.588 101.606 712.386 101.908 712.253 102.254C711.977 102.94 712.076 103.686 712.382 104.252C712.683 104.823 713.169 105.199 713.625 105.386C714.085 105.578 714.507 105.603 714.79 105.603C715.083 105.591 715.242 105.565 715.255 105.595Z" fill="#263238"/>
<path d="M714.304 92.1446C714.27 92.1489 714.308 91.5991 714.068 90.6615C713.831 89.7452 713.212 88.3942 711.818 87.3458C711.125 86.8343 710.256 86.4039 709.254 86.2292C708.26 86.063 707.133 86.0928 706.067 86.4977C705.529 86.6852 705.009 86.9622 704.535 87.3159C704.054 87.6611 703.615 88.0916 703.253 88.5902C702.509 89.5747 702.088 90.8362 702.075 92.1361C702.088 93.4359 702.505 94.7017 703.253 95.6862C703.615 96.1848 704.054 96.6153 704.535 96.9647C705.013 97.3185 705.529 97.5998 706.067 97.783C707.133 98.1879 708.26 98.2177 709.254 98.0515C710.256 97.8768 711.125 97.4463 711.818 96.9349C713.212 95.8908 713.831 94.5398 714.068 93.6192C714.308 92.6859 714.27 92.1403 714.304 92.1446C714.308 92.1446 714.308 92.1787 714.308 92.2426C714.308 92.3236 714.304 92.4174 714.304 92.5324C714.304 92.6603 714.3 92.818 714.265 93.0055C714.24 93.193 714.218 93.4061 714.149 93.6448C714.05 94.1221 713.831 94.6889 713.483 95.2941C713.13 95.895 712.618 96.5258 711.912 97.0628C711.211 97.5955 710.321 98.0472 709.289 98.2348C708.265 98.4138 707.103 98.3882 705.998 97.9791C705.439 97.7915 704.901 97.5017 704.406 97.1395C703.907 96.7815 703.451 96.3383 703.077 95.8226C702.303 94.804 701.864 93.4956 701.851 92.1446C701.864 90.7936 702.303 89.4852 703.077 88.4666C703.451 87.951 703.907 87.5077 704.406 87.1497C704.901 86.7875 705.439 86.4977 705.998 86.3101C707.108 85.8967 708.265 85.8712 709.289 86.0544C710.321 86.242 711.211 86.698 711.912 87.2264C712.618 87.7634 713.13 88.3942 713.483 88.9951C713.831 89.6003 714.05 90.1671 714.149 90.6444C714.218 90.8788 714.24 91.0962 714.265 91.2837C714.295 91.4712 714.304 91.6289 714.304 91.7568C714.304 91.8718 714.308 91.9699 714.308 92.0466C714.308 92.1105 714.308 92.1446 714.304 92.1446Z" fill="#263238"/>
<path d="M729.033 91.5693C728.998 91.5735 729.037 91.0365 728.801 90.1245C728.568 89.2295 727.966 87.9126 726.607 86.8983C725.936 86.3996 725.088 85.9777 724.112 85.8115C723.144 85.6496 722.047 85.6794 721.006 86.0757C720.481 86.2547 719.978 86.5275 719.514 86.8727C719.045 87.2094 718.619 87.6313 718.266 88.1172C717.539 89.0761 717.131 90.3035 717.118 91.5735C717.131 92.8435 717.539 94.0709 718.262 95.0299C718.615 95.5157 719.04 95.9334 719.509 96.2743C719.974 96.6195 720.477 96.8923 721.002 97.0713C722.043 97.4634 723.135 97.4975 724.108 97.3355C725.084 97.165 725.931 96.7431 726.602 96.2487C727.962 95.2302 728.564 93.9175 728.792 93.0225C729.037 92.102 728.998 91.565 729.033 91.5693C729.041 91.5693 729.041 91.7014 729.037 91.9486C729.037 92.0721 729.033 92.2298 729.003 92.4088C728.977 92.5921 728.955 92.8009 728.891 93.0311C728.68 93.9431 728.091 95.3026 726.71 96.3638C726.026 96.8838 725.157 97.327 724.151 97.506C723.153 97.6807 722.021 97.6552 720.942 97.2545C720.4 97.0713 719.875 96.79 719.393 96.432C718.907 96.0825 718.464 95.6521 718.098 95.1492C717.341 94.1562 716.915 92.8819 716.907 91.565C716.92 90.2481 717.346 88.9738 718.103 87.9808C718.468 87.4779 718.911 87.0432 719.397 86.698C719.879 86.3442 720.404 86.063 720.946 85.8797C722.026 85.4791 723.157 85.4535 724.155 85.6282C725.161 85.8115 726.03 86.2547 726.714 86.7704C728.095 87.8316 728.684 89.1869 728.895 90.1032C728.96 90.3333 728.986 90.5422 729.007 90.7254C729.037 90.9044 729.046 91.0621 729.041 91.1857C729.041 91.4371 729.041 91.5693 729.033 91.5693Z" fill="#263238"/>
<path d="M717.014 90.2225C716.988 90.2481 716.846 90.1288 716.588 90.0052C716.33 89.8816 715.943 89.7623 715.504 89.7708C715.07 89.775 714.683 89.9114 714.429 90.0435C714.171 90.1756 714.038 90.2992 714.012 90.2779C713.99 90.2609 714.089 90.0904 714.347 89.9114C714.601 89.7324 715.014 89.5577 715.5 89.5492C715.982 89.5406 716.403 89.6983 716.666 89.8688C716.924 90.0393 717.031 90.2055 717.014 90.2225Z" fill="#263238"/>
<path d="M702.338 91.2751C702.376 91.3262 701.168 92.2809 699.641 93.406C698.114 94.5354 696.849 95.4091 696.81 95.3622C696.772 95.311 697.98 94.3564 699.507 93.2313C701.034 92.1019 702.303 91.2239 702.338 91.2751Z" fill="#263238"/>
<g opacity="0.3">
<path opacity="0.3" d="M697.249 119.011C696.651 124.795 698.871 130.902 703.551 134.405C703.916 134.682 704.381 134.951 704.811 134.797C705.112 134.691 705.306 134.405 705.465 134.128C706.798 131.839 707.246 129.312 706.863 126.695C706.123 128.63 705.486 130.527 704.738 132.551C700.656 130.101 698.114 124.884 697.249 119.011Z" fill="black"/>
</g>
<path opacity="0.3" d="M713.1 132.163L716.537 130.918L717.105 136.676C717.105 136.676 720.813 129.981 722.348 126.925C723.884 123.869 723.093 118.478 723.093 118.478C723.093 118.478 723.643 123.175 719.927 129.162L717.122 133.68V128.949L713.1 132.163Z" fill="black"/>
<g opacity="0.3">
<path opacity="0.3" d="M673.13 161.425C671.599 160.709 669.835 160.611 668.153 160.807C666.377 161.012 664.592 161.553 663.198 162.665C661.804 163.778 660.862 165.534 661.034 167.298L661.206 167.324C662.407 164.11 664.79 161.77 667.865 161.485C670.941 161.204 673.939 162.559 676.051 164.792C675.845 163.121 674.666 162.141 673.13 161.425Z" fill="black"/>
</g>
<g opacity="0.3">
<path opacity="0.3" d="M760.017 164.711C758.864 163.479 757.247 162.733 755.578 162.443C752.648 161.936 749.504 162.84 747.297 164.817L747.951 164.289C749.616 163.321 751.534 162.75 753.466 162.806C755.393 162.861 757.324 163.569 758.722 164.886C760.008 166.096 760.778 167.737 761.514 169.335C761.806 167.686 761.17 165.942 760.017 164.711Z" fill="black"/>
</g>
<path d="M737.868 137.972C737.855 137.968 737.911 137.801 738.023 137.507C738.156 137.171 738.32 136.757 738.514 136.267C738.931 135.223 739.499 133.778 740.105 132.176C740.707 130.569 741.228 129.107 741.602 128.046C741.778 127.552 741.929 127.134 742.049 126.793C742.157 126.499 742.226 126.337 742.239 126.341C742.252 126.346 742.213 126.516 742.131 126.819C742.049 127.121 741.92 127.56 741.753 128.097C741.417 129.171 740.918 130.646 740.316 132.253C739.714 133.859 739.116 135.295 738.664 136.327C738.436 136.843 738.247 137.256 738.109 137.541C737.967 137.823 737.881 137.98 737.868 137.972Z" fill="#263238"/>
<path d="M683.639 138.389C683.579 138.402 683.11 136.374 682.594 133.859C682.078 131.345 681.708 129.299 681.768 129.286C681.828 129.273 682.297 131.302 682.813 133.817C683.33 136.331 683.7 138.377 683.639 138.389Z" fill="#263238"/>
<path d="M682.826 163.743C682.964 163.811 681.252 150.463 681.252 150.463C681.252 150.463 682.331 140.333 682.938 139.864L682.955 136.288C682.955 136.288 684.628 135.283 685.076 136.906C685.076 136.906 686.56 135.632 686.818 138.667C687.076 141.705 687.132 144.808 687.132 144.808L690.431 152.982L690.973 153.255C690.973 153.255 691.683 146.849 692.096 145.907C692.509 144.966 692.793 142.673 694.354 143.018C695.92 143.363 696.049 144.646 695.769 146.734C695.49 148.822 695.137 150.979 695.27 152.33C695.399 153.681 696.019 156.652 695.83 159.008C695.64 161.369 694.337 163.858 692.965 165.606C691.597 167.353 688.982 170.967 687.558 172.058C687.059 172.442 682.826 163.743 682.826 163.743Z" fill="#FFBE9D"/>
<path d="M684.495 152.88C684.478 152.88 684.482 152.675 684.504 152.309C684.534 151.9 684.568 151.38 684.611 150.758C684.71 149.449 684.865 147.642 685.05 145.648C685.145 144.655 685.235 143.704 685.317 142.839C685.36 142.409 685.386 142.004 685.33 141.633C685.278 141.262 685.132 140.943 684.917 140.712C684.482 140.244 683.919 140.124 683.57 140.129C683.205 140.124 683.015 140.222 683.007 140.201C683.003 140.193 683.05 140.171 683.14 140.133C683.235 140.099 683.377 140.056 683.566 140.043C683.936 140.018 684.538 140.112 685.033 140.61C685.278 140.857 685.45 141.215 685.51 141.607C685.579 142.004 685.553 142.426 685.519 142.86C685.442 143.73 685.355 144.676 685.269 145.673C685.084 147.668 684.904 149.471 684.766 150.775C684.693 151.393 684.633 151.913 684.586 152.317C684.542 152.68 684.508 152.88 684.495 152.88Z" fill="#EB996E"/>
<path d="M686.267 147.42C686.302 147.446 685.932 147.765 685.682 148.473C685.416 149.168 685.321 150.216 685.132 151.354C684.955 152.496 684.779 153.527 684.646 154.269C684.508 155.015 684.409 155.471 684.379 155.467C684.349 155.462 684.392 154.993 684.491 154.243C684.586 153.493 684.736 152.458 684.912 151.316C685.097 150.182 685.218 149.129 685.536 148.409C685.687 148.051 685.867 147.791 686.014 147.629C686.156 147.476 686.259 147.412 686.267 147.42Z" fill="#EB996E"/>
<path d="M685.054 136.732C685.072 136.728 685.11 136.877 685.17 137.154C685.231 137.427 685.304 137.823 685.386 138.317C685.549 139.302 685.73 140.67 685.846 142.191C685.958 143.713 685.983 145.094 685.966 146.091C685.958 146.59 685.945 146.995 685.923 147.272C685.906 147.549 685.889 147.702 685.872 147.702C685.837 147.702 685.833 147.084 685.807 146.091C685.781 145.094 685.734 143.721 685.622 142.208C685.51 140.696 685.355 139.327 685.231 138.339C685.106 137.346 685.024 136.736 685.054 136.732Z" fill="#EB996E"/>
<path d="M694.573 149.245C694.608 149.296 694.092 149.53 693.464 149.338C692.831 149.151 692.539 148.669 692.595 148.648C692.646 148.605 692.973 148.968 693.528 149.13C694.079 149.3 694.556 149.181 694.573 149.245Z" fill="#EB996E"/>
<path d="M683.011 162.081L674.292 165.712H669.096C669.096 165.712 663.96 167.302 663.168 172.071C662.377 176.844 662.265 179.299 664.523 179.887C666.782 180.475 673.161 180.543 676.322 179.503C679.484 178.464 687.769 171.841 687.769 171.841L688.569 167.05L683.011 162.081Z" fill="#FFBE9D"/>
<path d="M685.055 167.357C685.042 167.366 684.956 167.289 684.805 167.132C684.65 166.982 684.461 166.735 684.237 166.42C683.807 165.781 683.334 164.813 683.02 163.688C682.693 162.563 682.555 161.51 682.482 160.752C682.418 159.993 682.418 159.52 682.448 159.516C682.482 159.511 682.534 159.98 682.637 160.73C682.749 161.48 682.912 162.516 683.231 163.624C683.54 164.736 683.979 165.687 684.366 166.335C684.766 166.978 685.085 167.328 685.055 167.357Z" fill="#EB996E"/>
<path d="M688.853 168.871C688.805 168.854 689.197 168.197 689.347 167.017C689.42 166.433 689.412 165.721 689.244 164.958C689.076 164.195 688.711 163.411 688.177 162.678C687.648 161.941 687.05 161.302 686.551 160.684C686.044 160.066 685.639 159.465 685.373 158.919C685.106 158.374 684.981 157.892 684.934 157.556C684.891 157.219 684.908 157.031 684.921 157.031C684.964 157.023 684.951 157.794 685.515 158.847C685.79 159.371 686.203 159.951 686.71 160.552C687.218 161.157 687.82 161.796 688.362 162.546C688.908 163.292 689.291 164.119 689.45 164.907C689.614 165.696 689.601 166.433 689.506 167.03C689.412 167.631 689.244 168.095 689.106 168.402C689.042 168.555 688.977 168.67 688.93 168.747C688.883 168.837 688.857 168.875 688.853 168.871Z" fill="#EB996E"/>
<path d="M675.41 148.072C675.354 148.102 674.404 146.384 673.285 144.241C672.167 142.097 671.306 140.337 671.358 140.307C671.414 140.277 672.365 141.995 673.483 144.138C674.601 146.282 675.466 148.042 675.41 148.072Z" fill="white"/>
<path d="M689.51 132.521C689.454 132.496 690.044 131.068 690.822 129.329C691.605 127.59 692.285 126.201 692.341 126.226C692.397 126.252 691.807 127.68 691.029 129.419C690.246 131.157 689.566 132.547 689.51 132.521Z" fill="white"/>
<path d="M703.319 142.613C703.271 142.651 702.385 141.671 701.344 140.422C700.299 139.173 699.494 138.129 699.542 138.091C699.589 138.053 700.475 139.033 701.516 140.282C702.557 141.53 703.366 142.574 703.319 142.613Z" fill="white"/>
<path d="M700.14 156.494C700.088 156.46 700.755 155.462 701.628 154.269C702.501 153.076 703.25 152.138 703.297 152.176C703.348 152.211 702.682 153.208 701.809 154.401C700.94 155.594 700.191 156.532 700.14 156.494Z" fill="white"/>
<path d="M695.864 176.103C695.838 176.116 695.64 175.792 695.361 175.246C695.077 174.701 694.711 173.938 694.345 173.081C693.975 172.22 693.679 171.432 693.476 170.852C693.279 170.273 693.175 169.906 693.205 169.898C693.236 169.889 693.39 170.234 693.627 170.797C693.898 171.436 694.208 172.178 694.552 172.996C694.905 173.81 695.227 174.543 695.507 175.182C695.748 175.736 695.894 176.086 695.864 176.103Z" fill="white"/>
<path d="M708.012 167.766C707.999 167.826 706.829 167.651 705.401 167.379C703.968 167.106 702.82 166.833 702.833 166.773C702.846 166.714 704.016 166.888 705.444 167.161C706.876 167.434 708.025 167.707 708.012 167.766Z" fill="white"/>
<path d="M717.436 149.445C717.389 149.403 718.507 148.141 719.927 146.62C721.346 145.102 722.538 143.905 722.581 143.947C722.628 143.99 721.51 145.252 720.09 146.773C718.666 148.29 717.479 149.488 717.436 149.445Z" fill="white"/>
<path d="M726.912 173.878C726.865 173.916 725.476 172.322 723.807 170.315C722.138 168.308 720.826 166.65 720.873 166.612C720.92 166.573 722.31 168.167 723.979 170.174C725.648 172.182 726.96 173.84 726.912 173.878Z" fill="white"/>
<path d="M668.076 163.467C668.106 163.526 666.837 164.166 665.452 165.218C664.063 166.262 663.104 167.311 663.052 167.264C663.03 167.247 663.241 166.961 663.637 166.539C664.028 166.122 664.613 165.576 665.315 165.043C666.016 164.515 666.704 164.102 667.216 163.833C667.728 163.569 668.063 163.441 668.076 163.467Z" fill="white"/>
<path d="M671.621 154.048C671.672 154.082 671.221 154.845 670.61 155.752C669.999 156.66 669.466 157.368 669.414 157.333C669.363 157.299 669.814 156.536 670.425 155.629C671.032 154.721 671.569 154.013 671.621 154.048Z" fill="white"/>
<path d="M679.604 163.295C679.557 163.325 679.105 162.579 678.873 161.544C678.632 160.512 678.714 159.647 678.77 159.651C678.839 159.651 678.86 160.491 679.092 161.492C679.316 162.498 679.664 163.265 679.604 163.295Z" fill="white"/>
<path d="M680.787 133.923C680.796 133.983 680.056 134.141 679.131 134.269C678.206 134.401 677.449 134.456 677.441 134.396C677.432 134.337 678.172 134.179 679.097 134.051C680.022 133.919 680.779 133.864 680.787 133.923Z" fill="white"/>
<path d="M686.783 123.384C686.814 123.439 686.164 123.853 685.334 124.309C684.504 124.765 683.802 125.093 683.772 125.037C683.742 124.982 684.392 124.569 685.222 124.112C686.056 123.656 686.753 123.333 686.783 123.384Z" fill="white"/>
<path d="M703.65 127.837C703.603 127.875 702.858 126.989 701.99 125.859C701.121 124.73 700.458 123.788 700.51 123.75C700.557 123.711 701.301 124.598 702.17 125.727C703.035 126.852 703.702 127.798 703.65 127.837Z" fill="white"/>
<path d="M725.059 138.433C725.016 138.471 724.233 137.674 723.51 136.515C722.779 135.355 722.405 134.311 722.456 134.29C722.516 134.264 722.981 135.257 723.699 136.4C724.418 137.542 725.11 138.39 725.059 138.433Z" fill="white"/>
<path d="M733.231 141.1C733.287 141.126 732.891 142.114 732.345 143.303C731.799 144.497 731.313 145.443 731.252 145.417C731.197 145.392 731.592 144.403 732.139 143.214C732.685 142.021 733.175 141.075 733.231 141.1Z" fill="white"/>
<path d="M734.375 130.049C734.328 130.088 733.356 129.01 732.203 127.637C731.05 126.265 730.156 125.118 730.203 125.08C730.25 125.042 731.222 126.12 732.375 127.492C733.524 128.869 734.423 130.011 734.375 130.049Z" fill="white"/>
<path d="M721.893 121.074C721.832 121.078 721.742 120.153 721.699 119.007C721.652 117.865 721.669 116.935 721.729 116.931C721.789 116.927 721.88 117.852 721.923 118.998C721.97 120.145 721.957 121.074 721.893 121.074Z" fill="white"/>
<path d="M732.07 120.516C732.079 120.575 730.887 120.784 729.416 120.98C727.941 121.176 726.74 121.283 726.732 121.223C726.723 121.163 727.91 120.955 729.386 120.758C730.857 120.562 732.061 120.456 732.07 120.516Z" fill="white"/>
<path d="M748.097 132.18C748.041 132.206 747.327 130.855 746.497 129.163C745.671 127.471 745.043 126.073 745.099 126.047C745.155 126.022 745.869 127.373 746.699 129.065C747.525 130.757 748.153 132.154 748.097 132.18Z" fill="white"/>
<path d="M745.396 142.259C745.336 142.246 745.503 141.16 745.77 139.834C746.037 138.504 746.303 137.439 746.364 137.452C746.424 137.465 746.256 138.551 745.989 139.877C745.723 141.202 745.46 142.272 745.396 142.259Z" fill="white"/>
<path d="M752.833 150.204C752.773 150.225 752.205 148.759 751.556 146.931C750.911 145.102 750.433 143.602 750.493 143.581C750.554 143.559 751.121 145.026 751.771 146.854C752.416 148.686 752.889 150.182 752.833 150.204Z" fill="white"/>
<path d="M751.796 154.853C751.783 154.908 750.755 154.695 749.624 154.081C748.489 153.476 747.744 152.739 747.787 152.701C747.83 152.649 748.622 153.297 749.732 153.89C750.833 154.482 751.818 154.789 751.796 154.853Z" fill="white"/>
<path d="M761.32 165.448C761.264 165.474 760.92 164.826 760.55 164.003C760.18 163.181 759.926 162.495 759.982 162.469C760.038 162.443 760.382 163.091 760.752 163.914C761.122 164.736 761.376 165.422 761.32 165.448Z" fill="white"/>
<path d="M705.073 180.228C705.013 180.236 704.863 179.388 704.738 178.34C704.613 177.291 704.566 176.435 704.626 176.426C704.686 176.418 704.837 177.266 704.961 178.314C705.086 179.363 705.134 180.219 705.073 180.228Z" fill="white"/>
<path d="M734.294 179.495C734.234 179.482 734.358 178.656 734.573 177.65C734.788 176.644 735.012 175.838 735.072 175.851C735.133 175.864 735.008 176.691 734.793 177.697C734.578 178.702 734.354 179.508 734.294 179.495Z" fill="white"/>
<path d="M739.895 94.9862L743.671 88.3889C741.998 85.6997 741.034 82.5374 741.034 79.1492C741.034 69.4024 749.009 61.501 758.847 61.501C768.685 61.501 776.66 69.4024 776.66 79.1492C776.66 88.8961 768.685 96.7975 758.847 96.7975C754.739 96.7975 750.958 95.4167 747.947 93.1025L747.951 93.111L739.895 94.9862Z" fill="#FAFAFA"/>
<path d="M739.895 94.9864C740.277 94.9011 742.828 94.3215 747.964 93.1581L748.046 93.141L747.994 93.0728L747.99 93.0643L747.913 93.141C748.928 93.9209 750.145 94.6881 751.577 95.3316C753.01 95.9623 754.653 96.4738 756.464 96.7124C757.367 96.8275 758.314 96.9 759.286 96.8531C759.772 96.8275 760.267 96.8147 760.766 96.7721C761.26 96.6996 761.763 96.6229 762.271 96.5462C764.288 96.1499 766.349 95.3913 768.276 94.2107C770.199 93.0302 771.98 91.432 773.408 89.4673C774.831 87.5026 775.911 85.1756 776.419 82.6484C776.918 80.1211 776.879 77.4148 776.208 74.7938C775.533 72.1813 774.272 69.6327 772.388 67.5359L771.661 66.7432C771.42 66.4747 771.136 66.2573 770.878 66.0101C770.607 65.78 770.362 65.5158 770.07 65.3112L769.214 64.6762C768.938 64.4546 768.633 64.2756 768.328 64.0966C768.026 63.9133 767.725 63.7343 767.424 63.5511C767.106 63.3976 766.792 63.2485 766.478 63.095C766.16 62.9501 765.854 62.7797 765.523 62.6731C762.933 61.6545 760.176 61.2667 757.535 61.4585C754.894 61.646 752.369 62.3961 750.205 63.6065C748.033 64.804 746.201 66.4065 744.785 68.1922C743.366 69.9822 742.368 71.9511 741.748 73.9159C741.133 75.8891 740.966 77.8453 740.974 79.6565C741.026 81.4721 741.361 83.147 741.847 84.6131C742.333 86.0834 742.974 87.3492 743.633 88.4104V88.3592C741.245 92.5955 740.079 94.6625 739.895 94.9864C740.084 94.6625 741.275 92.6125 743.719 88.4146L743.736 88.3891L743.719 88.3635C743.069 87.3023 742.441 86.0408 741.964 84.579C741.49 83.1172 741.163 81.4593 741.12 79.6565C741.12 77.8581 741.293 75.9232 741.908 73.9713C742.527 72.0279 743.521 70.0802 744.927 68.3115C746.33 66.5471 748.145 64.966 750.296 63.7855C752.438 62.5921 754.937 61.8548 757.544 61.6716C760.15 61.4883 762.878 61.8719 765.433 62.8777C765.76 62.98 766.061 63.1504 766.375 63.2954C766.684 63.4445 766.998 63.5937 767.308 63.7471C767.605 63.9261 767.902 64.1051 768.203 64.2841C768.504 64.4631 768.805 64.6378 769.076 64.8594L769.919 65.4859C770.207 65.6862 770.448 65.9462 770.715 66.1764C770.969 66.4193 771.253 66.6366 771.489 66.9009L772.208 67.685C774.07 69.7563 775.313 72.275 775.98 74.8535C776.642 77.4404 776.685 80.1168 776.195 82.6143C775.696 85.1117 774.634 87.4174 773.227 89.3565C771.82 91.3042 770.061 92.8896 768.16 94.0573C766.259 95.2336 764.22 95.9879 762.224 96.3843C761.72 96.461 761.221 96.5377 760.735 96.6101C760.241 96.6528 759.75 96.6655 759.273 96.6954C758.309 96.7465 757.372 96.6741 756.477 96.5633C754.679 96.3331 753.049 95.8302 751.625 95.2123C750.201 94.5815 748.988 93.8272 747.973 93.06L747.642 92.8086L747.895 93.1367L747.9 93.1453L747.93 93.06C742.82 94.2832 740.277 94.8969 739.895 94.9864Z" fill="#263238"/>
<path d="M763.656 78.4121C763.656 79.3625 764.435 80.1381 765.398 80.1381C766.362 80.1381 767.14 79.3667 767.14 78.4121C767.14 77.4617 766.362 76.686 765.398 76.686C764.435 76.686 763.656 77.4617 763.656 78.4121Z" fill="#263238"/>
<path d="M756.692 78.4121C756.692 79.3625 757.47 80.1381 758.434 80.1381C759.397 80.1381 760.176 79.3667 760.176 78.4121C760.176 77.4617 759.397 76.686 758.434 76.686C757.47 76.686 756.692 77.4617 756.692 78.4121Z" fill="#263238"/>
<path d="M749.745 77.5516C749.263 78.3784 749.551 79.4311 750.381 79.9084C751.216 80.3857 752.278 80.1002 752.76 79.2776C753.242 78.4509 752.954 77.3982 752.124 76.9209C751.289 76.4435 750.222 76.7248 749.745 77.5516Z" fill="#263238"/>
</g>
<defs>
<clipPath id="clip0_44_3282">
<rect width="311" height="153" fill="white" transform="translate(554 59)"/>
</clipPath>
</defs>
</svg>
