<svg width="177" height="73" viewBox="0 0 177 73" fill="none" xmlns="http://www.w3.org/2000/svg">
<path d="M10.5383 72.7765C10.0183 72.7765 9.59677 72.3547 9.59677 71.8344C9.59677 71.3141 10.0183 70.8923 10.5383 70.8923C11.0583 70.8923 11.4798 71.3141 11.4798 71.8344C11.4798 72.3547 11.0583 72.7765 10.5383 72.7765Z" fill="#2D2442"/>
<path d="M7.55651 72.7765C7.03652 72.7765 6.615 72.3547 6.615 71.8344C6.615 71.3141 7.03652 70.8923 7.55651 70.8923C8.07649 70.8923 8.49802 71.3141 8.49802 71.8344C8.49802 72.3547 8.07649 72.7765 7.55651 72.7765Z" fill="#2D2442"/>
<path d="M4.57817 72.7765C4.05819 72.7765 3.63669 72.3547 3.63669 71.8344C3.63669 71.3141 4.05819 70.8923 4.57817 70.8923C5.09814 70.8923 5.51968 71.3141 5.51968 71.8344C5.51968 72.3547 5.09814 72.7765 4.57817 72.7765Z" fill="#2D2442"/>
<path d="M6.90166 1.88421C6.38168 1.88421 5.96017 1.46242 5.96017 0.942105C5.96017 0.421795 6.38168 0 6.90166 0C7.42164 0 7.84318 0.421795 7.84318 0.942105C7.84318 1.46242 7.42164 1.88421 6.90166 1.88421Z" fill="#2D2442"/>
<path d="M3.91984 1.88421C3.39986 1.88421 2.97836 1.46242 2.97836 0.942105C2.97836 0.421795 3.39986 0 3.91984 0C4.43982 0 4.86135 0.421795 4.86135 0.942105C4.86135 1.46242 4.43982 1.88421 3.91984 1.88421Z" fill="#2D2442"/>
<path d="M0.94149 1.88421C0.42151 1.88421 0 1.46242 0 0.942105C0 0.421795 0.42151 0 0.94149 0C1.46147 0 1.883 0.421795 1.883 0.942105C1.883 1.46242 1.46147 1.88421 0.94149 1.88421Z" fill="#2D2442"/>
<path d="M176.058 38.0035C175.539 38.0035 175.117 37.5817 175.117 37.0614C175.117 36.5411 175.539 36.1193 176.058 36.1193C176.578 36.1193 177 36.5411 177 37.0614C177 37.5817 176.578 38.0035 176.058 38.0035Z" fill="#2D2442"/>
<path d="M173.08 38.0035C172.56 38.0035 172.139 37.5817 172.139 37.0614C172.139 36.5411 172.56 36.1193 173.08 36.1193C173.6 36.1193 174.022 36.5411 174.022 37.0614C174.022 37.5817 173.6 38.0035 173.08 38.0035Z" fill="#2D2442"/>
<path d="M170.098 38.0035C169.578 38.0035 169.157 37.5817 169.157 37.0614C169.157 36.5411 169.578 36.1193 170.098 36.1193C170.618 36.1193 171.04 36.5411 171.04 37.0614C171.04 37.5817 170.618 38.0035 170.098 38.0035Z" fill="#2D2442"/>
</svg>
