<svg width="24" height="24" viewBox="0 0 24 24" fill="none" xmlns="http://www.w3.org/2000/svg">
<path d="M15.71 8.28983C15.617 8.19611 15.5064 8.12171 15.3846 8.07094C15.2627 8.02017 15.132 7.99404 15 7.99404C14.868 7.99404 14.7373 8.02017 14.6154 8.07094C14.4936 8.12171 14.383 8.19611 14.29 8.28983L12 10.5898L9.70999 8.28983C9.52168 8.10153 9.26629 7.99574 8.99999 7.99574C8.73369 7.99574 8.47829 8.10153 8.28999 8.28983C8.10168 8.47814 7.9959 8.73353 7.9959 8.99984C7.9959 9.26614 8.10168 9.52153 8.28999 9.70984L10.59 11.9998L8.28999 14.2898C8.19626 14.3828 8.12187 14.4934 8.0711 14.6153C8.02033 14.7371 7.99419 14.8678 7.99419 14.9998C7.99419 15.1318 8.02033 15.2626 8.0711 15.3844C8.12187 15.5063 8.19626 15.6169 8.28999 15.7098C8.38295 15.8036 8.49355 15.878 8.61541 15.9287C8.73727 15.9795 8.86798 16.0056 8.99999 16.0056C9.132 16.0056 9.26271 15.9795 9.38456 15.9287C9.50642 15.878 9.61702 15.8036 9.70999 15.7098L12 13.4098L14.29 15.7098C14.383 15.8036 14.4936 15.878 14.6154 15.9287C14.7373 15.9795 14.868 16.0056 15 16.0056C15.132 16.0056 15.2627 15.9795 15.3846 15.9287C15.5064 15.878 15.617 15.8036 15.71 15.7098C15.8037 15.6169 15.8781 15.5063 15.9289 15.3844C15.9796 15.2626 16.0058 15.1318 16.0058 14.9998C16.0058 14.8678 15.9796 14.7371 15.9289 14.6153C15.8781 14.4934 15.8037 14.3828 15.71 14.2898L13.41 11.9998L15.71 9.70984C15.8037 9.61687 15.8781 9.50627 15.9289 9.38441C15.9796 9.26255 16.0058 9.13185 16.0058 8.99984C16.0058 8.86782 15.9796 8.73712 15.9289 8.61526C15.8781 8.4934 15.8037 8.3828 15.71 8.28983ZM19.07 4.92984C18.1475 3.97473 17.0441 3.21291 15.824 2.68882C14.604 2.16473 13.2918 1.88887 11.964 1.87733C10.6362 1.86579 9.31941 2.11881 8.09045 2.62162C6.86148 3.12443 5.74497 3.86696 4.80604 4.80589C3.86711 5.74481 3.12458 6.86133 2.62177 8.09029C2.11896 9.31926 1.86595 10.6361 1.87748 11.9638C1.88902 13.2916 2.16488 14.6038 2.68897 15.8239C3.21306 17.0439 3.97489 18.1474 4.92999 19.0698C5.85246 20.0249 6.9559 20.7868 8.17594 21.3109C9.39598 21.8349 10.7082 22.1108 12.036 22.1223C13.3638 22.1339 14.6806 21.8809 15.9095 21.3781C17.1385 20.8752 18.255 20.1327 19.1939 19.1938C20.1329 18.2549 20.8754 17.1383 21.3782 15.9094C21.881 14.6804 22.134 13.3636 22.1225 12.0358C22.111 10.708 21.8351 9.39583 21.311 8.17579C20.7869 6.95575 20.0251 5.8523 19.07 4.92984ZM17.66 17.6598C16.352 18.9692 14.6305 19.7847 12.7888 19.9671C10.947 20.1496 9.09899 19.6879 7.55951 18.6606C6.02003 17.6333 4.88435 16.104 4.34596 14.3333C3.80758 12.5626 3.89979 10.66 4.6069 8.94962C5.31401 7.23926 6.59226 5.82698 8.22388 4.9534C9.8555 4.07981 11.7395 3.79897 13.555 4.15871C15.3705 4.51845 17.005 5.49653 18.1802 6.9263C19.3554 8.35607 19.9985 10.1491 20 11.9998C20.0036 13.0511 19.7986 14.0927 19.3969 15.0642C18.9953 16.0358 18.4049 16.918 17.66 17.6598Z" fill="#FF6652"/>
</svg>
