<svg width="30" height="30" viewBox="0 0 30 30" fill="none" xmlns="http://www.w3.org/2000/svg">
<path d="M20.7136 6.94724L12.4629 18.9029L11.2937 28.4675L23.5116 29.9989L25.5466 13.0978L20.7136 6.94724Z" fill="#9C4DF4"/>
<path d="M29.2286 0.750453C28.7659 0.28774 28.1289 0.0312761 27.477 0.00268251C26.7674 -0.0284306 26.0401 0.210514 25.5001 0.750453L19.4013 6.86949L20.0057 7.47394L20.6441 8.11232L22.4552 6.28045C24.1736 7.41658 26.4955 7.21214 27.9858 5.72182L29.2286 4.47899C30.2569 3.45068 30.2569 1.77871 29.2286 0.750453ZM27.9858 3.23611L26.743 4.47893C25.9319 5.29004 24.7217 5.46166 23.7415 4.99391L26.743 1.99328C27.0863 1.64998 27.6425 1.64998 27.9858 1.99328C28.3283 2.33576 28.3283 2.89363 27.9858 3.23611Z" fill="#516373"/>
<path d="M22.4554 6.28015C24.1738 7.41628 26.4957 7.21185 27.986 5.72152L29.2288 4.47869C30.2571 3.45043 30.2571 1.77847 29.2288 0.750212C28.7661 0.287499 28.1291 0.031035 27.4772 0.0024414L20.0059 7.4737L20.6443 8.11208L22.4554 6.28015ZM26.7432 1.99304C27.0865 1.64974 27.6427 1.64974 27.986 1.99304C28.3285 2.33552 28.3285 2.89339 27.986 3.23587L26.7432 4.47869C25.9321 5.2898 24.7219 5.46142 23.7417 4.99367L26.7432 1.99304Z" fill="#3E4D59"/>
<path d="M20.8584 6.62009H12.201L0 18.7787L4.35033 23.129L8.70061 27.4794L20.8593 15.3122V6.62009H20.8584Z" fill="#FF6652"/>
<path d="M20.8592 15.3122V6.62009L4.3502 23.129L8.70048 27.4794L20.8592 15.3122Z" fill="#E64A36"/>
<path d="M16.2935 12.4625L15.6556 11.8246L15.0506 11.2197L13.6821 12.5882C12.7044 12.1278 11.5093 12.2768 10.7008 13.0839C9.67815 14.1065 9.67299 15.7661 10.6844 16.7957C11.0692 17.1876 11.0226 17.7342 10.7008 18.056C10.3609 18.3959 9.79329 18.409 9.44196 18.0381C9.11636 17.6944 9.12116 17.15 9.45796 16.8132L8.21343 15.5704C7.40771 16.3781 7.25859 17.573 7.71914 18.5511L6.35004 19.9202L6.95496 20.5251L7.59287 21.1631L8.96132 19.7946C10.1014 20.3332 11.2287 20.0138 11.9436 19.2988C12.8895 18.3529 13.0584 16.7486 11.9277 15.5525C11.6021 15.208 11.6069 14.6644 11.9436 14.3276C12.2796 13.9899 12.8261 13.9859 13.1691 14.3111C13.532 14.6553 13.5317 15.2243 13.1864 15.5704L14.4293 16.8133C15.2371 16.0054 15.3867 14.8098 14.9251 13.8308L16.2935 12.4625Z" fill="white"/>
<path d="M13.1864 15.57L14.4292 16.8128C15.2371 16.0049 15.3866 14.8093 14.9251 13.8304L16.2934 12.4621L15.6555 11.8242L13.169 14.3106C13.5319 14.6548 13.5316 15.2239 13.1864 15.57Z" fill="white"/>
<path d="M8.9611 19.7943C10.1012 20.3329 11.2284 20.0135 11.9434 19.2985C12.8893 18.3526 13.0582 16.7483 11.9275 15.5522L10.6842 16.7955C11.069 17.1874 11.0224 17.7339 10.7006 18.0558C10.3607 18.3957 9.79307 18.4088 9.44175 18.0379L6.95474 20.5249L7.59265 21.1628L8.9611 19.7943Z" fill="white"/>
</svg>
