<svg width="50" height="50" viewBox="0 0 50 50" fill="none" xmlns="http://www.w3.org/2000/svg">
<path d="M25 50C38.8071 50 50 38.8071 50 25C50 11.1929 38.8071 0 25 0C11.1929 0 0 11.1929 0 25C0 38.8071 11.1929 50 25 50Z" fill="#FF3333"/>
<path d="M31.6832 14.556C31.6832 14.556 21.1767 13.741 19.8569 20.5168C18.5371 27.2926 19.0644 27.175 19.0644 27.175L26.5762 34.7063C25.4854 35.0656 17.7715 37.5207 17.7715 37.5207L29.7902 49.5395C39.0384 47.7448 46.4667 40.854 49.0333 31.9061L31.6832 14.556Z" fill="#C60000"/>
<path d="M33.9658 20.5169C33.9658 15.5867 29.9548 11.5757 25.0246 11.5757C20.0944 11.5757 16.0835 15.5866 16.0835 20.5169C16.0835 25.4471 20.0945 29.4581 25.0247 29.4581C26.1757 29.4581 27.2765 29.2394 28.2879 28.8415C28.2088 29.9444 27.7594 30.9841 27.0001 31.7999C25.6191 33.2835 23.4355 33.7538 21.5663 32.9701L19.9608 32.2971L17.7711 37.5207L19.3765 38.1938C20.682 38.741 22.0583 39.006 23.4243 39.006C26.2947 39.006 29.1196 37.8361 31.1462 35.6588C32.9644 33.7052 33.9659 31.1595 33.9659 28.4906V20.9106C33.9659 20.9106 33.9658 20.6488 33.9658 20.5169ZM25.0247 23.7939C23.2177 23.7939 21.7476 22.3238 21.7476 20.5168C21.7476 18.7098 23.2177 17.2396 25.0247 17.2396C26.8316 17.2396 28.3017 18.7098 28.3017 20.5168C28.3017 22.3239 26.8317 23.7939 25.0247 23.7939Z" fill="#F8FFFB"/>
<path d="M33.9658 20.5166C33.9658 15.5869 29.9551 11.5762 25.0244 11.5762H25V17.2402H25.0244C26.832 17.2402 28.3018 18.71 28.3018 20.5166C28.3018 22.3242 26.832 23.7939 25.0244 23.7939H25V29.458H25.0244C26.1758 29.458 27.2764 29.2393 28.2881 28.8418C28.209 29.9443 27.7598 30.9844 27 31.7998C26.4404 32.4004 25.749 32.8359 25 33.0879V38.8877C27.3076 38.541 29.4932 37.4355 31.1465 35.6592C32.9648 33.7051 33.9658 31.1592 33.9658 28.4912V20.9111C33.9658 20.9111 33.9658 20.6494 33.9658 20.5166Z" fill="#D8D8D8"/>
</svg>
