<svg width="78" height="107" viewBox="0 0 78 107" fill="none" xmlns="http://www.w3.org/2000/svg">
<path d="M21.2348 39.8333C22.5255 41.8595 25.8977 44.2207 28.2896 44.1884C36.4376 44.039 39.12 38.4852 39.9993 36.4631C39.8339 36.4227 39.5556 36.3904 39.358 36.3662C37.8574 36.1483 36.3247 34.6629 35.8769 32.9879C35.3001 30.8084 34.5902 26.5461 34.6749 23.8378L24.3689 29.545C24.385 30.328 24.4375 31.1837 24.5101 32.0475C24.5625 32.5722 24.615 33.0888 24.6755 33.5893C24.7319 34.0696 24.7965 34.5257 24.857 34.9455C25.0466 36.3581 24.4173 37.7587 23.2274 38.5377L21.2348 39.8333Z" fill="#FE8E68"/>
<path d="M20.3474 17.6385C20.904 19.0996 20.6701 20.7584 20.1053 22.2155C19.706 23.2447 18.8186 22.3366 17.7134 22.3568C16.0031 22.385 14.668 20.6051 13.6354 15.8867C12.9779 12.4237 12.8125 10.6679 12.9456 10.3329C13.4176 9.13417 14.9746 8.49242 16.2573 8.3794" fill="#3D302A"/>
<path d="M17.7461 7.26178C15.0516 10.5109 14.0714 19.6529 16.3464 26.0221C17.9639 30.5507 19.8436 33.4729 22.0379 33.3801C25.3697 33.2388 31.8276 30.4982 33.9291 28.2097C37.7167 24.0887 36.6155 16.0082 35.833 10.9226C35.1231 6.30116 32.961 0.299325 27.1566 1.44157C23.3408 2.18423 20.1622 4.3436 17.7461 7.26178Z" fill="#FE8E68"/>
<path d="M33.0497 10.1835C32.4527 10.8979 31.4 11.0553 30.5327 11.1966C29.367 11.3863 28.7902 11.7819 28.1851 12.8434C27.8019 13.5215 27.4188 14.2641 26.733 14.6314C26.4103 14.805 25.9182 14.8292 25.7609 14.4982C26.0675 14.2924 26.1724 13.8726 26.0957 13.5094C26.0191 13.1501 25.7972 12.8393 25.5633 12.5528C25.3656 12.8192 25.3455 13.1743 25.2365 13.4932C25.0913 13.913 24.7807 14.2682 24.3854 14.4659C24.3209 14.4982 24.2523 14.5265 24.1838 14.5144C24.091 14.5023 24.0184 14.4215 23.9579 14.3489C23.5344 13.8403 23.1189 12.8716 22.53 12.5608C22.413 13.1138 22.1992 13.5537 21.8604 14.0098C21.5619 14.4094 21.2069 14.8211 20.7189 14.9139C20.5615 14.9462 20.3639 14.922 20.2913 14.7808C20.1985 14.6072 20.3437 14.4336 20.3195 14.256C20.2994 14.0906 20.2227 14.0179 20.138 13.8766C19.9202 13.5174 19.7266 13.1703 19.4402 12.8555C18.8634 13.5134 18.2341 14.1188 17.5605 14.6758C17.4113 14.7969 17.1934 14.918 17.0442 14.7969C16.9635 14.7323 16.9434 14.6233 16.9272 14.5184C16.8425 14.0058 16.7618 13.4932 16.6771 12.9806C16.6287 12.694 16.4634 12.3187 16.181 12.3913C16.0439 12.4276 15.9632 12.5608 15.8865 12.6819C15.7938 12.8353 14.1359 14.583 14.1037 14.4498C13.8455 13.4569 13.3171 12.5528 13.059 11.5599C11.4011 5.16652 18.8069 0.0284324 24.4661 0.000178938C25.7246 -0.00789347 26.9024 0.258495 28.1246 0.528921C29.4275 0.819527 30.7747 1.03345 31.9566 1.68327C33.6144 2.59142 34.8689 4.24223 34.5462 6.2119" fill="#3D302A"/>
<path d="M30.3228 8.49253C29.4999 9.4249 29.2821 10.7367 29.2055 11.9758C29.0925 13.8445 29.2458 15.786 30.109 17.4448C30.3551 17.9171 30.5366 20.254 30.9157 20.1249C31.0367 20.0845 31.0166 18.2723 31.3352 17.2955C31.8273 15.7819 34.0943 15.2047 35.1148 16.1613C36.7444 17.683 35.7884 19.5316 35.2479 20.6819C34.9252 21.3761 34.4129 22.1551 34.3242 22.8897C34.2153 23.8301 34.183 27.2569 34.7961 28.056C35.3084 28.726 35.8529 25.489 36.3168 24.8513C39.7495 20.1007 43.0409 8.00416 37.18 5.38062C36.2886 4.98104 33.5376 4.77519 32.7026 5.28375" fill="#3D302A"/>
<path d="M8.62151 104.651C8.28269 104.707 7.93983 104.756 7.58487 104.768C5.69713 104.829 3.8739 104.413 2.03053 104.098C0.408992 103.819 -0.0306727 103.666 0.00159706 101.709C0.283955 86.2055 2.56297 70.7428 6.66116 55.7886C7.28638 53.5041 7.96806 51.2035 9.16606 49.1612C11.2111 45.6779 15.9063 42.6709 19.5083 40.9838C20.0166 40.7457 22.1222 42.0857 22.6344 41.8556C23.0822 41.6538 23.4775 41.339 23.9292 41.1412C25.2523 40.564 26.1397 41.7709 27.2449 42.2754C27.8177 42.5337 28.455 42.6992 29.0842 42.6709C29.5965 42.6508 30.0604 42.34 30.5283 42.5821C32.6338 43.6719 37.8615 35.5834 37.8615 35.5834L40.1243 37.9526L46.7516 44.8989L63.3138 67.7317C63.3138 67.7317 66.3189 86.4436 68.3841 98.7096C68.7431 100.825 70.163 105.398 70.4453 107C70.3848 106.653 56.3074 106.56 55.549 106.56C45.7634 106.56 36.6473 106.56 26.8577 106.56C25.2482 106.56 20.9201 107.242 19.7907 106.06C18.3991 104.607 16.7897 97.9387 16.705 96.0699C16.4266 89.7856 16.8582 83.5496 16.9429 77.2289C16.9066 79.8 16.1685 82.1248 15.8539 84.6434C15.4465 87.8845 14.8656 91.1216 14.3412 94.3465C13.9217 96.9377 13.5184 99.537 13.1957 102.144C13.0505 103.319 13.236 104.017 12.2437 104.477C11.4168 104.849 9.59766 104.485 8.62151 104.651Z" fill="#BC744A"/>
<path d="M13.9382 99.2824C14.7046 98.9676 19.4361 97.793 21.5699 97.349C22.6872 97.119 27.7535 95.8032 28.9273 95.8032C30.1011 95.8032 31.6984 97.4822 31.6984 97.4822L31.2749 103.258C30.1454 103.145 28.6328 103.73 27.8221 103.843C27.0113 103.956 24.2563 103.972 22.5622 103.121C22.4654 103.072 22.3766 103.02 22.2879 102.967C21.6062 103.573 20.7511 104.162 19.8032 104.211C19.8032 104.211 19.061 104.134 19.1336 103.835C19.1658 103.69 19.6579 102.939 20.1501 102.205C19.424 102.943 18.2381 104.142 16.8707 104.211C16.8707 104.211 16.1285 104.134 16.2011 103.835C16.2414 103.658 16.9514 102.596 17.5241 101.753C17.5161 101.761 17.504 101.765 17.4999 101.773C16.8989 102.301 15.471 104.126 13.7809 104.211C13.7809 104.211 13.0387 104.134 13.1113 103.835C13.1355 103.726 13.4179 103.278 13.7608 102.758C13.3291 103.089 12.8007 103.44 12.1594 103.759C10.3321 104.663 9.29146 103.976 9.29146 103.759C9.28742 103.537 13.1718 99.5972 13.9382 99.2824Z" fill="#FE8E68"/>
<path d="M30.3915 92.5745C30.3915 92.5745 27.447 94.2454 27.7092 97.7973C27.9714 101.349 29.0362 105.466 33.4813 105.034C37.9264 104.602 30.3915 92.5745 30.3915 92.5745Z" fill="#874C2E"/>
<path d="M34.4372 104.683C45.0941 108.385 59.3531 104.849 68.3925 98.7017C74.0557 94.8592 77.6699 89.9794 77.0608 85.2127C75.4837 72.8296 65.7585 44.447 57.3443 40.3058C51.6246 37.4886 44.6867 36.3221 40.8184 35.8539C39.0033 35.6319 37.8698 35.5795 37.8698 35.5795L39.2736 39.543L46.3002 59.3688C46.5624 71.1344 54.9766 78.1211 53.3026 80.8616C51.6286 83.5942 38.4103 86.5446 31.4684 91.2226C29.5484 92.5223 27.1121 101.923 34.4372 104.683Z" fill="#BC744A"/>
<path d="M77.0607 85.5189L77.0849 86.3463C77.0849 86.4836 77.1051 86.6208 77.0849 86.758L77.0365 87.1657C76.9962 87.4361 76.9962 87.7146 76.9276 87.977L76.734 88.7721C76.4113 89.8134 75.9636 90.8185 75.3505 91.7226C74.1807 93.5631 72.6318 95.1453 70.9215 96.5014C67.4969 99.2218 63.552 101.256 59.4377 102.733C55.3314 104.247 51.0275 105.244 46.6591 105.607C44.4769 105.793 42.2785 105.817 40.0963 105.631C37.9101 105.462 35.74 105.062 33.6344 104.404C35.6956 105.191 37.8738 105.656 40.0641 105.926C42.2624 106.176 44.4809 106.204 46.6914 106.071C48.9018 105.946 51.1001 105.615 53.2622 105.139C55.4242 104.667 57.558 104.053 59.6434 103.302C61.7208 102.532 63.7537 101.631 65.6979 100.566C67.6381 99.4963 69.5178 98.2935 71.2119 96.8566C72.9101 95.4318 74.455 93.7851 75.5965 91.8719C76.1814 90.9234 76.5969 89.878 76.8833 88.8084C77.1696 87.7348 77.1898 86.6087 77.0607 85.5189Z" fill="#874C2E"/>
<path d="M46.3003 59.3689C46.2922 61.6009 46.6028 63.8369 47.1837 66.0003C47.7685 68.1637 48.6237 70.2505 49.6159 72.2605C50.1121 73.2655 50.6405 74.2503 51.185 75.2231C51.7215 76.1998 52.2741 77.1685 52.7259 78.1614C52.9478 78.6579 53.1414 79.1705 53.218 79.675C53.2382 79.9212 53.2583 80.1755 53.1898 80.3894C53.1736 80.5065 53.1051 80.5953 53.0647 80.7002C52.9881 80.793 52.9356 80.8939 52.8388 80.9827C52.1168 81.7052 51.0842 82.1936 50.104 82.6658C46.0784 84.5023 41.8028 85.8625 37.7288 87.6949C35.6918 88.6112 33.675 89.6 31.7993 90.8351L31.4524 91.0692C31.3354 91.1499 31.2265 91.2549 31.1136 91.3477C30.9038 91.5536 30.7223 91.7796 30.5771 92.0258C30.2786 92.5142 30.0769 93.047 29.9196 93.5878C29.6211 94.6735 29.4961 95.7916 29.488 96.9096C29.5606 95.7997 29.7462 94.6897 30.0729 93.6362C30.4198 92.5909 30.9563 91.5737 31.9607 91.0854C33.8444 89.9149 35.8652 88.9825 37.9143 88.1228C39.9675 87.2752 42.0448 86.472 44.1302 85.693C46.2156 84.9019 48.3131 84.1471 50.3622 83.2107C51.3706 82.7102 52.4072 82.238 53.2664 81.3702C53.3753 81.2653 53.4641 81.12 53.5568 80.9948C53.6254 80.8415 53.7182 80.6962 53.7424 80.5347C53.8392 80.2118 53.8069 79.893 53.7787 79.5902C53.6819 78.9929 53.4641 78.452 53.2301 77.9354C52.7501 76.9021 52.1894 75.9375 51.6449 74.9648C51.1003 73.992 50.5518 73.0274 50.0314 72.0466C47.95 68.1355 46.51 63.8369 46.3003 59.3689Z" fill="#874C2E"/>
<path d="M18.682 41.3676C19.6985 42.3767 24.2243 45.6016 28.5403 45.6016C29.2583 45.6016 30.0166 45.537 30.8193 45.3877C34.4415 44.7258 37.491 42.3081 39.2738 39.5392C39.6046 39.0186 39.895 38.4818 40.133 37.9449C40.4557 37.2507 40.6856 36.5403 40.8187 35.8542C39.0036 35.6322 37.2691 35.1761 36.9868 34.8532C36.6802 36.9682 34.0704 40.7864 30.1174 41.5049C29.6213 41.5977 29.1534 41.6381 28.7057 41.6461H28.6976C26.8421 41.6784 25.4182 41.0851 24.4461 40.4878C24.4381 40.4878 22.5544 39.0024 22.5463 38.9944L18.682 41.3676Z" fill="#BC744A"/>
<path d="M26.9832 16.8028C26.0756 16.0037 23.8974 16.3145 22.9697 16.9078C22.7882 17.0248 22.5905 16.7625 22.7438 16.6131C23.369 15.9875 24.4178 15.9512 25.2528 15.9835C25.886 16.0077 26.9227 15.9795 27.1405 16.7181C27.1647 16.8028 27.0477 16.8593 26.9832 16.8028Z" fill="#3D302A"/>
<path d="M18.1292 17.344C17.5766 17.3037 17.0603 17.1987 16.5077 17.336C15.9551 17.4732 15.5477 17.8123 15.0556 18.0706C14.9507 18.1271 14.8539 18.0181 14.8983 17.9132C15.3823 16.8436 17.258 16.452 18.1938 17.0938C18.2946 17.1664 18.2704 17.3521 18.1292 17.344Z" fill="#3D302A"/>
<path d="M20.3515 20.3873C20.3878 21.2188 20.3555 22.0704 20.2184 22.8938C20.17 23.1884 19.7908 23.9795 19.8513 24.2298C19.9199 24.5042 20.3999 24.8473 20.5653 25.1218C20.65 25.259 20.4846 25.4003 20.3555 25.3317C19.8634 25.0774 19.2987 24.698 19.4036 24.1047C19.4964 23.5517 19.7505 23.023 19.8352 22.4539C19.9401 21.7677 19.9441 21.0775 20.0086 20.3833C20.0248 20.1694 20.3434 20.1613 20.3515 20.3873Z" fill="#CC6144"/>
<path d="M29.0438 30.7C27.9063 32.0359 25.962 32.932 24.2155 32.9845C24.042 32.9885 23.9976 32.7059 24.1751 32.6737C26.0266 32.3306 27.394 31.6929 28.8743 30.5264C28.9913 30.4295 29.1486 30.5789 29.0438 30.7Z" fill="#CC6144"/>
<path d="M37.8737 34.9173C40.4955 33.6742 41.8992 37.6175 42.1655 39.5509C42.6737 43.2682 41.028 46.7273 39.5275 50.0168C37.9543 53.4718 36.1553 56.8097 34.5459 60.2445C33.715 62.0245 32.9768 63.8448 32.4242 65.7297C31.8433 67.6994 31.7788 69.8951 31.0648 71.7961C30.968 72.0545 30.6332 71.9979 30.601 71.7316C30.2541 68.9789 31.4722 65.5925 32.4201 63.0174C33.3277 60.5513 34.5015 58.1941 35.6713 55.845C37.2 52.7816 38.749 49.6858 40.0034 46.4972C40.6327 44.8989 41.153 43.2279 41.266 41.5004C41.3547 40.12 40.8505 34.5056 38.1681 35.6156C37.7728 35.7851 37.4824 35.103 37.8737 34.9173Z" fill="#874C2E"/>
<path d="M22.554 39.1638C19.2545 40.419 20.4081 46.4532 20.8599 49.0686C21.4084 52.2532 22.437 55.3409 23.7278 58.2994C26.2408 64.0672 29.629 69.4192 32.6623 74.9165C32.9124 75.3685 32.2267 75.7722 31.9685 75.3242C28.1971 68.7007 23.9012 62.2751 21.4125 55.018C20.2589 51.6518 19.5207 48.108 19.4683 44.54C19.436 42.1667 19.7829 39.2808 22.3523 38.413C22.8242 38.2516 23.0098 38.9862 22.554 39.1638Z" fill="#874C2E"/>
<path d="M26.9543 72.1115C29.5036 72.0348 32.0529 71.9621 34.6022 71.8855C35.0136 71.8733 35.2556 72.2164 35.3 72.5837C35.78 76.4141 35.9454 80.3171 36.5222 84.1313C36.5907 84.5793 36.3447 85.0072 35.8485 85.0152C33.3356 85.0677 30.8186 85.1444 28.3056 85.1686C28.1725 85.1686 28.0636 85.1404 27.9708 85.0879C27.9668 85.0879 27.9628 85.0838 27.9587 85.0798C27.9345 85.0677 27.9103 85.0516 27.8861 85.0354C27.7691 84.9547 27.6764 84.8296 27.632 84.652C26.6599 80.8862 26.6599 76.6684 26.2565 72.8057C26.2162 72.4263 26.6075 72.1196 26.9543 72.1115Z" fill="#874C2E"/>
<path d="M16.8382 87.6466C16.7293 85.568 16.9351 83.4651 16.9472 81.3824C16.9633 79.2271 16.8987 77.0718 16.7818 74.9164C16.6688 72.8297 16.5034 70.743 16.2655 68.6684C16.0194 66.5292 15.5717 64.4102 15.3458 62.271C15.3135 61.9845 15.7733 61.932 15.8419 62.2024C16.3421 64.168 16.5357 66.2628 16.7737 68.2769C17.0319 70.4807 17.2255 72.6965 17.3304 74.9164C17.4352 77.0677 17.4473 79.2271 17.3989 81.3824C17.3505 83.4651 17.3505 85.6164 16.923 87.6587C16.9189 87.7112 16.8423 87.695 16.8382 87.6466Z" fill="#874C2E"/>
<path d="M38.0392 38.7962C37.3575 41.5933 34.2274 43.9666 31.4764 44.3783C31.2425 44.4147 31.1416 44.0918 31.3756 44.0191C32.7954 43.567 34.1346 42.9818 35.2802 42.0091C36.3894 41.0686 37.0671 39.9102 37.8456 38.7155C37.9141 38.6186 38.0674 38.6792 38.0392 38.7962Z" fill="#874C2E"/>
<path d="M28.8749 44.3941C28.3949 44.2851 27.9189 44.1721 27.447 44.0389C27.0235 43.9178 26.5798 43.8371 26.2127 43.5908C26.1038 43.5182 26.1441 43.3446 26.2813 43.3406C27.1485 43.3164 28.1569 43.7967 28.9637 44.0833C29.1573 44.1478 29.0806 44.4384 28.8749 44.3941Z" fill="#874C2E"/>
<path d="M33.5497 18.1836C33.2835 17.7759 32.872 19.0433 32.8559 19.1482C32.7792 19.6407 32.8801 20.0806 33.0051 20.5528C33.0535 20.7304 32.505 20.5892 32.4404 20.464C32.0855 19.7779 32.0572 18.5832 32.6744 18.0181C33.0616 17.667 33.8119 17.7638 34.0902 18.2038C34.2193 18.4015 33.6384 18.3208 33.5497 18.1836Z" fill="#CC6144"/>
<path d="M32.6782 19.1561C32.6823 19.1036 32.6782 19.0511 32.6621 18.9987C32.6581 18.9825 32.6581 18.9704 32.6742 18.9583C32.892 18.6919 33.2349 18.5668 33.5656 18.6919C33.5858 18.7 33.6544 18.7323 33.6261 18.7645C33.5455 18.8493 33.3922 18.8453 33.2913 18.8937C33.2066 18.9341 33.1461 18.9906 33.0735 19.0511C33.0009 19.1157 32.9122 19.144 32.8396 19.2045C32.8033 19.2328 32.6782 19.2045 32.6782 19.1561Z" fill="#CC6144"/>
<path d="M23.4536 29.5173C23.147 29.9411 22.4895 30.1631 22.0135 29.8765C21.9772 29.8563 21.9813 29.828 22.0256 29.8321C22.4492 29.8523 22.8364 29.7312 23.0905 29.376C23.151 29.2912 23.5262 29.4164 23.4536 29.5173Z" fill="#CC6144"/>
<path d="M26.4468 21.0613C26.4952 21.3882 26.4831 21.6505 26.2975 21.9371C26.1402 22.1793 25.9345 22.3609 25.6441 22.4174C25.6118 22.4255 25.4424 22.3892 25.4827 22.3327C25.64 22.1147 25.878 21.9896 26.0152 21.7474C26.1362 21.5295 26.2491 21.2752 26.2653 21.0249C26.2653 20.9765 26.4387 21.0209 26.4468 21.0613Z" fill="#CC6144"/>
<path d="M16.7692 23.0595C16.7407 23.0595 16.6637 23.0147 16.7286 23.0147C16.761 23.0147 16.8341 23.0595 16.7692 23.0595Z" fill="#CC6144"/>
<path d="M16.3219 22.9739C16.0557 22.8367 15.6805 22.4371 15.9306 22.1344C15.9508 22.1102 16.0274 22.1385 16.0355 22.1627C16.1605 22.4492 16.1888 22.756 16.4953 22.9134C16.6768 23.0062 16.4066 23.0143 16.3219 22.9739Z" fill="#CC6144"/>
<path d="M16.7211 71.505C16.6082 69.7896 15.8216 68.4496 14.7729 67.1216C13.9581 66.0924 12.9416 65.4264 12.0058 64.5385C11.9049 64.4416 12.0098 64.26 12.1429 64.3003C13.5063 64.7282 14.6115 66.1126 15.4263 67.2185C16.2815 68.3769 17.4674 70.0116 16.943 71.5292C16.9026 71.6583 16.7332 71.6341 16.7211 71.505Z" fill="#874C2E"/>
<path d="M16.9269 72.5265C16.4953 71.9978 16.221 71.356 15.8418 70.7869C15.3941 70.1169 14.8697 69.4913 14.2929 68.9262C14.1799 68.8172 13.111 67.7234 13.0062 68.5993C12.9416 69.1522 14.0468 69.3621 14.3736 69.5599C14.7406 69.7819 14.9867 69.9555 14.9867 70.4075C14.9867 70.5528 14.7689 70.6255 14.7003 70.4842C14.2647 69.6083 12.6956 69.6406 12.5302 68.4661C12.4656 67.9939 12.8408 67.6952 13.3006 67.7436C14.1275 67.8324 14.9867 69.0352 15.4506 69.6124C16.096 70.4196 16.8583 71.4246 17.0156 72.47C17.0237 72.5184 16.9632 72.5709 16.9269 72.5265Z" fill="#874C2E"/>
<path d="M32.9409 93.8099C32.9369 95.2064 32.9611 96.5586 33.4532 97.8865C33.9412 99.2104 34.8246 100.219 35.6394 101.337C35.6999 101.422 35.583 101.519 35.5023 101.475C33.1143 100.151 31.9042 96.3164 32.7231 93.7817C32.7594 93.6646 32.9409 93.6807 32.9409 93.8099Z" fill="#874C2E"/>
<path d="M22.3038 80.9621C22.6467 83.1134 23.0419 85.0749 24.1552 86.9881C25.2605 88.8891 26.8336 90.54 28.6769 91.7347C28.8262 91.8315 28.6931 92.0616 28.5398 91.9728C24.841 89.8659 21.727 85.4261 21.9851 81.0065C21.9932 80.8369 22.2715 80.7724 22.3038 80.9621Z" fill="#874C2E"/>
<path d="M10.1869 26.2034C9.723 26.0137 9.12603 25.832 8.83157 25.4002C8.7872 25.3356 8.84771 25.2508 8.92031 25.2468C9.42855 25.2306 9.92066 25.606 10.3321 25.8603C10.5015 25.9693 10.3926 26.2841 10.1869 26.2034Z" fill="#874C2E"/>
<path d="M10.1221 27.4105C9.83974 27.6042 9.38394 27.7818 9.06124 27.584C8.96846 27.5275 8.96443 27.3863 9.06124 27.3297C9.19435 27.2531 9.35166 27.2329 9.49688 27.1966C9.65823 27.1562 9.81554 27.1078 9.96479 27.0432C10.1907 26.9544 10.2956 27.2894 10.1221 27.4105Z" fill="#874C2E"/>
<path d="M10.5498 29.7029C10.2755 29.8643 9.91251 30.1267 9.57771 30.1065C9.49704 30.1024 9.43653 30.0136 9.4809 29.941C9.65838 29.6544 10.0658 29.5132 10.3602 29.384C10.574 29.2831 10.7636 29.5737 10.5498 29.7029Z" fill="#874C2E"/>
</svg>
