<svg width="1280" height="270" viewBox="0 0 1280 270" fill="none" xmlns="http://www.w3.org/2000/svg">
<rect width="1280" height="270" rx="20" fill="#EFEBF5"/>
<mask id="mask0_28_4134" style="mask-type:alpha" maskUnits="userSpaceOnUse" x="0" y="0" width="1280" height="270">
<rect width="1280" height="270" rx="20" fill="#EFEBF5"/>
</mask>
<g mask="url(#mask0_28_4134)">
</g>
<g clip-path="url(#clip0_28_4134)">
<path d="M828.049 147.691H807.712V171.747H828.049V147.691Z" fill="#F5F5F5"/>
<path d="M808.42 146.119H716.524V173.254H808.42V146.119Z" fill="#E0E0E0"/>
<path d="M828.663 148.401H805.951V146.119H828.663C829.295 146.119 829.81 146.631 829.81 147.26C829.81 147.895 829.295 148.401 828.663 148.401Z" fill="#E0E0E0"/>
<path d="M828.663 173.255H805.951V170.973H828.663C829.295 170.973 829.81 171.485 829.81 172.114C829.81 172.748 829.295 173.255 828.663 173.255Z" fill="#E0E0E0"/>
<path d="M801.194 146.119H790.335V173.254H801.194V146.119Z" fill="#EBEBEB"/>
<path d="M736.118 146.422H725.259V173.557H736.118V146.422Z" fill="#EBEBEB"/>
<path d="M828.049 151.667C828.049 151.731 823.649 151.789 818.22 151.789C812.791 151.789 808.391 151.737 808.391 151.667C808.391 151.603 812.791 151.545 818.22 151.545C823.649 151.545 828.049 151.603 828.049 151.667Z" fill="#E0E0E0"/>
<path d="M828.049 155.277C828.049 155.341 823.649 155.399 818.22 155.399C812.791 155.399 808.391 155.346 808.391 155.277C808.391 155.213 812.791 155.154 818.22 155.154C823.649 155.154 828.049 155.207 828.049 155.277Z" fill="#E0E0E0"/>
<path d="M828.049 159.719C828.049 159.783 823.649 159.841 818.22 159.841C812.791 159.841 808.391 159.789 808.391 159.719C808.391 159.655 812.791 159.597 818.22 159.597C823.649 159.597 828.049 159.649 828.049 159.719Z" fill="#E0E0E0"/>
<path d="M828.049 164.155C828.049 164.22 823.649 164.278 818.22 164.278C812.791 164.278 808.391 164.225 808.391 164.155C808.391 164.091 812.791 164.033 818.22 164.033C823.649 164.039 828.049 164.091 828.049 164.155Z" fill="#E0E0E0"/>
<path d="M828.049 168.597C828.049 168.661 823.649 168.719 818.22 168.719C812.791 168.719 808.391 168.667 808.391 168.597C808.391 168.533 812.791 168.475 818.22 168.475C823.649 168.48 828.049 168.533 828.049 168.597Z" fill="#E0E0E0"/>
<path d="M784.497 157.273H743.156V162.158H784.497V157.273Z" fill="#EBEBEB"/>
<path d="M827.844 173.79H807.198V188.449H827.844V173.79Z" fill="#FAFAFA"/>
<path d="M807.431 173.255H719.567V188.974H807.431V173.255Z" fill="#F5F5F5"/>
<path d="M806.788 174.32H828.979C829.272 174.32 829.511 174.082 829.511 173.791C829.511 173.499 829.272 173.261 828.979 173.261H806.788V174.32Z" fill="#F5F5F5"/>
<path d="M806.788 188.979H829.266C829.4 188.979 829.511 188.869 829.511 188.735V188.159C829.511 188.025 829.4 187.914 829.266 187.914H806.788V188.979Z" fill="#F5F5F5"/>
<path d="M827.844 176.573C827.844 176.637 823.275 176.696 817.635 176.696C811.995 176.696 807.426 176.643 807.426 176.573C807.426 176.509 811.995 176.451 817.635 176.451C823.269 176.451 827.844 176.509 827.844 176.573Z" fill="#E0E0E0"/>
<path d="M827.844 179.344C827.844 179.408 823.275 179.466 817.635 179.466C811.995 179.466 807.426 179.414 807.426 179.344C807.426 179.28 811.995 179.222 817.635 179.222C823.269 179.228 827.844 179.28 827.844 179.344Z" fill="#E0E0E0"/>
<path d="M827.844 182.121C827.844 182.185 823.275 182.244 817.635 182.244C811.995 182.244 807.426 182.191 807.426 182.121C807.426 182.057 811.995 181.999 817.635 181.999C823.269 181.999 827.844 182.051 827.844 182.121Z" fill="#E0E0E0"/>
<path d="M827.844 184.893C827.844 184.957 823.275 185.015 817.635 185.015C811.995 185.015 807.426 184.963 807.426 184.893C807.426 184.829 811.995 184.771 817.635 184.771C823.269 184.771 827.844 184.823 827.844 184.893Z" fill="#E0E0E0"/>
<path d="M830.974 190.376H809.9V230.109H830.974V190.376Z" fill="#EBEBEB"/>
<path d="M809.9 188.98H710.984V232.061H809.9V188.98Z" fill="#E0E0E0"/>
<path d="M832.624 232.053H807.198V229.259H832.624C833.402 229.259 834.028 229.882 834.028 230.656C834.028 231.43 833.397 232.053 832.624 232.053Z" fill="#E0E0E0"/>
<path d="M833.385 191.767H807.198V188.973H833.385C833.742 188.973 834.028 189.258 834.028 189.613V191.127C834.028 191.482 833.736 191.767 833.385 191.767Z" fill="#E0E0E0"/>
<path d="M830.974 195.696C830.974 195.761 826.258 195.819 820.437 195.819C814.616 195.819 809.9 195.766 809.9 195.696C809.9 195.632 814.616 195.574 820.437 195.574C826.258 195.58 830.974 195.632 830.974 195.696Z" fill="#E0E0E0"/>
<path d="M830.974 200.797C830.974 200.861 826.258 200.919 820.437 200.919C814.616 200.919 809.9 200.867 809.9 200.797C809.9 200.733 814.616 200.675 820.437 200.675C826.258 200.675 830.974 200.727 830.974 200.797Z" fill="#E0E0E0"/>
<path d="M830.974 205.891C830.974 205.955 826.258 206.013 820.437 206.013C814.616 206.013 809.9 205.961 809.9 205.891C809.9 205.827 814.616 205.769 820.437 205.769C826.258 205.769 830.974 205.827 830.974 205.891Z" fill="#E0E0E0"/>
<path d="M830.974 210.985C830.974 211.049 826.258 211.107 820.437 211.107C814.616 211.107 809.9 211.054 809.9 210.985C809.9 210.921 814.616 210.862 820.437 210.862C826.258 210.868 830.974 210.921 830.974 210.985Z" fill="#E0E0E0"/>
<path d="M830.974 216.085C830.974 216.149 826.258 216.207 820.437 216.207C814.616 216.207 809.9 216.155 809.9 216.085C809.9 216.021 814.616 215.963 820.437 215.963C826.258 215.963 830.974 216.015 830.974 216.085Z" fill="#E0E0E0"/>
<path d="M830.974 221.179C830.974 221.243 826.258 221.301 820.437 221.301C814.616 221.301 809.9 221.249 809.9 221.179C809.9 221.115 814.616 221.057 820.437 221.057C826.258 221.057 830.974 221.115 830.974 221.179Z" fill="#E0E0E0"/>
<path d="M830.974 226.273C830.974 226.337 826.258 226.395 820.437 226.395C814.616 226.395 809.9 226.343 809.9 226.273C809.9 226.209 814.616 226.15 820.437 226.15C826.258 226.156 830.974 226.209 830.974 226.273Z" fill="#E0E0E0"/>
<path d="M744.83 212.872V215.27C744.83 218.158 743.379 219.805 740.582 219.805C737.785 219.805 736.334 218.158 736.334 215.27V205.886C736.334 202.998 737.785 201.351 740.582 201.351C743.379 201.351 744.83 202.998 744.83 205.886V207.638H742.138V205.705C742.138 204.419 741.571 203.93 740.664 203.93C739.757 203.93 739.19 204.419 739.19 205.705V215.451C739.19 216.737 739.757 217.203 740.664 217.203C741.571 217.203 742.138 216.737 742.138 215.451V212.872H744.83Z" fill="#EBEBEB"/>
<path d="M746.333 205.892C746.333 203.004 747.86 201.356 750.657 201.356C753.453 201.356 754.98 203.004 754.98 205.892V215.276C754.98 218.164 753.453 219.811 750.657 219.811C747.86 219.811 746.333 218.164 746.333 215.276V205.892ZM749.182 215.451C749.182 216.737 749.75 217.226 750.657 217.226C751.563 217.226 752.131 216.737 752.131 215.451V205.711C752.131 204.424 751.563 203.935 750.657 203.935C749.75 203.935 749.182 204.424 749.182 205.711V215.451Z" fill="#EBEBEB"/>
<path d="M756.818 201.561H759.667V217.023H764.353V219.602H756.818V201.561Z" fill="#EBEBEB"/>
<path d="M765.365 205.892C765.365 203.004 766.892 201.356 769.689 201.356C772.486 201.356 774.013 203.004 774.013 205.892V215.276C774.013 218.164 772.486 219.811 769.689 219.811C766.892 219.811 765.365 218.164 765.365 215.276V205.892ZM768.215 215.451C768.215 216.737 768.782 217.226 769.689 217.226C770.596 217.226 771.163 216.737 771.163 215.451V205.711C771.163 204.424 770.596 203.935 769.689 203.935C768.782 203.935 768.215 204.424 768.215 205.711V215.451Z" fill="#EBEBEB"/>
<path d="M778.576 201.561V215.48C778.576 216.767 779.143 217.233 780.05 217.233C780.957 217.233 781.525 216.767 781.525 215.48V201.561H784.216V215.3C784.216 218.187 782.765 219.835 779.968 219.835C777.172 219.835 775.721 218.187 775.721 215.3V201.561H778.576Z" fill="#EBEBEB"/>
<path d="M792.12 219.602C791.962 219.136 791.863 218.857 791.863 217.384V214.549C791.863 212.872 791.295 212.255 789.996 212.255H789.013V219.602H786.164V201.561H790.464C793.419 201.561 794.688 202.929 794.688 205.711V207.126C794.688 208.983 794.092 210.194 792.822 210.788C794.25 211.382 794.712 212.744 794.712 214.63V217.413C794.712 218.292 794.735 218.933 795.022 219.602H792.12ZM789.013 204.14V209.682H790.125C791.19 209.682 791.833 209.216 791.833 207.772V205.997C791.833 204.71 791.395 204.14 790.382 204.14H789.013Z" fill="#EBEBEB"/>
<path d="M744.215 179.449H742.138L742.25 178.913H747.018L746.901 179.449H744.83L743.759 184.77H743.145L744.215 179.449Z" fill="#E0E0E0"/>
<path d="M751.019 180.368L747.79 185.34C747.246 186.178 746.83 186.434 746.193 186.434C745.783 186.434 745.362 186.295 745.139 186.039L745.461 185.602C745.654 185.8 745.906 185.922 746.245 185.922C746.625 185.922 746.918 185.747 747.263 185.212L747.573 184.746L746.473 180.368H747.076L747.995 184.117L750.411 180.368H751.019Z" fill="#E0E0E0"/>
<path d="M755.934 182.19C755.934 183.704 754.876 184.81 753.43 184.81C752.588 184.81 752.003 184.467 751.745 183.849L751.242 186.394H750.646L751.851 180.368H752.424L752.284 181.072C752.705 180.607 753.296 180.339 754.01 180.339C755.139 180.333 755.934 181.038 755.934 182.19ZM755.332 182.225C755.332 181.364 754.799 180.851 753.875 180.851C752.775 180.851 751.968 181.713 751.968 182.918C751.968 183.78 752.5 184.28 753.425 184.28C754.524 184.286 755.332 183.424 755.332 182.225Z" fill="#E0E0E0"/>
<path d="M756.631 182.947C756.631 181.451 757.701 180.339 759.187 180.339C760.416 180.339 761.2 181.061 761.2 182.196C761.2 183.704 760.129 184.816 758.643 184.816C757.415 184.81 756.631 184.076 756.631 182.947ZM760.603 182.225C760.603 181.364 760.071 180.851 759.146 180.851C758.046 180.851 757.227 181.719 757.227 182.918C757.227 183.78 757.76 184.28 758.684 184.28C759.784 184.286 760.603 183.424 760.603 182.225Z" fill="#E0E0E0"/>
<path d="M766.922 180.368L766.15 184.234C765.84 185.788 765.015 186.434 763.575 186.434C762.745 186.434 762.06 186.201 761.61 185.77L761.961 185.316C762.312 185.677 762.908 185.904 763.616 185.904C764.734 185.904 765.325 185.392 765.535 184.333L765.635 183.844C765.214 184.315 764.617 184.6 763.868 184.6C762.698 184.6 761.914 183.925 761.914 182.825C761.914 181.41 762.967 180.333 764.435 180.333C765.249 180.333 765.91 180.665 766.161 181.334L766.349 180.362H766.922V180.368ZM765.916 182.132C765.916 181.329 765.372 180.851 764.453 180.851C763.336 180.851 762.528 181.672 762.528 182.79C762.528 183.593 763.066 184.071 763.991 184.071C765.102 184.076 765.916 183.256 765.916 182.132Z" fill="#E0E0E0"/>
<path d="M770.824 180.333L770.713 180.909C770.654 180.909 770.613 180.898 770.543 180.898C769.601 180.898 768.969 181.433 768.753 182.528L768.308 184.763H767.711L768.589 180.362H769.162L769.01 181.166C769.402 180.595 769.981 180.333 770.824 180.333Z" fill="#E0E0E0"/>
<path d="M775.896 180.368L775.013 184.769H774.439L774.58 184.076C774.158 184.536 773.573 184.81 772.854 184.81C771.719 184.81 770.929 184.106 770.929 182.947C770.929 181.439 771.988 180.339 773.427 180.339C774.27 180.339 774.855 180.682 775.106 181.294L775.294 180.374H775.896V180.368ZM774.902 182.225C774.902 181.364 774.369 180.851 773.445 180.851C772.345 180.851 771.526 181.719 771.526 182.918C771.526 183.78 772.058 184.28 772.983 184.28C774.088 184.286 774.902 183.424 774.902 182.225Z" fill="#E0E0E0"/>
<path d="M781.636 182.19C781.636 183.704 780.577 184.81 779.132 184.81C778.289 184.81 777.704 184.467 777.447 183.849L776.944 186.394H776.347L777.552 180.368H778.126L777.985 181.072C778.406 180.607 778.997 180.339 779.711 180.339C780.834 180.333 781.636 181.038 781.636 182.19ZM781.033 182.225C781.033 181.364 780.501 180.851 779.576 180.851C778.477 180.851 777.669 181.713 777.669 182.918C777.669 183.78 778.202 184.28 779.126 184.28C780.226 184.286 781.033 183.424 781.033 182.225Z" fill="#E0E0E0"/>
<path d="M786.989 181.765C786.989 181.923 786.972 182.091 786.937 182.266L786.434 184.769H785.837L786.34 182.26C786.363 182.12 786.381 181.987 786.381 181.858C786.381 181.23 786.001 180.869 785.24 180.869C784.298 180.869 783.649 181.381 783.438 182.406L782.97 184.764H782.373L783.619 178.552H784.216L783.719 181.02C784.14 180.543 784.731 180.327 785.41 180.327C786.41 180.333 786.989 180.869 786.989 181.765Z" fill="#E0E0E0"/>
<path d="M792.583 180.368L789.353 185.34C788.809 186.178 788.393 186.434 787.756 186.434C787.346 186.434 786.925 186.295 786.703 186.039L787.024 185.602C787.217 185.8 787.469 185.922 787.808 185.922C788.189 185.922 788.481 185.747 788.826 185.212L789.137 184.746L788.037 180.368H788.639L789.558 184.117L791.974 180.368H792.583Z" fill="#E0E0E0"/>
<path d="M1117.16 232.053C1117.16 232.134 1025.4 232.204 912.24 232.204C799.036 232.204 707.304 232.134 707.304 232.053C707.304 231.971 799.042 231.901 912.24 231.901C1025.4 231.901 1117.16 231.971 1117.16 232.053Z" fill="#263238"/>
<path d="M1078.65 202.34C1078.65 202.34 1063.14 184.578 1057.29 166.816C1051.44 149.054 1054.22 151.091 1054.22 151.091C1054.22 151.091 1062.12 168.347 1068.12 176.678C1074.12 185.015 1084.8 197.24 1084.8 197.24L1078.65 202.34Z" fill="#455A64"/>
<path d="M1081.74 153.862C1081.24 152.995 1079.91 153.443 1080.05 154.433C1081 160.674 1083.04 175.309 1082.96 184.81C1082.86 197.147 1082.97 201.915 1082.97 201.915H1089.42C1089.42 201.915 1088.27 176.415 1086.82 168.638C1085.8 163.189 1083.63 157.134 1081.74 153.862Z" fill="#455A64"/>
<path d="M1085.26 199.842C1085.26 199.842 1089.32 191.343 1090.57 180.665C1091.11 176.125 1090.16 169.988 1088.75 161.797C1088.06 157.833 1087.91 154.811 1087.93 152.721C1087.95 151.138 1090.05 150.625 1090.82 152.005C1091.6 153.391 1093.86 158.112 1094.43 161.075C1095.99 169.162 1097.76 173.202 1096.41 180.875C1095.05 188.548 1090.05 200.36 1090.05 200.36L1085.26 199.842Z" fill="#455A64"/>
<path d="M1091.07 200.36C1091.07 200.36 1108.1 163.945 1109.28 158.549C1110.46 153.146 1114.47 140.699 1114.94 141.404C1115.41 142.108 1116.12 148.687 1113.05 156.203C1109.99 163.718 1096.88 201.472 1096.88 201.472H1091.06" fill="#455A64"/>
<path d="M1083.39 198.731C1083.39 198.743 1083.22 198.626 1082.91 198.405C1082.61 198.178 1082.15 197.858 1081.6 197.404C1080.46 196.519 1078.87 195.168 1077.02 193.387C1073.31 189.835 1068.68 184.357 1064.67 177.61C1060.65 170.862 1057.95 164.266 1056.24 159.434C1055.39 157.018 1054.76 155.039 1054.36 153.659C1054.15 152.972 1054.01 152.437 1053.91 152.07C1053.81 151.703 1053.76 151.511 1053.77 151.511C1053.78 151.505 1053.85 151.691 1053.98 152.052C1054.11 152.442 1054.28 152.966 1054.49 153.618C1054.94 154.981 1055.6 156.943 1056.49 159.347C1058.25 164.144 1060.99 170.705 1064.99 177.423C1068.98 184.142 1073.55 189.62 1077.21 193.2C1079.03 195.005 1080.59 196.373 1081.7 197.293C1082.24 197.765 1082.69 198.102 1082.97 198.347C1083.25 198.591 1083.4 198.719 1083.39 198.731Z" fill="#263238"/>
<path d="M1085.26 181.259C1085.23 181.259 1085.18 180.881 1085.1 180.188C1085.02 179.431 1084.92 178.453 1084.79 177.271C1084.52 174.808 1084.1 171.409 1083.49 167.677C1082.89 163.945 1082.22 160.586 1081.7 158.164C1081.45 157 1081.24 156.033 1081.08 155.294C1080.93 154.619 1080.86 154.24 1080.88 154.234C1080.91 154.229 1081.03 154.595 1081.21 155.265C1081.41 155.934 1081.66 156.907 1081.95 158.112C1082.53 160.522 1083.25 163.881 1083.85 167.624C1084.45 171.368 1084.83 174.774 1085.04 177.248C1085.14 178.482 1085.21 179.489 1085.24 180.182C1085.28 180.875 1085.28 181.259 1085.26 181.259Z" fill="#263238"/>
<path d="M1089.24 151.714C1089.26 151.708 1089.33 151.871 1089.44 152.174C1089.57 152.517 1089.74 152.966 1089.95 153.525C1090.18 154.113 1090.44 154.834 1090.68 155.69C1090.94 156.546 1091.26 157.507 1091.51 158.607C1091.64 159.154 1091.78 159.725 1091.93 160.319C1092.07 160.912 1092.18 161.547 1092.3 162.193C1092.59 163.486 1092.76 164.889 1092.96 166.361C1093.29 169.313 1093.47 172.579 1093.37 176.014C1093.23 179.443 1092.81 182.691 1092.27 185.614C1091.96 187.069 1091.68 188.455 1091.32 189.724C1091.14 190.359 1090.99 190.982 1090.81 191.57C1090.62 192.152 1090.44 192.711 1090.26 193.246C1089.94 194.323 1089.54 195.261 1089.23 196.093C1088.92 196.931 1088.61 197.636 1088.34 198.201C1088.09 198.742 1087.89 199.179 1087.74 199.51C1087.6 199.807 1087.51 199.965 1087.5 199.959C1087.49 199.953 1087.55 199.79 1087.67 199.481C1087.81 199.144 1087.99 198.695 1088.22 198.142C1088.46 197.566 1088.75 196.856 1089.04 196.017C1089.33 195.179 1089.71 194.236 1090.02 193.159C1090.19 192.623 1090.36 192.064 1090.54 191.482C1090.72 190.9 1090.86 190.277 1091.03 189.643C1091.39 188.373 1091.64 186.994 1091.95 185.544C1092.47 182.633 1092.88 179.402 1093.01 175.996C1093.12 172.585 1092.95 169.336 1092.64 166.396C1092.44 164.929 1092.28 163.538 1092.02 162.246C1091.9 161.599 1091.8 160.971 1091.67 160.377C1091.53 159.783 1091.4 159.212 1091.27 158.665C1091.04 157.571 1090.73 156.604 1090.5 155.748C1090.27 154.887 1090.03 154.159 1089.83 153.565C1089.64 152.995 1089.5 152.541 1089.39 152.191C1089.28 151.889 1089.23 151.72 1089.24 151.714Z" fill="#263238"/>
<path d="M1114.75 142.132C1114.75 142.132 1114.75 142.19 1114.74 142.295C1114.72 142.423 1114.69 142.58 1114.66 142.766C1114.58 143.18 1114.49 143.797 1114.33 144.577C1114 146.143 1113.45 148.396 1112.6 151.132C1111.75 153.868 1110.59 157.076 1109.21 160.598C1107.83 164.126 1106.24 167.963 1104.73 172.05C1103.19 176.131 1102.01 180.113 1100.9 183.728C1099.8 187.343 1098.75 190.592 1097.75 193.276C1096.75 195.96 1095.79 198.073 1095.05 199.505C1094.7 200.227 1094.39 200.762 1094.19 201.135C1094.1 201.304 1094.01 201.438 1093.95 201.554C1093.9 201.647 1093.86 201.694 1093.86 201.688C1093.85 201.682 1093.87 201.636 1093.91 201.537C1093.97 201.42 1094.04 201.275 1094.12 201.106C1094.3 200.728 1094.59 200.18 1094.92 199.447C1095.6 198.003 1096.53 195.884 1097.49 193.194C1098.47 190.51 1099.49 187.262 1100.57 183.641C1101.67 180.025 1102.84 176.026 1104.38 171.933C1105.9 167.835 1107.5 163.998 1108.89 160.482C1110.28 156.971 1111.47 153.781 1112.35 151.062C1113.23 148.344 1113.81 146.108 1114.19 144.554C1114.37 143.779 1114.49 143.168 1114.59 142.761C1114.64 142.574 1114.67 142.423 1114.7 142.295C1114.72 142.184 1114.74 142.132 1114.75 142.132Z" fill="#263238"/>
<path d="M1062.24 134.086C1061.17 133.026 1059.39 134.132 1059.83 135.576C1060.28 137.037 1060.96 138.924 1061.97 141.049C1064.31 145.997 1071.18 163.759 1074.41 173.516C1077.63 183.268 1082.16 201.467 1082.16 201.467L1089.03 200.355C1089.03 200.355 1082.74 170.454 1076.6 159.678C1071.66 151.027 1066.73 138.522 1062.24 134.086Z" fill="#455A64"/>
<path d="M1076.29 179.617C1076.31 179.611 1076.43 179.903 1076.64 180.438C1076.85 180.974 1077.12 181.76 1077.43 182.732C1078.06 184.682 1078.84 187.407 1079.62 190.434C1080.4 193.461 1081.05 196.215 1081.5 198.218C1081.7 199.161 1081.88 199.958 1082.01 200.587C1082.13 201.146 1082.18 201.46 1082.15 201.466C1082.13 201.472 1082.03 201.169 1081.87 200.616C1081.7 199.993 1081.49 199.207 1081.24 198.276C1080.71 196.221 1080.02 193.514 1079.26 190.521C1078.48 187.5 1077.74 184.77 1077.17 182.802C1076.91 181.876 1076.68 181.096 1076.5 180.473C1076.34 179.932 1076.26 179.623 1076.29 179.617Z" fill="#263238"/>
<path d="M1085.61 200.914C1085.61 200.914 1085.59 200.85 1085.57 200.733C1085.55 200.594 1085.52 200.413 1085.49 200.192C1085.42 199.72 1085.36 199.016 1085.21 198.119C1084.96 196.32 1084.51 193.736 1083.77 190.574C1083.04 187.413 1081.97 183.699 1080.56 179.647C1079.15 175.595 1077.38 171.217 1075.37 166.688C1071.33 157.635 1067.29 149.607 1064.64 143.669C1063.3 140.705 1062.26 138.289 1061.57 136.607C1061.22 135.769 1060.97 135.105 1060.8 134.663C1060.72 134.453 1060.66 134.29 1060.61 134.15C1060.56 134.034 1060.55 133.976 1060.55 133.97C1060.56 133.97 1060.59 134.022 1060.64 134.133C1060.7 134.267 1060.78 134.43 1060.86 134.628C1061.07 135.093 1061.34 135.734 1061.7 136.543C1062.43 138.208 1063.5 140.606 1064.86 143.552C1067.58 149.456 1071.65 157.466 1075.7 166.531C1077.71 171.066 1079.47 175.461 1080.87 179.531C1082.26 183.6 1083.31 187.332 1084.02 190.51C1084.73 193.683 1085.14 196.285 1085.35 198.096C1085.47 198.998 1085.51 199.703 1085.56 200.18C1085.58 200.401 1085.59 200.582 1085.61 200.722C1085.62 200.85 1085.62 200.914 1085.61 200.914Z" fill="#263238"/>
<path d="M1089.03 200.36C1089.01 200.366 1088.93 199.953 1088.8 199.213C1088.67 198.41 1088.48 197.351 1088.27 196.07C1087.79 193.421 1087.07 189.771 1086.03 185.8C1085 181.824 1083.84 178.284 1082.95 175.746C1082.51 174.524 1082.15 173.511 1081.87 172.742C1081.62 172.032 1081.49 171.636 1081.51 171.63C1081.53 171.619 1081.71 171.997 1082.01 172.696C1082.31 173.388 1082.72 174.401 1083.2 175.665C1084.15 178.185 1085.35 181.725 1086.39 185.713C1087.43 189.701 1088.12 193.368 1088.53 196.035C1088.72 197.368 1088.88 198.451 1088.95 199.202C1089.02 199.941 1089.06 200.355 1089.03 200.36Z" fill="#263238"/>
<path d="M1103.15 199.376H1076.31V231.902H1103.15V199.376Z" fill="#FF6652"/>
<g opacity="0.3">
<path opacity="0.3" d="M1103.15 199.376H1076.31V231.902H1103.15V199.376Z" fill="black"/>
</g>
<path d="M1094.58 199.376H1070.78V231.902H1094.58V199.376Z" fill="#FF6652"/>
<path d="M745.796 188.071C741.226 185.16 734.89 185.102 730.444 188.199C726.22 191.139 724.078 196.483 724.265 201.606C724.453 206.729 726.945 212.988 731.614 215.683L745.304 215.631C749.675 212.429 752.635 207.277 752.84 201.88C753.039 196.477 750.365 190.982 745.796 188.071Z" fill="#455A64"/>
<path d="M739.05 216.173C739.021 216.173 738.991 215.753 738.962 215.002C738.939 214.164 738.91 213.093 738.869 211.806C738.798 209.111 738.693 205.385 738.512 201.269C738.33 197.153 738.108 193.433 737.938 190.743C737.862 189.462 737.798 188.391 737.745 187.553C737.704 186.796 737.699 186.383 737.728 186.377C737.757 186.377 737.821 186.79 737.915 187.535C738.009 188.286 738.12 189.375 738.243 190.72C738.488 193.41 738.763 197.135 738.945 201.251C739.126 205.367 739.185 209.099 739.173 211.8C739.167 213.151 739.149 214.246 739.126 214.997C739.109 215.753 739.079 216.173 739.05 216.173Z" fill="#263238"/>
<path d="M725.641 200.442C725.629 200.564 724.886 200.599 723.979 200.523C723.072 200.448 722.341 200.29 722.353 200.174C722.364 200.052 723.107 200.017 724.014 200.093C724.921 200.162 725.652 200.32 725.641 200.442Z" fill="#263238"/>
<path d="M725.898 195.843C725.851 195.953 725.207 195.773 724.464 195.447C723.721 195.121 723.16 194.766 723.206 194.655C723.253 194.545 723.897 194.719 724.64 195.051C725.383 195.377 725.944 195.732 725.898 195.843Z" fill="#263238"/>
<path d="M728.273 192.431C728.209 192.53 727.489 192.193 726.74 191.575C725.991 190.958 725.517 190.318 725.605 190.236C725.693 190.155 726.29 190.644 727.015 191.238C727.741 191.837 728.337 192.326 728.273 192.431Z" fill="#263238"/>
<path d="M730.666 189.212C730.555 189.258 730.21 188.723 729.894 188.012C729.578 187.302 729.408 186.685 729.519 186.639C729.63 186.592 729.976 187.128 730.292 187.838C730.607 188.548 730.771 189.165 730.666 189.212Z" fill="#263238"/>
<path d="M734.416 186.93C734.311 186.982 733.936 186.406 733.691 185.614C733.439 184.822 733.422 184.141 733.539 184.118C733.662 184.095 733.866 184.717 734.106 185.48C734.34 186.249 734.527 186.877 734.416 186.93Z" fill="#263238"/>
<path d="M740.671 184.35C740.782 184.391 740.717 184.88 740.513 185.439C740.314 186.004 740.056 186.423 739.945 186.388C739.834 186.347 739.898 185.858 740.103 185.299C740.302 184.735 740.559 184.31 740.671 184.35Z" fill="#263238"/>
<path d="M745.316 186.335C745.398 186.422 745.1 186.83 744.649 187.243C744.199 187.657 743.771 187.919 743.69 187.831C743.608 187.744 743.906 187.336 744.357 186.923C744.801 186.51 745.234 186.248 745.316 186.335Z" fill="#263238"/>
<path d="M749.4 188.962C749.47 189.061 749.107 189.422 748.587 189.771C748.072 190.12 747.598 190.318 747.528 190.219C747.458 190.12 747.82 189.76 748.341 189.41C748.862 189.061 749.336 188.863 749.4 188.962Z" fill="#263238"/>
<path d="M752.301 192.873C752.348 192.984 751.775 193.333 751.026 193.653C750.271 193.973 749.622 194.142 749.575 194.032C749.528 193.921 750.101 193.572 750.856 193.252C751.605 192.937 752.255 192.763 752.301 192.873Z" fill="#263238"/>
<path d="M753.448 197.147C753.466 197.263 752.881 197.438 752.149 197.525C751.418 197.618 750.809 197.589 750.798 197.473C750.78 197.356 751.365 197.181 752.097 197.094C752.828 197.001 753.431 197.024 753.448 197.147Z" fill="#263238"/>
<path d="M754.039 202.403C753.992 202.514 753.372 202.351 752.652 202.042C751.933 201.734 751.395 201.39 751.441 201.28C751.488 201.169 752.108 201.332 752.828 201.641C753.548 201.949 754.092 202.293 754.039 202.403Z" fill="#263238"/>
<path d="M753.519 206.915C753.478 207.026 752.694 206.84 751.875 206.304C751.05 205.774 750.564 205.134 750.652 205.052C750.74 204.965 751.336 205.437 752.114 205.937C752.887 206.444 753.56 206.799 753.519 206.915Z" fill="#263238"/>
<path d="M751.155 211.02C751.084 211.113 750.458 210.746 749.862 210.106C749.259 209.466 748.943 208.819 749.037 208.755C749.136 208.686 749.604 209.198 750.178 209.815C750.757 210.426 751.237 210.927 751.155 211.02Z" fill="#263238"/>
<path d="M728.747 211.504C728.806 211.609 728.145 212.057 727.285 212.505C726.419 212.953 725.676 213.227 725.617 213.122C725.559 213.017 726.22 212.569 727.08 212.121C727.946 211.673 728.689 211.399 728.747 211.504Z" fill="#263238"/>
<path d="M726.699 207.789C726.752 207.899 726.225 208.243 725.523 208.557C724.827 208.872 724.218 209.041 724.166 208.93C724.113 208.819 724.64 208.476 725.342 208.161C726.044 207.847 726.646 207.678 726.699 207.789Z" fill="#263238"/>
<path d="M725.196 204.5C725.213 204.616 724.564 204.808 723.751 204.925C722.937 205.041 722.259 205.035 722.241 204.919C722.224 204.802 722.873 204.61 723.686 204.494C724.499 204.377 725.178 204.377 725.196 204.5Z" fill="#263238"/>
<path d="M730.128 202.683C730.163 202.794 729.531 203.091 728.689 203.184C727.846 203.283 727.168 203.131 727.173 203.015C727.179 202.893 727.84 202.84 728.636 202.747C729.438 202.666 730.093 202.567 730.128 202.683Z" fill="#263238"/>
<path d="M734.229 198.626C734.264 198.736 733.761 198.992 733.082 199.056C732.404 199.126 731.865 198.975 731.877 198.859C731.889 198.736 732.41 198.69 733.041 198.626C733.673 198.562 734.194 198.509 734.229 198.626Z" fill="#263238"/>
<path d="M735.013 195.371C734.972 195.488 734.428 195.4 733.796 195.185C733.164 194.97 732.685 194.702 732.726 194.585C732.767 194.475 733.311 194.556 733.943 194.772C734.574 194.993 735.054 195.261 735.013 195.371Z" fill="#263238"/>
<path d="M736.517 192.082C736.435 192.164 736.06 191.919 735.791 191.459C735.522 190.999 735.499 190.557 735.61 190.522C735.727 190.487 735.931 190.831 736.165 191.238C736.405 191.657 736.604 192.001 736.517 192.082Z" fill="#263238"/>
<path d="M734.703 205.547C734.733 205.664 734.259 205.879 733.65 206.025C733.299 206.112 732.977 206.153 732.767 206.153L732.679 205.897C732.837 205.868 732.936 205.873 732.96 205.92C732.977 205.966 732.919 206.048 732.79 206.141L732.702 205.885C732.89 205.786 733.194 205.681 733.545 205.594C734.159 205.46 734.674 205.431 734.703 205.547Z" fill="#263238"/>
<path d="M735.551 211.317C735.598 211.427 734.995 211.771 734.211 212.073C733.427 212.382 732.754 212.539 732.708 212.429C732.661 212.318 733.263 211.98 734.047 211.672C734.831 211.363 735.504 211.206 735.551 211.317Z" fill="#263238"/>
<path d="M730.918 208.756C730.959 208.872 730.555 209.111 730.023 209.285C729.49 209.466 729.028 209.518 728.987 209.408C728.946 209.291 729.35 209.058 729.882 208.878C730.415 208.697 730.877 208.639 730.918 208.756Z" fill="#263238"/>
<path d="M731.269 197.019C731.239 197.135 730.543 197.065 729.736 196.78C728.928 196.495 728.343 196.116 728.396 196.006C728.449 195.895 729.098 196.093 729.882 196.367C730.666 196.646 731.298 196.897 731.269 197.019Z" fill="#263238"/>
<path d="M742.479 195.743C742.543 195.842 742.151 196.221 741.601 196.582C741.051 196.943 740.548 197.152 740.483 197.053C740.419 196.954 740.811 196.576 741.361 196.215C741.911 195.854 742.414 195.639 742.479 195.743Z" fill="#263238"/>
<path d="M743.093 201.531C743.116 201.647 742.707 201.833 742.169 201.944C741.636 202.055 741.186 202.049 741.156 201.932C741.133 201.816 741.543 201.63 742.081 201.519C742.613 201.408 743.064 201.414 743.093 201.531Z" fill="#263238"/>
<path d="M743.8 208.045C743.748 208.156 743.157 207.987 742.472 207.673C741.788 207.358 741.279 207.015 741.331 206.904C741.384 206.793 741.975 206.962 742.659 207.277C743.338 207.591 743.847 207.935 743.8 208.045Z" fill="#263238"/>
<path d="M742.297 214.379C742.204 214.455 741.817 214.141 741.437 213.681C741.057 213.215 740.823 212.778 740.911 212.703C741.004 212.627 741.39 212.941 741.771 213.401C742.157 213.867 742.391 214.304 742.297 214.379Z" fill="#263238"/>
<path d="M741.993 191.477C742.069 191.57 741.812 191.89 741.373 192.106C740.934 192.327 740.525 192.338 740.495 192.222C740.46 192.106 740.782 191.913 741.174 191.716C741.572 191.523 741.917 191.384 741.993 191.477Z" fill="#263238"/>
<path d="M747.486 197.315C747.527 197.426 747.018 197.706 746.322 197.799C745.626 197.898 745.064 197.764 745.07 197.647C745.076 197.525 745.614 197.455 746.264 197.368C746.907 197.286 747.445 197.205 747.486 197.315Z" fill="#263238"/>
<path d="M746.393 192.076C746.445 192.181 745.942 192.542 745.222 192.769C744.503 192.996 743.883 192.996 743.865 192.879C743.848 192.757 744.403 192.571 745.088 192.355C745.772 192.134 746.34 191.965 746.393 192.076Z" fill="#263238"/>
<path d="M748.686 205.437C748.686 205.553 747.82 205.629 746.778 205.443C745.737 205.257 744.953 204.884 744.994 204.773C745.035 204.657 745.848 204.837 746.854 205.012C747.861 205.198 748.686 205.315 748.686 205.437Z" fill="#263238"/>
<path d="M746.644 213.052C746.574 213.145 745.936 212.772 745.304 212.138C744.667 211.503 744.298 210.869 744.392 210.799C744.491 210.723 745 211.218 745.614 211.829C746.223 212.446 746.72 212.959 746.644 213.052Z" fill="#263238"/>
<path d="M737.669 185.876C737.733 185.969 735.926 186.697 733.837 188.891C731.748 191.034 729.595 194.818 729.063 199.388C728.811 201.658 729.028 203.859 729.35 205.821C729.689 207.783 730.145 209.529 730.561 210.985C730.982 212.44 731.368 213.605 731.625 214.408C731.883 215.217 732.023 215.666 731.994 215.677C731.965 215.689 731.778 215.258 731.467 214.466C731.157 213.675 730.73 212.522 730.268 211.072C729.812 209.623 729.326 207.876 728.958 205.891C728.606 203.912 728.372 201.676 728.63 199.341C729.174 194.667 731.426 190.813 733.615 188.682C734.703 187.599 735.727 186.877 736.476 186.458C736.838 186.231 737.148 186.109 737.353 186.004C737.552 185.911 737.663 185.864 737.669 185.876Z" fill="#263238"/>
<path d="M743.631 215.957C743.537 215.91 744.614 214.257 745.597 211.288C746.609 208.348 747.446 203.999 746.773 199.277C746.457 196.92 745.772 194.736 744.912 192.874C744.017 191.034 742.865 189.526 741.741 188.472C740.577 187.448 739.43 186.86 738.629 186.516C737.821 186.179 737.336 186.103 737.342 186.068C737.342 186.056 737.464 186.062 737.698 186.097C737.927 186.138 738.266 186.213 738.687 186.365C739.524 186.668 740.706 187.221 741.94 188.245C743.14 189.311 744.327 190.813 745.275 192.705C746.176 194.603 746.884 196.821 747.206 199.219C747.89 204.034 746.989 208.447 745.889 211.392C745.644 212.143 745.322 212.79 745.088 213.366C744.807 213.925 744.573 214.414 744.362 214.798C743.912 215.555 743.654 215.968 743.631 215.957Z" fill="#263238"/>
<path d="M726.699 214.926H750.792L750.938 219.723H726.699V214.926Z" fill="#FF6652"/>
<path d="M728.747 217.325L730.128 231.973H747.744L749.16 217.488L728.747 217.325Z" fill="#FF6652"/>
<path d="M750.938 219.782C750.938 219.904 745.515 219.997 738.822 219.997C732.129 219.997 726.705 219.898 726.705 219.782C726.705 219.665 732.129 219.566 738.822 219.566C745.515 219.566 750.938 219.66 750.938 219.782Z" fill="#263238"/>
<path d="M748.493 224.241C748.516 224.252 748.352 224.59 747.978 225.155C747.598 225.714 747.001 226.505 746.112 227.349L746 227.454L745.889 227.338C744.731 226.127 743.134 224.642 741.168 223.228L741.437 223.216C740.764 223.804 740.062 224.415 739.342 225.044C738.488 225.783 737.657 226.505 736.868 227.186L736.733 227.303L736.598 227.186C735.101 225.929 733.732 224.788 732.573 223.821L732.807 223.798C731.976 224.805 731.28 225.655 730.724 226.325C730.221 226.919 729.935 227.233 729.905 227.216C729.882 227.198 730.122 226.837 730.578 226.214C731.099 225.521 731.76 224.642 732.544 223.6L732.643 223.466L732.778 223.577C733.954 224.526 735.341 225.644 736.862 226.872L736.587 226.878C737.377 226.191 738.202 225.469 739.05 224.724C739.77 224.095 740.477 223.49 741.15 222.902L741.279 222.791L741.414 222.89C743.397 224.34 744.982 225.877 746.112 227.134L745.889 227.128C747.685 225.516 748.423 224.194 748.493 224.241Z" fill="#263238"/>
<path d="M1037.99 227.954H782.947C778.237 227.954 774.423 224.159 774.423 219.472V57.3953C774.423 52.7088 778.237 48.9131 782.947 48.9131H1037.99C1042.7 48.9131 1046.51 52.7088 1046.51 57.3953V219.472C1046.51 224.153 1042.7 227.954 1037.99 227.954Z" fill="#455A64"/>
<path d="M1049.89 232.053H775.932C770.181 232.053 765.518 227.413 765.518 221.69V216.387H1060.3V221.69C1060.3 227.419 1055.64 232.053 1049.89 232.053Z" fill="#455A64"/>
<path d="M883.648 214.71L887.305 220.503H938.779L942.172 214.71H883.648Z" fill="#263238"/>
<path d="M1044.17 214.71C1044.17 214.809 983.781 214.884 909.303 214.884C834.801 214.884 774.423 214.809 774.423 214.71C774.423 214.611 834.801 214.535 909.303 214.535C983.781 214.535 1044.17 214.611 1044.17 214.71Z" fill="#263238"/>
<path d="M1035.74 209.977H784.135C783.076 209.977 782.222 209.121 782.222 208.073V61.1156C782.222 60.0619 783.082 59.2119 784.135 59.2119H1035.75C1036.81 59.2119 1037.66 60.0677 1037.66 61.1156V208.073C1037.65 209.121 1036.8 209.977 1035.74 209.977Z" fill="#EBEBEB"/>
<path d="M1037.38 210.198H781.941L782.216 70.4766H1037.38V210.198Z" fill="white"/>
<path d="M803.167 65.0337C803.167 66.1573 802.254 67.0655 801.125 67.0655C799.996 67.0655 799.083 66.1573 799.083 65.0337C799.083 63.9101 799.996 63.002 801.125 63.002C802.254 63.002 803.167 63.9101 803.167 65.0337Z" fill="#263238"/>
<path d="M790.805 65.0337C790.805 66.1573 789.892 67.0655 788.763 67.0655C787.634 67.0655 786.721 66.1573 786.721 65.0337C786.721 63.9101 787.634 63.002 788.763 63.002C789.892 63.002 790.805 63.9101 790.805 65.0337Z" fill="#263238"/>
<path d="M796.737 65.0337C796.737 66.1573 795.824 67.0655 794.695 67.0655C793.566 67.0655 792.653 66.1573 792.653 65.0337C792.653 63.9101 793.566 63.002 794.695 63.002C795.824 63.002 796.737 63.9101 796.737 65.0337Z" fill="#263238"/>
<path d="M1037.65 196.704H781.941V210.199H1037.65V196.704Z" fill="#263238"/>
<path d="M791.606 205.011V205.442H789.57V205.098L790.67 204.062C790.939 203.806 790.986 203.649 790.986 203.492C790.986 203.241 790.81 203.096 790.471 203.096C790.202 203.096 789.98 203.189 789.822 203.381L789.465 203.107C789.675 202.822 790.062 202.653 790.512 202.653C791.115 202.653 791.501 202.956 791.501 203.445C791.501 203.713 791.425 203.957 791.045 204.313L790.307 205.011H791.606Z" fill="white"/>
<path d="M791.881 203.648C791.881 203.45 792.027 203.322 792.203 203.322C792.378 203.322 792.525 203.45 792.525 203.648C792.525 203.835 792.378 203.974 792.203 203.974C792.027 203.974 791.881 203.84 791.881 203.648ZM791.881 205.144C791.881 204.947 792.027 204.818 792.203 204.818C792.378 204.818 792.525 204.947 792.525 205.144C792.525 205.331 792.378 205.47 792.203 205.47C792.027 205.47 791.881 205.337 791.881 205.144Z" fill="white"/>
<path d="M793.812 202.694V205.442H793.297V203.119H792.712V202.688H793.812V202.694Z" fill="white"/>
<path d="M796.825 204.819H796.333V205.442H795.836V204.819H794.321V204.464L795.684 202.694H796.234L794.952 204.388H795.859V203.835H796.339V204.388H796.83V204.819H796.825Z" fill="white"/>
<path d="M1010.93 203.719H801.336V204.668H1010.93V203.719Z" fill="white"/>
<path d="M866.676 202.7H801.178V205.238H866.676V202.7Z" fill="#FF6652"/>
<path d="M868.794 204.196C868.794 205.949 867.366 207.369 865.605 207.369C863.844 207.369 862.417 205.949 862.417 204.196C862.417 202.444 863.844 201.023 865.605 201.023C867.366 201.023 868.794 202.444 868.794 204.196Z" fill="#FF6652"/>
<path d="M1016.21 204.167C1016.21 204.714 1015.76 205.058 1015.19 205.058C1014.44 205.058 1014 204.575 1014 203.69C1014 202.747 1014.55 202.229 1015.35 202.229C1015.63 202.229 1015.89 202.287 1016.08 202.403L1015.89 202.787C1015.74 202.688 1015.56 202.654 1015.36 202.654C1014.84 202.654 1014.51 202.974 1014.51 203.602V203.608C1014.68 203.416 1014.95 203.323 1015.25 203.323C1015.8 203.323 1016.21 203.655 1016.21 204.167ZM1015.71 204.19C1015.71 203.905 1015.49 203.725 1015.16 203.725C1014.82 203.725 1014.6 203.923 1014.6 204.196C1014.6 204.452 1014.8 204.662 1015.17 204.662C1015.49 204.656 1015.71 204.476 1015.71 204.19Z" fill="white"/>
<path d="M1016.46 203.223C1016.46 203.026 1016.6 202.897 1016.78 202.897C1016.95 202.897 1017.1 203.026 1017.1 203.223C1017.1 203.41 1016.95 203.55 1016.78 203.55C1016.6 203.55 1016.46 203.41 1016.46 203.223ZM1016.46 204.72C1016.46 204.522 1016.6 204.394 1016.78 204.394C1016.95 204.394 1017.1 204.522 1017.1 204.72C1017.1 204.906 1016.95 205.046 1016.78 205.046C1016.6 205.046 1016.46 204.906 1016.46 204.72Z" fill="white"/>
<path d="M1017.43 203.643C1017.43 202.741 1017.93 202.229 1018.59 202.229C1019.25 202.229 1019.75 202.741 1019.75 203.643C1019.75 204.546 1019.25 205.058 1018.59 205.058C1017.93 205.058 1017.43 204.546 1017.43 203.643ZM1019.22 203.643C1019.22 202.98 1018.97 202.671 1018.59 202.671C1018.21 202.671 1017.95 202.98 1017.95 203.643C1017.95 204.307 1018.21 204.615 1018.59 204.615C1018.97 204.615 1019.22 204.307 1019.22 203.643Z" fill="white"/>
<path d="M1020.08 203.643C1020.08 202.741 1020.58 202.229 1021.24 202.229C1021.9 202.229 1022.4 202.741 1022.4 203.643C1022.4 204.546 1021.9 205.058 1021.24 205.058C1020.58 205.058 1020.08 204.546 1020.08 203.643ZM1021.88 203.643C1021.88 202.98 1021.62 202.671 1021.24 202.671C1020.87 202.671 1020.61 202.98 1020.61 203.643C1020.61 204.307 1020.87 204.615 1021.24 204.615C1021.62 204.615 1021.88 204.307 1021.88 203.643Z" fill="white"/>
<path d="M1026.86 203.474H1025.91V200.732H1028.65V201.681H1026.86V203.474Z" fill="white"/>
<path d="M1028.66 207.049H1025.9V204.318H1026.85V206.1H1028.66V207.049Z" fill="white"/>
<path d="M1033.04 207.049H1030.29V206.1H1032.08V204.307H1033.04V207.049Z" fill="white"/>
<path d="M1033.04 203.469H1032.09V201.681H1030.29V200.732H1033.04V203.469Z" fill="white"/>
<path d="M816.975 78.7842H801.915L794.391 91.755L801.915 104.732H816.975L824.498 91.755L816.975 78.7842Z" fill="#EBEBEB"/>
<path d="M803.144 94.2995C802.471 93.5601 801.792 92.8091 801.301 91.9359C800.809 91.0626 800.517 90.0496 800.68 89.0599C800.774 88.4836 801.02 87.9363 801.061 87.3542C801.113 86.5508 800.774 85.7124 801.061 84.9614C801.505 83.7854 803.097 83.605 804.062 82.7958C804.811 82.1612 805.18 81.1366 806.005 80.6068C806.724 80.1411 807.654 80.1527 808.503 80.2749C809.351 80.3972 810.211 80.6068 811.06 80.4962C811.668 80.4147 812.235 80.1702 812.832 80.0246C813.429 79.8791 814.09 79.8383 814.617 80.1469C815.143 80.4554 815.442 81.2006 815.096 81.7013C816.085 81.2472 817.337 82.0156 817.606 83.0577C817.875 84.1056 817.337 85.2351 816.501 85.9278C815.664 86.6206 814.582 86.9408 813.517 87.1388C810.498 87.7035 807.216 87.3833 804.612 85.759" fill="#263238"/>
<path d="M817.103 97.501C817.004 95.6438 816.477 91.8364 815.968 88.3958C815.418 84.6932 812.101 82.0385 808.351 82.2888L807.976 82.3121C803.975 82.8127 802.167 86.4746 802.781 90.445L803.957 104.737H813.728C813.728 104.737 813.499 102.228 813.494 102.205C813.494 102.199 817.314 101.343 817.103 97.501Z" fill="#FFBE9D"/>
<path d="M813.494 102.147C813.494 102.147 811.066 102.508 808.363 101.059C808.363 101.059 809.737 103.742 813.57 103.143L813.494 102.147Z" fill="#EB996E"/>
<path d="M815.267 90.3278C815.203 90.4035 814.764 90.1241 814.173 90.1648C813.582 90.1998 813.167 90.5316 813.096 90.4617C813.061 90.4326 813.126 90.2987 813.301 90.1474C813.477 89.996 813.787 89.8446 814.155 89.8213C814.524 89.7981 814.846 89.9145 815.033 90.0426C815.226 90.1648 815.296 90.2929 815.267 90.3278Z" fill="#263238"/>
<path d="M809.44 90.8288C809.375 90.9045 808.936 90.6251 808.345 90.6658C807.755 90.7007 807.339 91.0326 807.269 90.9627C807.234 90.9336 807.298 90.7997 807.48 90.6483C807.655 90.497 807.965 90.3456 808.334 90.3223C808.702 90.299 809.024 90.4155 809.211 90.5436C809.399 90.6658 809.469 90.7939 809.44 90.8288Z" fill="#263238"/>
<path d="M811.885 95.0606C811.879 95.0257 812.242 94.9383 812.839 94.8219C812.991 94.7986 813.131 94.7579 813.149 94.6531C813.178 94.5425 813.102 94.3853 813.02 94.2106C812.85 93.8555 812.681 93.4829 812.493 93.0928C811.762 91.4977 811.218 90.1878 811.282 90.1587C811.347 90.1296 811.996 91.3987 812.727 92.9939C812.903 93.3898 813.073 93.7623 813.236 94.1233C813.307 94.2921 813.418 94.4784 813.353 94.7113C813.318 94.8277 813.213 94.915 813.119 94.95C813.026 94.9849 812.938 94.9907 812.862 95.0024C812.265 95.0664 811.891 95.0955 811.885 95.0606Z" fill="#263238"/>
<path d="M809.434 88.4995C809.387 88.6625 808.79 88.6276 808.1 88.7557C807.403 88.8721 806.859 89.1108 806.754 88.9769C806.707 88.9128 806.795 88.7557 807.011 88.581C807.228 88.4122 807.573 88.2375 807.988 88.1677C808.404 88.092 808.79 88.1327 809.053 88.2201C809.317 88.3074 809.457 88.4238 809.434 88.4995Z" fill="#263238"/>
<path d="M814.933 88.6341C814.839 88.7738 814.418 88.6632 813.927 88.6865C813.435 88.6981 813.026 88.8378 812.92 88.7039C812.874 88.6399 812.932 88.5002 813.102 88.3604C813.271 88.2207 813.564 88.0985 813.903 88.0868C814.243 88.0752 814.541 88.18 814.722 88.3022C814.904 88.4303 814.974 88.5642 814.933 88.6341Z" fill="#263238"/>
<path d="M803.29 93.263C803.22 93.2397 800.581 92.6576 800.844 95.2832C801.108 97.9029 803.963 97.053 803.957 96.9773C803.957 96.8958 803.29 93.263 803.29 93.263Z" fill="#FFBE9D"/>
<path d="M802.787 96.1155C802.775 96.1096 802.746 96.1504 802.67 96.197C802.599 96.2377 802.471 96.2726 802.324 96.2377C802.038 96.162 801.757 95.7487 801.698 95.2771C801.669 95.0384 801.698 94.8056 801.763 94.6134C801.821 94.4155 801.938 94.27 802.073 94.2292C802.207 94.1826 802.319 94.2583 802.354 94.3282C802.395 94.398 802.383 94.4504 802.4 94.4563C802.406 94.4621 802.453 94.4097 802.418 94.2991C802.4 94.2467 802.365 94.1885 802.295 94.1477C802.225 94.1011 802.131 94.0837 802.032 94.1069C801.833 94.1419 801.663 94.3456 801.593 94.561C801.511 94.7764 801.47 95.0384 801.505 95.3062C801.576 95.8302 801.897 96.3017 802.289 96.3716C802.476 96.4007 802.629 96.3309 802.705 96.261C802.792 96.1795 802.798 96.1155 802.787 96.1155Z" fill="#EB996E"/>
<path d="M815.775 84.8039C815.594 85.846 813.47 86.8008 811.703 86.7542C810.077 86.7077 809.275 85.9043 808.093 85.3337C807.345 84.9728 807.345 84.9728 806.332 85.1358C805.513 85.2697 805.086 86.2303 804.624 86.9172C805.502 88.8209 805.145 91.0332 804.776 93.0941C804.735 93.3211 804.683 93.5657 804.507 93.7228C804.209 93.9848 803.729 93.8276 803.442 93.5598C802.974 93.1348 802.764 92.5061 802.611 91.8948C802.26 90.5034 802.132 89.048 802.348 87.6333C802.57 86.2186 803.156 84.8389 804.133 83.7851C805.35 82.4636 807.122 81.701 808.924 81.6078C810.72 81.5147 812.528 82.0677 814.032 83.0516C814.722 83.5115 815.377 84.0704 815.775 84.8039Z" fill="#263238"/>
<path d="M812.277 96.3898C811.826 96.1802 811.382 95.9764 810.931 95.7668C810.855 95.7319 810.773 95.697 810.685 95.7028C810.592 95.7144 810.516 95.7843 810.451 95.86C810.141 96.2326 810.059 96.8031 810.305 97.2281C810.545 97.6531 811.112 97.8743 811.563 97.688C812.037 97.4901 812.271 96.9428 812.306 96.4305L812.277 96.3898Z" fill="#EB996E"/>
<path d="M811.609 97.7864C811.633 97.8097 811.329 98.0018 810.82 97.8563C810.574 97.7806 810.293 97.5943 810.123 97.2916C809.948 96.9947 809.884 96.5755 810.036 96.1971C810.106 96.0108 810.223 95.842 810.363 95.7139C810.433 95.6498 810.504 95.5916 810.591 95.5451C810.679 95.481 810.861 95.4752 810.942 95.5218C811.247 95.6906 811.457 95.8361 811.662 95.97C812.054 96.232 812.288 96.4067 812.265 96.4474C812.241 96.4824 811.972 96.3717 811.551 96.1563C811.305 96.0283 811.071 95.906 810.831 95.7837C810.773 95.7663 810.779 95.7663 810.726 95.7954C810.673 95.8303 810.609 95.8769 810.562 95.9293C810.457 96.0341 810.369 96.1622 810.316 96.3077C810.199 96.5988 810.24 96.919 810.369 97.1635C810.498 97.408 810.697 97.571 810.896 97.6583C811.299 97.8272 811.598 97.734 811.609 97.7864Z" fill="#263238"/>
<path d="M811.183 91.7556C811.153 91.7556 811.159 91.5111 811.036 91.1036C810.919 90.7019 810.638 90.1139 810.03 89.6656C809.439 89.2174 808.474 88.967 807.543 89.3163C806.619 89.6365 805.823 90.6146 805.835 91.7556C805.823 92.8967 806.619 93.8748 807.543 94.1949C808.474 94.5442 809.439 94.2939 810.03 93.8456C810.638 93.3974 810.925 92.8094 811.036 92.4077C811.159 92.0002 811.153 91.7556 811.183 91.7556C811.194 91.7556 811.2 91.8139 811.206 91.9303C811.212 92.0467 811.2 92.2214 811.153 92.4368C811.066 92.8676 810.802 93.508 810.159 94.0145C809.539 94.521 808.48 94.8237 807.444 94.4569C806.414 94.1193 805.513 93.0306 805.525 91.7556C805.513 90.4807 806.414 89.392 807.444 89.0544C808.485 88.6818 809.539 88.9845 810.159 89.4968C810.802 90.0033 811.066 90.6495 811.153 91.0745C811.2 91.2899 811.212 91.4646 811.206 91.581C811.2 91.6974 811.194 91.7556 811.183 91.7556Z" fill="#263238"/>
<path d="M817.753 91.4992C817.723 91.4992 817.723 91.2605 817.612 90.8646C817.501 90.4745 817.226 89.904 816.629 89.4674C816.056 89.0307 815.114 88.7921 814.207 89.1297C813.306 89.4383 812.534 90.393 812.546 91.505C812.534 92.6169 813.312 93.5659 814.207 93.8803C815.114 94.2179 816.056 93.9792 816.629 93.5426C817.226 93.106 817.501 92.5354 817.612 92.1454C817.729 91.7379 817.723 91.4992 817.753 91.4992C817.764 91.4992 817.77 91.5574 817.776 91.6738C817.782 91.7844 817.77 91.9533 817.729 92.1687C817.647 92.5878 817.39 93.2108 816.764 93.7114C816.161 94.2063 815.132 94.5032 814.114 94.1422C813.107 93.8104 812.23 92.7508 812.241 91.505C812.23 90.2591 813.107 89.1996 814.114 88.8677C815.126 88.5068 816.155 88.8037 816.764 89.2986C817.39 89.7934 817.647 90.4221 817.729 90.8413C817.776 91.0509 817.782 91.2197 817.776 91.3362C817.77 91.4409 817.764 91.4992 817.753 91.4992Z" fill="#263238"/>
<path d="M812.394 90.8998C812.335 90.958 812.072 90.7892 811.721 90.8008C811.37 90.8008 811.118 90.9813 811.054 90.9231C810.972 90.8823 811.218 90.5039 811.715 90.4923C812.212 90.4864 812.47 90.8532 812.394 90.8998Z" fill="#263238"/>
<path d="M805.847 91.3711C805.899 91.4409 805.384 91.9009 804.706 92.4073C804.027 92.9138 803.43 93.269 803.384 93.1991C803.331 93.1292 803.846 92.6693 804.524 92.1628C805.203 91.6563 805.794 91.3012 805.847 91.3711Z" fill="#263238"/>
<path d="M860.152 91.6269C860.152 91.7085 853.383 91.7783 845.034 91.7783C836.685 91.7783 829.916 91.7085 829.916 91.6269C829.916 91.5454 836.685 91.4756 845.034 91.4756C853.383 91.4756 860.152 91.5396 860.152 91.6269Z" fill="#263238"/>
<path d="M846.169 94.7767C846.169 94.8582 842.577 94.9281 838.142 94.9281C833.707 94.9281 830.115 94.8582 830.115 94.7767C830.115 94.6952 833.707 94.6253 838.142 94.6253C842.577 94.6195 846.169 94.6894 846.169 94.7767Z" fill="#263238"/>
<path d="M950.719 114.886C950.719 114.886 958.752 118.78 961.578 128.84C964.403 138.9 973.039 165.098 973.039 165.098C973.039 165.098 977.977 170.879 978.509 175.158C979.036 179.437 977.983 189.794 976.391 191.727C974.806 193.66 972.542 193.339 972.542 193.339L951.754 191.377L943.569 136.839L950.719 114.886Z" fill="#FF6652"/>
<path d="M881.986 113.936C881.986 113.936 867.125 118.576 863.422 122.611L875.591 178.947L875.398 196.721H945.863C945.863 195.842 946.495 137.706 946.495 137.706L950.73 114.891L925.684 110.501L920.746 106.642L892.88 108.045L888.644 112.26L881.986 113.936Z" fill="#FF6652"/>
<g opacity="0.3">
<path opacity="0.3" d="M887.632 162.81C887.416 162.332 887.106 161.814 886.591 161.71C885.742 161.535 885.175 162.536 884.888 163.345C882.601 169.796 879.57 175.728 875.633 181.329L875.451 189.98C879.558 186.539 883.607 182.854 886.228 178.191C888.837 173.528 889.844 167.677 887.632 162.81Z" fill="black"/>
</g>
<path d="M863.416 122.611C863.416 122.611 858.519 129.254 856.483 133.591C854.447 137.928 837.597 174.349 836.585 178.11C835.567 181.871 832.952 193.718 840.651 196.466H856.483L872.373 164.487L873.187 127.374L863.416 122.611Z" fill="#FF6652"/>
<path d="M857.501 173.365C857.478 173.388 857.15 173.057 856.419 172.643C855.693 172.236 854.558 171.764 853.095 171.444C852.364 171.287 851.551 171.159 850.673 171.106C849.796 171.054 848.854 171.066 847.894 171.287C845.975 171.712 844.068 172.923 842.564 174.617C841.037 176.311 840.101 178.314 839.545 180.2C838.984 182.092 838.744 183.868 838.592 185.352C838.445 186.842 838.387 188.053 838.334 188.892C838.311 189.282 838.287 189.602 838.276 189.858C838.258 190.079 838.247 190.196 838.235 190.196C838.223 190.196 838.217 190.079 838.217 189.858C838.217 189.602 838.217 189.282 838.223 188.892C838.241 188.053 838.264 186.837 838.381 185.335C838.504 183.838 838.726 182.045 839.276 180.118C839.82 178.203 840.774 176.148 842.336 174.413C843.875 172.678 845.841 171.438 847.836 171.013C848.83 170.792 849.802 170.786 850.691 170.856C851.58 170.92 852.405 171.06 853.142 171.234C854.622 171.584 855.757 172.09 856.477 172.538C856.834 172.765 857.097 172.969 857.261 173.121C857.425 173.272 857.507 173.359 857.501 173.365Z" fill="#263238"/>
<path d="M849.995 166.996C849.995 166.972 850.182 166.943 850.527 166.908C850.872 166.868 851.376 166.856 851.996 166.891C852.616 166.92 853.353 167.025 854.155 167.211C854.95 167.409 855.816 167.7 856.676 168.102C857.53 168.515 858.303 168.998 858.958 169.493C859.607 170 860.152 170.5 860.567 170.966C860.982 171.426 861.292 171.822 861.474 172.113C861.661 172.404 861.76 172.567 861.743 172.579C861.696 172.614 861.269 171.979 860.409 171.112C859.982 170.675 859.432 170.198 858.788 169.72C858.133 169.249 857.378 168.783 856.542 168.381C855.699 167.985 854.863 167.7 854.084 167.49C853.3 167.292 852.587 167.17 851.978 167.118C850.761 166.99 849.995 167.054 849.995 166.996Z" fill="#263238"/>
<path d="M864.306 165.243C864.3 165.266 864.042 165.243 863.574 165.185C863.106 165.126 862.428 165.057 861.591 164.992C859.918 164.864 857.589 164.835 855.038 165.138C852.493 165.447 850.235 166.023 848.638 166.535C847.836 166.791 847.193 167.018 846.754 167.187C846.315 167.35 846.063 167.432 846.057 167.414C846.052 167.397 846.28 167.275 846.713 167.077C847.14 166.873 847.772 166.617 848.573 166.331C850.165 165.761 852.435 165.144 855.009 164.835C857.577 164.533 859.935 164.597 861.614 164.777C862.457 164.864 863.135 164.969 863.598 165.062C864.06 165.167 864.311 165.225 864.306 165.243Z" fill="#263238"/>
<path d="M909.408 134.126C909.402 134.132 909.349 134.068 909.244 133.934C909.133 133.783 908.986 133.591 908.811 133.358C908.425 132.822 907.886 132.083 907.22 131.163C905.85 129.242 903.949 126.57 901.702 123.42L901.948 123.385C901.094 125.877 900.152 128.63 899.163 131.524L899.099 131.704L898.941 131.599C898.836 131.535 898.724 131.46 898.613 131.39C897.303 130.563 896.144 129.568 895.167 128.491C894.19 127.408 893.377 126.255 892.704 125.102C891.358 122.791 890.545 120.515 889.995 118.588C889.445 116.655 889.159 115.048 888.971 113.948C888.878 113.418 888.808 112.999 888.749 112.679C888.72 112.533 888.691 112.429 888.673 112.353C888.644 112.289 888.632 112.248 888.638 112.248C888.702 112.219 888.872 112.83 889.088 113.931C889.317 115.025 889.633 116.62 890.206 118.536C890.779 120.445 891.604 122.698 892.95 124.969C893.623 126.104 894.424 127.233 895.39 128.299C896.361 129.352 897.496 130.33 898.777 131.14C898.888 131.209 898.999 131.279 899.099 131.343L898.877 131.425C899.877 128.531 900.825 125.784 901.685 123.298L901.773 123.036L901.931 123.263C904.136 126.436 906.008 129.131 907.354 131.07C907.998 132.007 908.507 132.764 908.881 133.311C909.045 133.556 909.174 133.754 909.279 133.911C909.367 134.05 909.413 134.12 909.408 134.126Z" fill="#263238"/>
<g opacity="0.3">
<path opacity="0.3" d="M927.75 161.017C927.094 167.531 928.539 174.238 931.822 179.908C935.098 185.584 939.907 190.638 945.892 193.356C946.085 187.575 945.805 180.764 945.998 174.983L927.75 161.017Z" fill="black"/>
</g>
<path d="M927.088 153.408C927.088 153.408 924.531 154.112 926.45 159.334C928.369 164.551 929.007 164.236 930.288 169.121C931.57 173.999 933.062 178.459 935.302 181.218C937.543 183.978 945.863 189.601 945.863 189.601L953.328 182.598C953.328 182.598 952.099 177.376 952.392 173.83C952.685 170.285 953.433 161.581 953.328 160.097C953.223 158.612 951.62 155.003 951.62 155.003V152.535L947.782 140.78C947.782 140.78 945.646 139.826 944.903 143.22L943.622 139.616C943.622 139.616 941.598 139.296 941.065 143.435C940.533 147.574 941.492 153.303 941.492 153.303L940.427 160.522L938.83 165.401L937.444 165.61C937.444 165.61 935.355 165.045 934.214 161.133C933.062 157.227 929.967 152.558 927.088 153.408Z" fill="#FFBE9D"/>
<path d="M950.824 171.862C950.818 171.862 950.806 171.769 950.789 171.595C950.777 171.391 950.76 171.135 950.736 170.814C950.695 170.104 950.643 169.12 950.578 167.892C950.461 165.359 950.303 161.832 950.116 157.716L950.151 157.803C949.806 157.395 949.198 157.273 948.642 157.413C948.074 157.547 947.571 157.896 947.255 158.42C946.606 159.462 946.565 160.824 946.366 162.14C945.962 165.115 945.576 167.944 945.225 170.529C945.049 171.816 944.862 173.044 944.605 174.179C944.359 175.315 944.014 176.351 943.68 177.277C943.353 178.202 943.06 179.04 942.879 179.797C942.697 180.554 942.621 181.218 942.639 181.765C942.662 182.86 942.984 183.418 942.932 183.43C942.92 183.436 942.861 183.296 942.75 183.023C942.662 182.743 942.54 182.324 942.516 181.771C942.481 181.218 942.54 180.531 942.709 179.762C942.879 178.994 943.16 178.144 943.476 177.212C943.797 176.281 944.125 175.262 944.359 174.133C944.599 173.009 944.774 171.787 944.944 170.5C945.289 167.915 945.664 165.086 946.062 162.111C946.155 161.447 946.225 160.795 946.342 160.137C946.459 159.485 946.641 158.833 947.004 158.274C947.343 157.704 947.94 157.285 948.572 157.139C949.198 156.982 949.941 157.122 950.368 157.634L950.397 157.675V157.721C950.537 161.837 950.66 165.365 950.748 167.904C950.777 169.132 950.806 170.116 950.824 170.832C950.83 171.152 950.83 171.408 950.83 171.612C950.836 171.775 950.83 171.862 950.824 171.862Z" fill="#EB996E"/>
<path d="M946.74 158.49C946.723 158.496 946.606 158.263 946.424 157.826C946.249 157.39 946.015 156.744 945.798 155.923C945.582 155.108 945.377 154.112 945.26 153C945.202 152.441 945.161 151.848 945.231 151.23C945.295 150.613 945.477 149.961 945.874 149.408C946.214 148.931 946.694 148.547 947.238 148.389L947.355 148.354L947.413 148.459C948.496 150.357 949.432 152.034 950.093 153.239C950.397 153.804 950.649 154.275 950.859 154.665C951.035 155.003 951.122 155.189 951.105 155.201C951.087 155.213 950.97 155.038 950.766 154.718C950.537 154.345 950.257 153.885 949.923 153.338C949.215 152.156 948.244 150.503 947.15 148.611L947.325 148.681C946.857 148.82 946.43 149.152 946.126 149.589C945.769 150.089 945.594 150.683 945.529 151.265C945.465 151.853 945.494 152.43 945.541 152.977C945.64 154.077 945.816 155.061 946.009 155.876C946.196 156.691 946.395 157.343 946.536 157.792C946.682 158.234 946.764 158.484 946.74 158.49Z" fill="#EB996E"/>
<path d="M944.956 159.451C944.932 159.451 944.909 159.212 944.885 158.775C944.868 158.275 944.839 157.658 944.809 156.93C944.757 155.37 944.71 153.216 944.675 150.834C944.657 148.453 944.564 146.294 944.768 144.728C944.868 143.947 945.026 143.324 945.166 142.911C945.307 142.492 945.424 142.282 945.441 142.288C945.494 142.306 945.114 143.208 944.979 144.757C944.833 146.299 944.956 148.453 944.973 150.834C945.008 153.216 945.02 155.37 945.02 156.93C945.014 157.658 945.002 158.275 944.997 158.781C944.991 159.206 944.979 159.445 944.956 159.451Z" fill="#EB996E"/>
<path d="M938.643 179.018C938.602 178.983 939.064 178.436 939.644 177.44C939.936 176.946 940.235 176.329 940.509 175.63C940.773 174.92 941.013 174.122 941.176 173.266C941.329 172.405 941.381 171.578 941.381 170.821C941.37 170.064 941.305 169.383 941.206 168.824C941.013 167.695 940.767 167.02 940.82 167.002C940.837 166.996 940.913 167.159 941.03 167.462C941.153 167.765 941.288 168.219 941.416 168.784C941.545 169.354 941.633 170.047 941.662 170.815C941.68 171.59 941.627 172.44 941.475 173.319C941.311 174.198 941.059 175.013 940.773 175.729C940.474 176.439 940.147 177.062 939.825 177.551C939.509 178.04 939.222 178.419 939 178.657C938.789 178.902 938.661 179.03 938.643 179.018Z" fill="#EB996E"/>
<path d="M951.749 175.367L958.225 177.603C958.225 177.603 964.409 174.418 968.674 177.603C972.939 180.787 976.643 189.176 975.473 192.57C975.473 192.57 972.53 196.186 970.289 196.715C968.048 197.245 959.343 195.149 955.721 194.387C952.088 193.624 945.851 189.59 945.851 189.59L951.749 175.367Z" fill="#FFBE9D"/>
<path d="M952.545 184.862C952.521 184.862 952.498 184.658 952.474 184.292C952.451 183.855 952.416 183.337 952.381 182.737C952.31 181.422 952.223 179.605 952.193 177.591C952.164 175.577 952.223 173.754 952.346 172.439C952.404 171.781 952.474 171.251 952.539 170.884C952.603 170.517 952.65 170.319 952.673 170.325C952.72 170.331 952.621 171.14 952.556 172.45C952.492 173.76 952.468 175.577 952.498 177.585C952.533 179.553 952.568 181.334 952.591 182.731C952.597 183.389 952.597 183.925 952.585 184.292C952.585 184.658 952.568 184.862 952.545 184.862Z" fill="#EB996E"/>
<path d="M973.905 177.347C973.858 177.394 973.191 176.474 971.752 175.414C970.33 174.355 968.025 173.225 965.299 173.074C962.566 172.929 960.15 173.796 958.623 174.693C957.073 175.589 956.312 176.427 956.271 176.381C956.259 176.369 956.441 176.154 956.803 175.804C957.172 175.455 957.74 174.989 958.512 174.512C960.039 173.552 962.508 172.62 965.316 172.777C968.124 172.934 970.476 174.128 971.886 175.246C972.6 175.804 973.121 176.334 973.443 176.718C973.764 177.109 973.922 177.341 973.905 177.347Z" fill="#263238"/>
<path d="M973.075 171.973C973.034 172.037 972.168 171.164 970.377 170.494C968.616 169.807 965.884 169.493 963.082 170.279C961.683 170.669 960.402 171.222 959.308 171.839C958.214 172.462 957.301 173.143 956.576 173.76C955.85 174.378 955.294 174.919 954.914 175.292C954.534 175.67 954.323 175.874 954.306 175.862C954.294 175.85 954.475 175.618 954.832 175.21C955.189 174.808 955.722 174.244 956.441 173.597C957.155 172.951 958.068 172.241 959.173 171.595C960.279 170.954 961.578 170.378 963.006 169.982C965.878 169.179 968.681 169.54 970.459 170.291C971.36 170.657 972.027 171.082 972.454 171.408C972.677 171.566 972.823 171.717 972.928 171.81C973.028 171.915 973.08 171.967 973.075 171.973Z" fill="#263238"/>
<path d="M973.127 167.316C973.11 167.374 971.98 167.03 970.097 166.78C969.155 166.646 968.025 166.57 966.773 166.57C965.521 166.588 964.146 166.693 962.719 166.931C961.297 167.188 959.969 167.56 958.781 167.968C957.605 168.393 956.57 168.847 955.733 169.295C954.054 170.174 953.106 170.879 953.071 170.832C953.06 170.815 953.288 170.634 953.721 170.314C953.931 170.151 954.2 169.965 954.522 169.767C954.844 169.569 955.207 169.324 955.628 169.109C956.459 168.637 957.5 168.16 958.682 167.712C959.875 167.287 961.221 166.902 962.66 166.64C964.105 166.396 965.498 166.297 966.768 166.297C968.037 166.314 969.178 166.413 970.12 166.576C970.594 166.635 971.015 166.745 971.39 166.821C971.764 166.897 972.08 166.984 972.331 167.06C972.852 167.205 973.133 167.298 973.127 167.316Z" fill="#263238"/>
<path d="M923.496 110.31C923.496 110.31 923.794 110.868 923.946 112.021C924.104 113.168 924.081 114.891 923.701 117.022C923.508 118.087 923.25 119.258 922.864 120.509C922.46 121.761 921.852 123.042 921.161 124.381C919.769 127.059 918.008 129.975 915.978 133.09L915.738 133.457V133.02C915.732 130.965 915.732 128.805 915.726 126.558L915.954 126.669C914.211 128.066 912.38 129.539 910.49 131.058L910.537 130.988C909.273 134.982 908.436 139.43 908.109 144.058C907.576 151.143 908.003 157.92 908.343 164.067C908.629 170.221 908.817 175.769 909.01 180.421C909.197 185.078 909.367 188.839 909.507 191.441C909.583 192.728 909.642 193.735 909.683 194.434C909.706 194.765 909.724 195.022 909.735 195.214C909.747 195.388 909.741 195.481 909.741 195.481C909.741 195.481 909.724 195.394 909.7 195.219C909.683 195.033 909.653 194.771 909.618 194.445C909.554 193.764 909.472 192.751 909.384 191.453C909.209 188.85 909.004 185.09 908.793 180.432C908.583 175.775 908.337 170.233 908.056 164.085C907.705 157.943 907.266 151.149 907.799 144.041C908.132 139.395 908.969 134.924 910.25 130.907L910.262 130.866L910.297 130.837C912.187 129.323 914.024 127.856 915.767 126.459L915.995 126.279V126.57C915.99 128.811 915.99 130.971 915.984 133.032L915.744 132.962C919.763 126.762 923.034 121.371 923.537 117.01C923.941 114.897 923.987 113.191 923.853 112.044C923.794 111.468 923.683 111.043 923.613 110.752C923.531 110.455 923.496 110.31 923.496 110.31Z" fill="#263238"/>
<path d="M913 185.404L912.79 185.398C911.941 185.422 911.187 186.19 911.187 187.034C911.187 187.879 911.935 188.653 912.778 188.682C913.626 188.711 914.428 187.989 914.48 187.151C914.545 186.307 913.843 185.486 913 185.404Z" fill="white"/>
<path d="M913 162.968L912.79 162.962C911.941 162.985 911.187 163.754 911.187 164.598C911.187 165.442 911.935 166.216 912.778 166.245C913.626 166.274 914.428 165.553 914.48 164.714C914.545 163.87 913.843 163.049 913 162.968Z" fill="white"/>
<path d="M912.784 142.894C913.632 142.923 914.434 142.201 914.486 141.363C914.545 140.524 913.843 139.704 913 139.622L912.79 139.616C911.941 139.639 911.187 140.408 911.187 141.252C911.187 142.09 911.935 142.865 912.784 142.894Z" fill="white"/>
<path d="M887.52 84.0188C885.467 81.7599 883.402 79.472 881.904 76.8173C880.406 74.1626 879.517 71.0596 880.014 68.0556C880.301 66.2974 881.056 64.6266 881.173 62.851C881.336 60.4058 880.307 57.8501 881.173 55.5622C882.536 51.9818 887.38 51.4287 890.317 48.9545C892.605 47.0275 893.716 43.9012 896.238 42.277C898.438 40.8623 901.264 40.8914 903.855 41.2582C906.447 41.625 909.057 42.277 911.654 41.9277C913.503 41.6773 915.247 40.938 917.06 40.4897C918.874 40.0414 920.892 39.925 922.507 40.8565C924.122 41.788 925.029 44.0701 923.97 45.6012C926.977 44.2214 930.798 46.556 931.622 49.7463C932.447 52.9366 930.798 56.3889 928.247 58.4905C925.696 60.598 922.402 61.576 919.149 62.1873C909.934 63.9163 899.941 62.9383 892.002 57.9782" fill="#263238"/>
<path d="M919.915 114.839C919.465 111.37 919.096 108.476 919.073 108.115C919.073 108.115 930.727 105.507 930.084 93.7822C929.774 88.1176 928.176 76.4917 926.614 65.9951C924.935 54.7242 914.819 46.632 903.393 47.3888L902.258 47.4645C890.054 48.9898 884.542 60.1559 886.415 72.2534L892.997 112.813C892.997 112.813 895.805 121.785 901.819 123.339L909.402 134.121L910.654 129.481L916.305 124.585C916.305 124.585 917.604 123.188 919.09 120.457C920.319 118.228 920.062 115.928 919.915 114.839Z" fill="#FFBE9D"/>
<path d="M919.079 107.946C919.079 107.946 911.678 109.047 903.434 104.628C903.434 104.628 907.629 112.819 919.307 110.979L919.079 107.946Z" fill="#EB996E"/>
<path d="M924.473 71.915C924.28 72.1479 922.94 71.2921 921.133 71.4202C919.325 71.5192 918.055 72.5322 917.844 72.3284C917.739 72.2352 917.926 71.8277 918.476 71.3736C919.02 70.9195 919.962 70.448 921.092 70.3781C922.221 70.3082 923.198 70.6575 923.771 71.0476C924.356 71.426 924.567 71.8103 924.473 71.915Z" fill="#263238"/>
<path d="M906.711 73.4346C906.517 73.6674 905.178 72.8116 903.37 72.9397C901.562 73.0387 900.292 74.0517 900.082 73.8479C899.976 73.7548 900.164 73.3472 900.714 72.8932C901.252 72.4391 902.2 71.9675 903.323 71.8976C904.452 71.8278 905.429 72.1771 906.003 72.5671C906.588 72.9455 906.804 73.3298 906.711 73.4346Z" fill="#263238"/>
<path d="M914.17 86.353C914.152 86.2541 915.264 85.9804 917.072 85.6311C917.528 85.5554 917.961 85.4332 918.019 85.113C918.107 84.7753 917.879 84.2921 917.622 83.7682C917.113 82.6853 916.58 81.5501 916.019 80.3566C913.784 75.4955 912.134 71.4901 912.333 71.4028C912.532 71.3155 914.497 75.1811 916.732 80.0423C917.271 81.2415 917.785 82.3826 918.277 83.4771C918.488 83.9894 918.827 84.5599 918.64 85.2644C918.54 85.6137 918.218 85.8873 917.926 85.9863C917.633 86.0969 917.376 86.1201 917.148 86.1493C915.322 86.3705 914.187 86.452 914.17 86.353Z" fill="#263238"/>
<path d="M906.699 66.3446C906.553 66.8453 904.733 66.7346 902.627 67.1305C900.515 67.4856 898.841 68.2192 898.531 67.7942C898.391 67.5904 898.66 67.1131 899.321 66.5891C899.976 66.071 901.041 65.547 902.305 65.32C903.569 65.0987 904.751 65.221 905.546 65.483C906.342 65.7508 906.763 66.1117 906.699 66.3446Z" fill="#263238"/>
<path d="M923.455 66.7458C923.162 67.1766 921.887 66.8332 920.389 66.9147C918.886 66.9438 917.639 67.3746 917.318 66.9671C917.177 66.7691 917.347 66.3441 917.879 65.9192C918.4 65.5 919.295 65.1216 920.325 65.0808C921.355 65.0459 922.273 65.3544 922.823 65.7387C923.385 66.1287 923.584 66.5363 923.455 66.7458Z" fill="#263238"/>
<path d="M887.959 80.8699C887.754 80.7942 879.71 79.0244 880.506 87.0235C881.301 95.0167 890.007 92.4144 890.001 92.1815C889.989 91.9486 887.959 80.8699 887.959 80.8699Z" fill="#FFBE9D"/>
<path d="M886.438 89.556C886.403 89.5327 886.31 89.6666 886.081 89.8005C885.859 89.9286 885.473 90.0392 885.04 89.9227C884.162 89.6957 883.314 88.4266 883.133 86.9886C883.039 86.2609 883.127 85.5564 883.326 84.9568C883.513 84.3455 883.852 83.9031 884.274 83.7866C884.689 83.6469 885.017 83.874 885.139 84.0894C885.268 84.3048 885.233 84.4678 885.28 84.4736C885.303 84.4911 885.438 84.3222 885.344 83.9962C885.297 83.839 885.18 83.6644 884.976 83.5247C884.765 83.3849 884.478 83.3384 884.18 83.3966C883.566 83.5014 883.062 84.1243 882.84 84.7822C882.583 85.4458 882.472 86.2434 882.577 87.0584C882.787 88.6652 883.765 90.0916 884.964 90.307C885.543 90.4001 885.999 90.1847 886.222 89.9693C886.444 89.7481 886.468 89.5676 886.438 89.556Z" fill="#EB996E"/>
<path d="M926.024 55.0735C925.474 58.258 918.985 61.1689 913.609 61.0175C908.653 60.872 906.202 58.4269 902.598 56.6862C900.316 55.5859 900.316 55.5859 897.227 56.0865C894.723 56.494 893.43 59.4282 892.026 61.5298C894.699 67.3341 893.617 74.0815 892.488 80.3689C892.365 81.0617 892.207 81.8127 891.675 82.2785C890.774 83.0702 889.305 82.5987 888.422 81.7895C887 80.497 886.351 78.57 885.888 76.7129C884.829 72.4747 884.42 68.0327 885.093 63.713C885.766 59.3933 887.562 55.2016 890.528 51.9764C894.231 47.9477 899.649 45.6249 905.131 45.3454C910.613 45.066 916.119 46.7543 920.705 49.7467C922.829 51.1264 924.818 52.8438 926.024 55.0735Z" fill="#263238"/>
<path d="M915.358 90.3993C913.995 89.7648 912.626 89.1302 911.262 88.5015C911.028 88.3908 910.777 88.2802 910.519 88.3152C910.227 88.3559 909.999 88.5713 909.811 88.7925C908.864 89.9394 908.624 91.6626 909.355 92.9551C910.092 94.2475 911.818 94.9286 913.199 94.3581C914.65 93.7585 915.358 92.0818 915.469 90.5216L915.358 90.3993Z" fill="#EB996E"/>
<path d="M913.328 94.6488C913.34 94.6838 913.141 94.8002 912.731 94.8875C912.327 94.9632 911.695 94.9981 910.97 94.7594C910.25 94.5324 909.437 93.9735 908.934 93.077C908.425 92.2037 908.238 90.9753 908.682 89.8634C908.893 89.3103 909.227 88.8213 909.63 88.437C909.835 88.2449 910.051 88.0819 910.297 87.9364C910.426 87.8665 910.584 87.7966 910.771 87.785C910.952 87.7734 911.116 87.8199 911.245 87.8781C911.514 87.9946 911.684 88.1227 911.883 88.2391C912.076 88.3555 912.257 88.472 912.439 88.5826C912.79 88.8038 913.123 89.0076 913.433 89.2055C914.65 89.974 915.376 90.4805 915.335 90.5561C915.294 90.626 914.486 90.2476 913.217 89.5781C912.895 89.4034 912.55 89.2172 912.181 89.0192C911.994 88.9144 911.801 88.8096 911.608 88.7048C911.415 88.6 911.198 88.4661 911.029 88.4021C910.841 88.3381 910.759 88.3439 910.578 88.4429C910.397 88.5535 910.204 88.7048 910.04 88.8678C909.7 89.1997 909.425 89.613 909.244 90.0846C908.87 91.0219 909.004 92.0407 909.42 92.815C909.829 93.5951 910.49 94.1074 911.11 94.3636C911.736 94.6255 912.31 94.6605 912.696 94.6605C913.094 94.643 913.31 94.6081 913.328 94.6488Z" fill="#263238"/>
<path d="M912.034 76.2762C911.987 76.2821 912.04 75.5311 911.712 74.2503C911.391 72.9986 910.548 71.1531 908.653 69.721C907.711 69.0224 906.529 68.4344 905.166 68.1957C903.814 67.9686 902.281 68.0094 900.83 68.5625C900.099 68.8186 899.391 69.197 898.747 69.6802C898.092 70.1518 897.495 70.7398 897.004 71.4209C895.992 72.7657 895.418 74.489 895.401 76.2646C895.418 78.0402 895.986 79.7693 897.004 81.1141C897.495 81.7952 898.092 82.3832 898.747 82.8606C899.397 83.3438 900.099 83.728 900.83 83.9784C902.281 84.5314 903.814 84.5722 905.166 84.3452C906.529 84.1065 907.711 83.5185 908.653 82.8199C910.548 81.3935 911.391 79.548 911.712 78.2906C912.04 77.0156 911.987 76.2704 912.034 76.2762C912.04 76.2762 912.04 76.3228 912.04 76.4101C912.04 76.5208 912.034 76.6488 912.034 76.806C912.034 76.9807 912.028 77.1961 911.982 77.4522C911.946 77.7084 911.917 77.9995 911.824 78.3255C911.689 78.9775 911.391 79.7518 910.917 80.5785C910.437 81.3994 909.741 82.261 908.781 82.9945C907.828 83.7222 906.617 84.3393 905.212 84.5955C903.82 84.84 902.24 84.8051 900.737 84.2462C899.976 83.99 899.245 83.5942 898.572 83.0993C897.893 82.6103 897.273 82.0048 896.764 81.3004C895.711 79.909 895.114 78.1217 895.097 76.2762C895.114 74.4308 895.711 72.6435 896.764 71.2521C897.273 70.5477 897.893 69.9422 898.572 69.4532C899.245 68.9583 899.976 68.5624 900.737 68.3063C902.246 67.7416 903.82 67.7067 905.212 67.957C906.617 68.2131 907.828 68.8361 908.781 69.558C909.741 70.2915 910.437 71.1531 910.917 71.974C911.391 72.8007 911.689 73.575 911.824 74.227C911.917 74.5472 911.946 74.8441 911.982 75.1002C912.023 75.3564 912.034 75.5718 912.034 75.7465C912.034 75.9036 912.04 76.0375 912.04 76.1423C912.04 76.2297 912.04 76.2762 912.034 76.2762Z" fill="#263238"/>
<path d="M932.067 75.4904C932.02 75.4962 932.073 74.7627 931.751 73.5168C931.435 72.2942 930.616 70.4953 928.767 69.1098C927.855 68.4286 926.702 67.8523 925.374 67.6252C924.058 67.404 922.566 67.4447 921.15 67.9862C920.436 68.2307 919.752 68.6033 919.12 69.0748C918.482 69.5347 917.903 70.1111 917.423 70.7748C916.434 72.0847 915.878 73.7613 915.861 75.4962C915.878 77.2311 916.434 78.9077 917.417 80.2176C917.897 80.8813 918.476 81.4518 919.114 81.9176C919.746 82.3891 920.43 82.7617 921.144 83.0062C922.56 83.5418 924.046 83.5884 925.368 83.3672C926.696 83.1343 927.849 82.5579 928.762 81.8826C930.61 80.4912 931.429 78.6981 931.739 77.4756C932.073 76.2181 932.02 75.4845 932.067 75.4904C932.079 75.4904 932.079 75.6708 932.073 76.0085C932.073 76.1773 932.067 76.3927 932.026 76.6373C931.991 76.8876 931.962 77.1729 931.874 77.4872C931.587 78.7331 930.786 80.5902 928.908 82.0398C927.978 82.7501 926.796 83.3555 925.427 83.6C924.069 83.8387 922.531 83.8038 921.062 83.2566C920.325 83.0062 919.611 82.622 918.956 82.133C918.295 81.6556 917.692 81.0676 917.195 80.3806C916.165 79.0242 915.586 77.2835 915.574 75.4846C915.592 73.6856 916.171 71.9449 917.201 70.5885C917.698 69.9015 918.301 69.3077 918.962 68.8361C919.617 68.3529 920.331 67.9687 921.068 67.7184C922.536 67.1711 924.075 67.1362 925.433 67.3749C926.802 67.6252 927.983 68.2307 928.914 68.9351C930.792 70.3847 931.593 72.236 931.88 73.4877C931.968 73.8021 932.003 74.0873 932.032 74.3377C932.073 74.5822 932.085 74.7976 932.079 74.9664C932.079 75.3099 932.079 75.4904 932.067 75.4904Z" fill="#263238"/>
<path d="M915.72 73.6498C915.685 73.6847 915.492 73.5217 915.141 73.3529C914.79 73.184 914.263 73.021 913.666 73.0327C913.075 73.0385 912.549 73.2248 912.204 73.4053C911.853 73.5857 911.671 73.7546 911.636 73.7255C911.607 73.7022 911.742 73.4693 912.093 73.2248C912.438 72.9803 912.999 72.7416 913.661 72.7299C914.316 72.7183 914.889 72.9337 915.246 73.1666C915.597 73.3994 915.743 73.6265 915.72 73.6498Z" fill="#263238"/>
<path d="M895.758 75.0879C895.811 75.1577 894.167 76.4618 892.09 77.9987C890.013 79.5415 888.293 80.7349 888.24 80.6709C888.188 80.601 889.832 79.297 891.909 77.76C893.986 76.2173 895.712 75.018 895.758 75.0879Z" fill="#263238"/>
<g opacity="0.3">
<path opacity="0.3" d="M888.837 112.976C888.024 120.876 891.043 129.218 897.408 134.004C897.906 134.382 898.538 134.749 899.123 134.539C899.532 134.394 899.796 134.004 900.012 133.625C901.826 130.499 902.434 127.047 901.913 123.472C900.907 126.115 900.041 128.706 899.023 131.471C893.471 128.124 890.013 120.998 888.837 112.976Z" fill="black"/>
</g>
<path opacity="0.3" d="M910.397 130.942L915.072 129.242L915.844 137.107C915.844 137.107 920.887 127.961 922.976 123.787C925.064 119.613 923.988 112.248 923.988 112.248C923.988 112.248 924.737 118.664 919.682 126.843L915.867 133.014V126.552L910.397 130.942Z" fill="black"/>
<g opacity="0.3">
<path opacity="0.3" d="M856.032 170.914C853.95 169.936 851.551 169.802 849.263 170.07C846.847 170.35 844.419 171.089 842.523 172.608C840.628 174.128 839.346 176.526 839.581 178.937L839.815 178.972C841.447 174.582 844.688 171.386 848.871 170.996C853.054 170.611 857.132 172.463 860.005 175.513C859.724 173.231 858.121 171.892 856.032 170.914Z" fill="black"/>
</g>
<g opacity="0.3">
<path opacity="0.3" d="M974.209 175.402C972.642 173.719 970.442 172.701 968.172 172.305C964.187 171.612 959.911 172.846 956.909 175.548L957.798 174.826C960.063 173.504 962.672 172.724 965.299 172.8C967.92 172.875 970.547 173.842 972.448 175.641C974.198 177.294 975.245 179.535 976.245 181.719C976.643 179.466 975.777 177.084 974.209 175.402Z" fill="black"/>
</g>
<path d="M944.085 138.877C944.067 138.871 944.143 138.644 944.295 138.242C944.476 137.782 944.699 137.218 944.962 136.548C945.53 135.122 946.302 133.148 947.127 130.959C947.946 128.765 948.654 126.768 949.163 125.318C949.403 124.643 949.608 124.072 949.771 123.606C949.918 123.205 950.011 122.984 950.029 122.989C950.046 122.995 949.994 123.228 949.882 123.641C949.771 124.055 949.596 124.654 949.368 125.388C948.911 126.855 948.233 128.869 947.414 131.064C946.594 133.259 945.781 135.221 945.167 136.63C944.857 137.334 944.599 137.899 944.412 138.289C944.219 138.673 944.102 138.888 944.085 138.877Z" fill="#263238"/>
<path d="M870.326 139.447C870.244 139.464 869.606 136.693 868.904 133.259C868.202 129.824 867.699 127.029 867.781 127.012C867.863 126.994 868.501 129.765 869.203 133.2C869.905 136.635 870.408 139.43 870.326 139.447Z" fill="#263238"/>
<path d="M869.22 174.081C869.407 174.175 867.079 155.941 867.079 155.941C867.079 155.941 868.547 142.103 869.372 141.462L869.396 136.578C869.396 136.578 871.672 135.204 872.28 137.422C872.28 137.422 874.299 135.681 874.65 139.826C875.001 143.977 875.077 148.216 875.077 148.216L879.564 159.382L880.301 159.754C880.301 159.754 881.267 151.004 881.828 149.718C882.39 148.431 882.776 145.299 884.9 145.77C887.029 146.242 887.205 147.994 886.825 150.847C886.444 153.7 885.965 156.645 886.146 158.491C886.322 160.336 887.164 164.394 886.907 167.614C886.649 170.839 884.876 174.239 883.01 176.626C881.15 179.012 877.592 183.949 875.656 185.44C874.977 185.964 869.22 174.081 869.22 174.081Z" fill="#FFBE9D"/>
<path d="M871.49 159.242C871.467 159.242 871.472 158.963 871.502 158.462C871.543 157.903 871.589 157.193 871.648 156.343C871.783 154.556 871.993 152.087 872.245 149.363C872.373 148.006 872.496 146.708 872.607 145.526C872.666 144.938 872.701 144.385 872.625 143.879C872.555 143.372 872.356 142.936 872.063 142.621C871.472 141.981 870.706 141.818 870.232 141.824C869.735 141.818 869.477 141.952 869.466 141.923C869.46 141.911 869.524 141.882 869.647 141.83C869.776 141.783 869.969 141.725 870.226 141.707C870.729 141.672 871.549 141.8 872.221 142.482C872.555 142.819 872.789 143.308 872.871 143.844C872.964 144.385 872.929 144.962 872.882 145.556C872.777 146.743 872.66 148.036 872.543 149.398C872.292 152.122 872.046 154.585 871.859 156.366C871.759 157.211 871.677 157.921 871.613 158.474C871.554 158.969 871.508 159.242 871.49 159.242Z" fill="#EB996E"/>
<path d="M873.901 151.784C873.947 151.819 873.444 152.256 873.105 153.222C872.742 154.171 872.613 155.603 872.356 157.158C872.116 158.718 871.876 160.127 871.695 161.14C871.508 162.159 871.373 162.781 871.332 162.776C871.291 162.77 871.35 162.129 871.484 161.105C871.613 160.08 871.818 158.666 872.058 157.105C872.309 155.557 872.473 154.119 872.906 153.135C873.111 152.646 873.357 152.291 873.555 152.069C873.748 151.86 873.889 151.773 873.901 151.784Z" fill="#EB996E"/>
<path d="M872.251 137.184C872.274 137.178 872.327 137.382 872.409 137.76C872.491 138.133 872.59 138.674 872.701 139.349C872.924 140.694 873.169 142.563 873.327 144.641C873.479 146.72 873.514 148.606 873.491 149.968C873.479 150.649 873.462 151.202 873.433 151.581C873.409 151.959 873.386 152.169 873.362 152.169C873.316 152.169 873.31 151.325 873.275 149.968C873.239 148.606 873.175 146.731 873.023 144.665C872.871 142.598 872.66 140.729 872.491 139.379C872.321 138.022 872.21 137.19 872.251 137.184Z" fill="#EB996E"/>
<path d="M885.198 154.276C885.245 154.346 884.543 154.666 883.689 154.404C882.829 154.148 882.431 153.49 882.507 153.461C882.577 153.403 883.022 153.897 883.776 154.119C884.525 154.352 885.175 154.188 885.198 154.276Z" fill="#EB996E"/>
<path d="M869.472 171.812L857.613 176.772H850.545C850.545 176.772 843.559 178.943 842.483 185.458C841.406 191.978 841.254 195.331 844.326 196.135C847.397 196.938 856.074 197.031 860.374 195.611C864.674 194.19 875.943 185.143 875.943 185.143L877.031 178.6L869.472 171.812Z" fill="#FFBE9D"/>
<path d="M872.251 179.019C872.233 179.03 872.116 178.926 871.912 178.71C871.701 178.506 871.444 178.169 871.139 177.738C870.554 176.865 869.911 175.543 869.484 174.006C869.039 172.469 868.852 171.031 868.752 169.995C868.665 168.959 868.664 168.313 868.705 168.307C868.752 168.301 868.822 168.941 868.963 169.966C869.115 170.991 869.337 172.405 869.77 173.919C870.192 175.438 870.788 176.737 871.315 177.621C871.859 178.501 872.292 178.978 872.251 179.019Z" fill="#EB996E"/>
<path d="M877.417 181.085C877.352 181.062 877.885 180.165 878.089 178.553C878.189 177.755 878.177 176.783 877.949 175.741C877.721 174.699 877.223 173.627 876.498 172.626C875.778 171.619 874.965 170.746 874.286 169.901C873.596 169.057 873.046 168.236 872.683 167.491C872.321 166.746 872.151 166.088 872.087 165.628C872.028 165.168 872.052 164.912 872.069 164.912C872.128 164.901 872.11 165.954 872.876 167.392C873.251 168.108 873.813 168.9 874.503 169.721C875.193 170.548 876.012 171.421 876.75 172.446C877.493 173.464 878.013 174.594 878.23 175.671C878.452 176.748 878.435 177.755 878.306 178.57C878.177 179.391 877.949 180.025 877.762 180.445C877.674 180.654 877.586 180.811 877.522 180.916C877.458 181.038 877.422 181.091 877.417 181.085Z" fill="#EB996E"/>
<path d="M859.134 152.674C859.058 152.715 857.765 150.369 856.243 147.44C854.722 144.512 853.552 142.108 853.622 142.067C853.698 142.026 854.991 144.372 856.513 147.301C858.034 150.229 859.21 152.633 859.134 152.674Z" fill="white"/>
<path d="M878.312 131.431C878.236 131.396 879.037 129.446 880.096 127.071C881.161 124.695 882.085 122.798 882.161 122.833C882.237 122.867 881.436 124.818 880.377 127.193C879.312 129.568 878.388 131.466 878.312 131.431Z" fill="white"/>
<path d="M897.093 145.216C897.028 145.269 895.823 143.93 894.407 142.224C892.986 140.518 891.891 139.092 891.956 139.04C892.02 138.987 893.225 140.326 894.641 142.032C896.057 143.738 897.157 145.164 897.093 145.216Z" fill="white"/>
<path d="M892.769 164.178C892.699 164.132 893.606 162.769 894.793 161.139C895.981 159.509 896.999 158.228 897.063 158.281C897.134 158.327 896.227 159.69 895.039 161.32C893.857 162.95 892.839 164.231 892.769 164.178Z" fill="white"/>
<path d="M886.953 190.964C886.918 190.981 886.649 190.539 886.269 189.794C885.883 189.049 885.385 188.007 884.888 186.836C884.385 185.66 883.981 184.583 883.706 183.792C883.437 183 883.297 182.499 883.338 182.488C883.379 182.476 883.589 182.947 883.911 183.716C884.28 184.589 884.701 185.602 885.169 186.72C885.649 187.832 886.087 188.833 886.468 189.706C886.795 190.463 886.994 190.941 886.953 190.964Z" fill="white"/>
<path d="M903.476 179.577C903.458 179.658 901.867 179.419 899.925 179.047C897.976 178.674 896.414 178.302 896.432 178.22C896.449 178.139 898.041 178.377 899.983 178.75C901.931 179.122 903.493 179.495 903.476 179.577Z" fill="white"/>
<path d="M916.294 154.549C916.23 154.49 917.751 152.767 919.682 150.689C921.613 148.616 923.233 146.98 923.292 147.039C923.356 147.097 921.835 148.82 919.904 150.898C917.968 152.971 916.353 154.607 916.294 154.549Z" fill="white"/>
<path d="M929.183 187.925C929.119 187.977 927.229 185.8 924.959 183.058C922.689 180.316 920.905 178.051 920.969 177.999C921.033 177.947 922.923 180.124 925.193 182.866C927.463 185.608 929.248 187.873 929.183 187.925Z" fill="white"/>
<path d="M849.158 173.703C849.199 173.784 847.473 174.657 845.589 176.095C843.7 177.522 842.395 178.954 842.325 178.89C842.296 178.867 842.582 178.476 843.12 177.9C843.653 177.33 844.449 176.584 845.402 175.857C846.356 175.135 847.292 174.57 847.988 174.203C848.684 173.842 849.141 173.668 849.158 173.703Z" fill="white"/>
<path d="M853.98 160.837C854.05 160.883 853.435 161.925 852.605 163.165C851.774 164.405 851.048 165.372 850.978 165.325C850.908 165.279 851.522 164.236 852.353 162.996C853.178 161.756 853.909 160.79 853.98 160.837Z" fill="white"/>
<path d="M864.838 173.469C864.774 173.51 864.159 172.491 863.843 171.076C863.516 169.667 863.627 168.485 863.703 168.491C863.797 168.491 863.826 169.638 864.142 171.006C864.446 172.38 864.92 173.428 864.838 173.469Z" fill="white"/>
<path d="M866.447 133.346C866.459 133.428 865.453 133.643 864.195 133.818C862.937 133.998 861.907 134.074 861.895 133.992C861.884 133.911 862.89 133.695 864.148 133.521C865.406 133.34 866.435 133.265 866.447 133.346Z" fill="white"/>
<path d="M874.603 118.95C874.644 119.025 873.76 119.59 872.631 120.213C871.502 120.836 870.548 121.284 870.507 121.208C870.466 121.133 871.35 120.568 872.479 119.945C873.614 119.322 874.562 118.88 874.603 118.95Z" fill="white"/>
<path d="M897.543 125.032C897.479 125.084 896.467 123.873 895.285 122.331C894.103 120.788 893.202 119.501 893.272 119.449C893.337 119.397 894.349 120.607 895.531 122.15C896.707 123.687 897.614 124.98 897.543 125.032Z" fill="white"/>
<path d="M926.662 139.505C926.603 139.557 925.538 138.469 924.556 136.885C923.561 135.302 923.052 133.875 923.122 133.846C923.204 133.811 923.836 135.168 924.813 136.728C925.79 138.288 926.732 139.447 926.662 139.505Z" fill="white"/>
<path d="M937.778 143.15C937.854 143.185 937.315 144.536 936.572 146.16C935.829 147.79 935.168 149.082 935.086 149.047C935.01 149.013 935.548 147.662 936.291 146.038C937.035 144.408 937.702 143.115 937.778 143.15Z" fill="white"/>
<path d="M939.334 128.054C939.269 128.107 937.947 126.634 936.379 124.759C934.811 122.884 933.594 121.318 933.659 121.266C933.723 121.214 935.045 122.687 936.613 124.561C938.175 126.442 939.398 128.002 939.334 128.054Z" fill="white"/>
<path d="M922.355 115.794C922.274 115.799 922.151 114.536 922.092 112.97C922.028 111.41 922.051 110.141 922.133 110.135C922.215 110.129 922.338 111.392 922.396 112.958C922.461 114.524 922.443 115.794 922.355 115.794Z" fill="white"/>
<path d="M936.198 115.031C936.21 115.113 934.589 115.398 932.588 115.666C930.582 115.934 928.949 116.079 928.938 115.998C928.926 115.916 930.541 115.631 932.547 115.363C934.548 115.095 936.187 114.95 936.198 115.031Z" fill="white"/>
<path d="M957.997 130.965C957.921 131 956.95 129.154 955.821 126.843C954.697 124.532 953.843 122.622 953.919 122.587C953.995 122.552 954.967 124.398 956.096 126.709C957.219 129.02 958.073 130.93 957.997 130.965Z" fill="white"/>
<path d="M954.323 144.733C954.241 144.716 954.47 143.231 954.832 141.421C955.195 139.604 955.558 138.149 955.64 138.166C955.722 138.184 955.493 139.668 955.131 141.479C954.768 143.289 954.411 144.751 954.323 144.733Z" fill="white"/>
<path d="M964.439 155.585C964.357 155.614 963.585 153.612 962.702 151.114C961.824 148.617 961.175 146.568 961.256 146.538C961.338 146.509 962.111 148.512 962.994 151.01C963.872 153.513 964.515 155.556 964.439 155.585Z" fill="white"/>
<path d="M963.029 161.936C963.011 162.012 961.613 161.721 960.074 160.882C958.53 160.056 957.518 159.048 957.576 158.996C957.635 158.926 958.711 159.811 960.221 160.62C961.718 161.43 963.058 161.849 963.029 161.936Z" fill="white"/>
<path d="M975.982 176.409C975.906 176.444 975.438 175.559 974.935 174.436C974.431 173.312 974.086 172.375 974.162 172.34C974.238 172.305 974.706 173.19 975.21 174.313C975.713 175.437 976.058 176.374 975.982 176.409Z" fill="white"/>
<path d="M899.479 196.599C899.397 196.611 899.193 195.452 899.023 194.02C898.853 192.588 898.789 191.418 898.871 191.406C898.953 191.395 899.157 192.553 899.327 193.985C899.497 195.417 899.561 196.588 899.479 196.599Z" fill="white"/>
<path d="M939.223 195.598C939.141 195.58 939.31 194.451 939.603 193.077C939.896 191.703 940.2 190.603 940.282 190.62C940.364 190.638 940.194 191.767 939.901 193.141C939.609 194.515 939.305 195.615 939.223 195.598Z" fill="white"/>
<path d="M946.84 80.1583L951.977 71.1463C949.701 67.4728 948.391 63.153 948.391 58.5248C948.391 45.2105 959.238 34.417 972.618 34.417C985.999 34.417 996.846 45.2105 996.846 58.5248C996.846 71.8391 985.999 82.6325 972.618 82.6325C967.031 82.6325 961.888 80.7463 957.793 77.5851L957.799 77.5967L946.84 80.1583Z" fill="#FAFAFA"/>
<path d="M946.84 80.1582C947.361 80.0417 950.83 79.25 957.816 77.6606L957.927 77.6374L957.857 77.5442L957.851 77.5326L957.746 77.6374C959.127 78.7027 960.782 79.7507 962.731 80.6297C964.679 81.4913 966.914 82.19 969.377 82.516C970.606 82.6732 971.893 82.7721 973.215 82.7081C973.876 82.6732 974.549 82.6557 975.228 82.5975C975.9 82.4985 976.585 82.3937 977.275 82.2889C980.019 81.7475 982.822 80.7112 985.443 79.0986C988.058 77.486 990.48 75.3029 992.423 72.619C994.359 69.9352 995.828 66.7566 996.518 63.3043C997.197 59.852 997.144 56.1552 996.231 52.5748C995.313 49.0061 993.599 45.5247 991.036 42.6604L990.047 41.5776C989.72 41.2108 989.333 40.9139 988.982 40.5762C988.614 40.2619 988.28 39.9009 987.882 39.6215L986.718 38.7541C986.344 38.4513 985.928 38.2068 985.513 37.9623C985.103 37.712 984.694 37.4674 984.284 37.2171C983.851 37.0075 983.424 36.8038 982.997 36.5942C982.564 36.3963 982.149 36.1634 981.698 36.0178C978.176 34.6264 974.426 34.0967 970.834 34.3586C967.241 34.6148 963.807 35.6394 960.864 37.2928C957.91 38.9287 955.417 41.1177 953.492 43.557C951.562 46.0021 950.204 48.6917 949.362 51.3756C948.525 54.071 948.297 56.7432 948.309 59.2174C948.379 61.6975 948.835 63.9854 949.497 65.9881C950.158 67.9966 951.029 69.7256 951.925 71.1752V71.1054C948.677 76.8922 947.092 79.7157 946.84 80.1582C947.098 79.7157 948.718 76.9155 952.042 71.1811L952.065 71.1461L952.042 71.1112C951.158 69.6616 950.304 67.9384 949.654 65.9415C949.011 63.9447 948.566 61.68 948.508 59.2174C948.508 56.7607 948.742 54.1176 949.578 51.4512C950.421 48.7965 951.772 46.136 953.686 43.72C955.593 41.3098 958.062 39.1499 960.987 37.5373C963.901 35.9072 967.3 34.9001 970.845 34.6497C974.391 34.3994 978.1 34.9234 981.575 36.2973C982.02 36.437 982.43 36.6699 982.857 36.8678C983.278 37.0716 983.705 37.2753 984.126 37.4849C984.53 37.7294 984.934 37.9739 985.343 38.2185C985.753 38.463 986.162 38.7017 986.531 39.0044L987.678 39.8602C988.07 40.1338 988.397 40.4889 988.76 40.8033C989.105 41.1351 989.491 41.432 989.813 41.793L990.79 42.8642C993.324 45.6935 995.014 49.1342 995.921 52.6563C996.822 56.1901 996.881 59.8462 996.214 63.2577C995.535 66.6692 994.09 69.8188 992.177 72.4677C990.264 75.1282 987.871 77.2939 985.285 78.889C982.699 80.4958 979.926 81.5263 977.211 82.0677C976.526 82.1725 975.848 82.2773 975.187 82.3763C974.514 82.4345 973.847 82.4519 973.197 82.4927C971.887 82.5625 970.611 82.4636 969.394 82.3122C966.949 81.9978 964.732 81.3109 962.795 80.4667C960.858 79.6051 959.209 78.5747 957.828 77.5268L957.377 77.1833L957.722 77.6315L957.728 77.6432L957.769 77.5268C950.819 79.1976 947.361 80.0359 946.84 80.1582Z" fill="#263238"/>
<path d="M979.159 57.517C979.159 58.8152 980.218 59.8748 981.529 59.8748C982.839 59.8748 983.898 58.821 983.898 57.517C983.898 56.2187 982.839 55.1592 981.529 55.1592C980.218 55.1592 979.159 56.2187 979.159 57.517Z" fill="#263238"/>
<path d="M969.687 57.517C969.687 58.8152 970.745 59.8748 972.056 59.8748C973.367 59.8748 974.426 58.821 974.426 57.517C974.426 56.2187 973.367 55.1592 972.056 55.1592C970.745 55.1592 969.687 56.2187 969.687 57.517Z" fill="#263238"/>
<path d="M960.238 56.3421C959.583 57.4715 959.975 58.9095 961.104 59.5615C962.239 60.2136 963.684 59.8235 964.339 58.6999C964.995 57.5705 964.603 56.1325 963.474 55.4805C962.339 54.8285 960.888 55.2127 960.238 56.3421Z" fill="#263238"/>
</g>
<defs>
<clipPath id="clip0_28_4134">
<rect width="423" height="209" fill="white" transform="translate(694 31)"/>
</clipPath>
</defs>
</svg>
