<svg width="29" height="84" viewBox="0 0 29 84" fill="none" xmlns="http://www.w3.org/2000/svg">
<path d="M0.071556 81.8586C0.573712 82.6245 3.14118 82.049 3.89846 82.122C4.5788 82.1868 5.21865 82.4462 5.87874 82.6164C7.97646 83.1634 10.3212 82.8757 12.2083 83.9455C12.265 83.9779 12.3339 84.0144 12.3987 83.9941C12.4716 83.9738 12.5039 83.8928 12.5282 83.8239C13.735 80.4849 14.6746 77 15.7315 73.5961C17.319 68.4823 18.9024 63.3643 20.4898 58.2504C21.3079 55.6084 22.13 52.9664 22.948 50.3243L28.7106 23.6081L26.1472 4.77755L25.5397 0.336334L25.4952 0C25.4952 0 25.3697 0.0445733 25.1388 0.125617C24.337 0.409272 22.2757 1.17919 19.9958 2.29355C16.339 4.08057 12.1111 6.75908 11.5361 9.79013C11.5361 9.80229 11.532 9.81038 11.532 9.82254C11.2283 11.9499 10.8841 14.0693 10.552 16.1926C9.96077 19.9571 9.36143 23.7175 8.75803 27.478C8.00885 32.1583 7.25967 36.8386 6.50643 41.5189C5.7208 46.3977 4.93517 51.2725 4.14954 56.1473C3.44895 60.4994 2.74431 64.8515 2.03968 69.1995C1.53752 72.3035 1.03537 75.4075 0.533209 78.5115C0.395521 79.3705 0.253784 80.2296 0.116096 81.0887C0.0917997 81.2386 -0.0377928 81.5912 0.0108018 81.737C0.0270006 81.7816 0.0472597 81.8221 0.071556 81.8586Z" fill="#EED9CE"/>
</svg>
