<svg width="20" height="20" viewBox="0 0 20 20" fill="none" xmlns="http://www.w3.org/2000/svg">
<g clip-path="url(#clip0_28_5557)">
<path d="M6.46338 9.3847L18.771 0.154016C19.0017 -0.0213665 19.3156 -0.0490586 19.5756 0.0817094C19.8371 0.212477 20.0017 0.478629 20.0017 0.769395V19.2308C20.0017 19.5215 19.8371 19.7877 19.5771 19.9184C19.4679 19.9723 19.3494 20 19.2325 20C19.0694 20 18.9063 19.9477 18.771 19.8461L6.46338 10.6155C6.26953 10.4708 6.15569 10.2416 6.15569 10.0001C6.15569 9.75854 6.26953 9.52931 6.46338 9.3847Z" fill="white"/>
<path d="M0.771186 0H2.30963C2.73425 0 3.07886 0.344612 3.07886 0.769223V19.2306C3.07886 19.6552 2.73425 19.9998 2.30963 19.9998H0.771186C0.346575 19.9998 0.00196266 19.6552 0.00196266 19.2306V0.769223C0.00196266 0.344612 0.346575 0 0.771186 0Z" fill="white"/>
</g>
<defs>
<clipPath id="clip0_28_5557">
<rect width="20" height="20" fill="white" transform="matrix(-1 0 0 1 20 0)"/>
</clipPath>
</defs>
</svg>
