<svg width="57" height="53" viewBox="0 0 57 53" fill="none" xmlns="http://www.w3.org/2000/svg">
<path d="M-1.52767e-05 8.16522L0.0443407 8.50009L0.649147 12.922L3.20142 31.6707L15.6846 39.3647C16.3378 39.7682 16.8983 42.5278 17.1644 43.2218C18.0272 45.469 18.7772 47.8051 19.765 49.9999C19.9667 50.4518 20.1481 51.6742 20.5957 51.9486C21.4948 52.5013 25.1559 51.7428 26.2849 51.6702C30.4661 51.3999 34.6957 50.7866 38.5221 48.9832C41.5461 47.5549 44.2274 45.5376 47.0741 43.8068C48.8159 42.7497 50.7553 42.0881 52.5939 41.2368C53.8237 40.6679 56.4808 39.5785 56.9566 38.1301C57.0937 37.7105 56.88 37.2667 56.6784 36.8794C55.7994 35.1768 55.2148 33.1232 54.1785 31.5416C53.2229 30.0852 52.0415 28.7699 51.1101 27.273C49.2312 24.2673 47.574 21.092 45.2274 18.409C41.2357 13.8419 37.877 8.62516 33.7643 4.07415C31.9378 2.05282 26.2445 0.128318 23.5229 0.0153493C21.0472 -0.0855154 18.6482 0.321981 16.5475 0.906996C14.8581 1.38308 13.3581 1.97616 12.1768 2.50873C10.443 3.29547 9.38658 3.96118 9.38658 3.96118L-1.52767e-05 8.16522Z" fill="#EED9CE"/>
</svg>
