<svg width="8" height="37" viewBox="0 0 8 37" fill="none" xmlns="http://www.w3.org/2000/svg">
<path d="M3.49298 0.425978C4.89057 -1.00962 6.2593 1.54806 6.67982 2.71551C7.80119 5.83835 7.13331 9.56348 6.2222 12.6451C5.11732 16.3991 3.26624 19.8354 2.2768 23.6348C1.15131 27.9664 0.322648 32.3021 0.491678 36.7945C0.504045 37.0709 0.0794128 37.0668 0.0629223 36.7945C-0.320487 30.9366 1.08534 24.3898 3.27036 18.9691C4.37112 16.2341 5.61204 13.6021 6.26342 10.7062C6.63034 9.0767 6.86121 7.37709 6.787 5.70635C6.75815 5.05042 5.63678 -1.18701 3.7857 0.710624C3.60018 0.908638 3.30746 0.615741 3.49298 0.425978Z" fill="#9B8580"/>
</svg>
