<svg width="20" height="20" viewBox="0 0 20 20" fill="none" xmlns="http://www.w3.org/2000/svg">
<path d="M12.4158 0H16.7583C17.0285 0 17.2476 0.219084 17.2476 0.489297V19.5107C17.2476 19.7809 17.0285 20 16.7583 20H12.4158C12.1456 20 11.9265 19.7809 11.9265 19.5107V0.489297C11.9265 0.219084 12.1456 0 12.4158 0Z" fill="white"/>
<path d="M3.24125 0H7.58376C7.85397 0 8.07305 0.219084 8.07305 0.489297V19.5107C8.07305 19.7809 7.85397 20 7.58376 20H3.24125C2.97104 20 2.75195 19.7809 2.75195 19.5107V0.489297C2.75195 0.219084 2.97104 0 3.24125 0Z" fill="white"/>
</svg>
