<svg width="28" height="18" viewBox="0 0 28 18" fill="none" xmlns="http://www.w3.org/2000/svg">
<path d="M24.0827 17.5198C22.2656 18.8296 10.9036 17.2228 7.23276 15.5388C-0.222684 12.1179 -0.954408 6.09361 0.789531 4.96279C1.00092 4.82449 1.23264 4.71873 1.48061 4.68619C2.06599 4.61704 2.60258 4.97906 3.0782 5.32482C2.8912 4.64144 2.21233 1.67609 4.02131 0.496458C6.45226 -1.08588 9.50924 1.59067 10.0092 1.92422C13.4768 4.24688 15.3508 4.64144 15.3508 4.64144C15.3508 4.64144 14.7411 -1.21198 19.5298 3.28283C21.0379 4.69839 23.8388 6.02039 25.3429 7.44409C26.9202 8.93693 27.8186 11.3735 26.908 13.4561" fill="#433735"/>
</svg>
