<svg width="3" height="1" viewBox="0 0 3 1" fill="none" xmlns="http://www.w3.org/2000/svg">
<path d="M2.31514 0.990672C2.17092 0.904983 2.10782 0.769679 1.97711 0.66144C1.78782 0.503592 1.53993 0.413396 1.30106 0.368296C1.08021 0.327707 0.841341 0.327705 0.629509 0.408884C0.431199 0.485553 0.381616 0.674976 0.201334 0.751645C0.151757 0.774195 0.106696 0.765174 0.0706399 0.715564C0.0571188 0.697525 0.043595 0.674973 0.0255667 0.656933C-0.0149966 0.602813 -0.00147552 0.535164 0.0255667 0.481045C0.255426 -0.0150499 0.917957 -0.05564 1.38669 0.0435789C1.78782 0.129268 2.50895 0.435947 2.43233 0.941062C2.43233 0.995182 2.3557 1.01322 2.31514 0.990672Z" fill="#F9F9F9"/>
</svg>
