<svg width="235" height="156" viewBox="0 0 235 156" fill="none" xmlns="http://www.w3.org/2000/svg">
<path d="M8.06954 99.5872C13.7676 90.5227 21.5732 83.3008 29.677 76.8008C36.4671 71.3491 43.9584 65.7362 46.759 57.0386C48.2903 52.2966 48.246 47.0546 49.9667 42.3933C52.2596 36.1796 59.364 28.6513 65.4167 25.9376C74.677 21.7843 85.8676 28.0827 95.4826 24.8448C99.4559 23.5061 100.504 20.9537 103.24 18.2722C106.169 15.4012 109.691 12.9012 113.076 10.5987C119.713 6.08259 127.064 2.45354 134.978 0.876914C148.917 -1.90133 163.787 2.06644 175.291 10.7318C182.207 15.9415 187.925 22.7762 192.2 30.4577C196.286 37.8046 198.092 45.9498 201.876 53.3692C208.968 67.2725 223.689 74.9782 230.652 88.9622C235.774 99.2566 235.983 111.837 233.287 123.188C230.592 134.535 225.228 144.886 219.594 154.858C219.566 154.902 219.542 154.942 219.518 154.983H210.217C174.723 154.862 21.7988 154.386 18.164 155.104H11.0959C5.94183 150.612 1.23912 138.204 0.300184 130.712C-1.06992 119.809 2.37552 108.652 8.06954 99.5872Z" fill="#EDDCFF"/>
</svg>
