<svg width="24" height="24" viewBox="0 0 24 24" fill="none" xmlns="http://www.w3.org/2000/svg">
<path d="M17.0002 13.4098L12.7102 9.16982C12.6172 9.07609 12.5066 9.0017 12.3848 8.95093C12.2629 8.90016 12.1322 8.87402 12.0002 8.87402C11.8682 8.87402 11.7375 8.90016 11.6156 8.95093C11.4938 9.0017 11.3832 9.07609 11.2902 9.16982L7.05019 13.4098C6.95646 13.5028 6.88207 13.6134 6.8313 13.7352C6.78053 13.8571 6.75439 13.9878 6.75439 14.1198C6.75439 14.2518 6.78053 14.3825 6.8313 14.5044C6.88207 14.6263 6.95646 14.7369 7.05019 14.8298C7.23756 15.0161 7.49101 15.1206 7.75519 15.1206C8.01938 15.1206 8.27283 15.0161 8.46019 14.8298L12.0002 11.2898L15.5402 14.8298C15.7265 15.0146 15.9779 15.1187 16.2402 15.1198C16.3718 15.1206 16.5023 15.0954 16.6241 15.0456C16.7459 14.9958 16.8568 14.9225 16.9502 14.8298C17.0473 14.7402 17.1256 14.6322 17.1807 14.5122C17.2358 14.3921 17.2666 14.2623 17.2713 14.1302C17.2759 13.9982 17.2543 13.8666 17.2078 13.7429C17.1613 13.6193 17.0907 13.506 17.0002 13.4098Z" fill="white"/>
</svg>
