<svg width="13" height="19" viewBox="0 0 13 19" fill="none" xmlns="http://www.w3.org/2000/svg">
<path d="M2.20792 3.09793C1.17 3.94177 0.707795 5.29274 0.40777 6.59908C-0.0422679 8.56265 -0.220666 10.6479 0.403712 12.5628C0.582105 13.1064 0.359114 15.6218 0.784826 15.5487C0.918621 15.5284 1.21865 13.6014 1.72545 12.6196C2.51606 11.0982 5.02573 10.8913 5.93797 12.0841C7.06915 13.5608 6.34341 14.6035 5.84066 16.0761C5.46766 17.1715 5.83661 18.5468 7.17456 18.9241C8.42332 19.2771 8.06247 18.3318 8.56116 17.4474C9.63152 15.5406 10.7505 13.8732 11.4682 11.7514C12.5993 8.40443 13.5319 3.32511 10.0329 1.00859C9.15716 0.428444 6.27043 -0.277463 5.29737 0.112005" fill="#433735"/>
</svg>
