<svg width="50" height="50" viewBox="0 0 50 50" fill="none" xmlns="http://www.w3.org/2000/svg">
<path d="M25 50C38.8071 50 50 38.8071 50 25C50 11.1929 38.8071 0 25 0C11.1929 0 0 11.1929 0 25C0 38.8071 11.1929 50 25 50Z" fill="#07E5CA"/>
<path d="M30.962 49.2828C41.2277 46.7708 49.005 37.9205 49.9102 27.1146L34.4461 11.6505L19.4928 13.2489L15.4854 26.2521L21.6316 32.2356L17.8486 36.2101L30.962 49.2828Z" fill="#00B59B"/>
<path d="M22.8604 17.3146L22.3262 20.4454L24.5811 20.339C27.1494 20.2169 29.6875 20.9855 31.5449 22.7638C35.127 26.1935 35.4316 31.8527 32.2383 35.6466C30.3809 37.8536 27.6592 39.0909 24.8359 39.0909C24.2148 39.0909 23.5889 39.0314 22.9658 38.9083L22.7676 38.8693C20.8887 38.4991 19.1875 37.5792 17.8486 36.2101C16.5391 34.8702 15.668 33.1945 15.3232 31.3556L21.0498 30.8937C21.4941 32.1173 22.5605 33.0558 23.8633 33.3126L24.0615 33.3517C25.4922 33.6339 26.9648 33.1154 27.9043 31.9991C29.1797 30.4845 29.0586 28.2247 27.6279 26.8546C26.8857 26.1437 25.8721 25.7657 24.8467 25.8126L15.4854 26.2521L18.1299 11.6505H34.4461V17.3146H22.8604Z" fill="#F8FFFB"/>
<path d="M31.5449 22.7638C35.127 26.1935 35.4316 31.8527 32.2383 35.6466C30.417 37.8107 27.7646 39.0431 25 39.089V33.424C26.1104 33.3791 27.1699 32.8713 27.9043 31.9992C29.1797 30.4845 29.0586 28.2248 27.6279 26.8546C26.9229 26.1789 25.9727 25.8039 25 25.8087V20.3273C27.4238 20.3039 29.7881 21.0822 31.5449 22.7638Z" fill="#D8D8D8"/>
<path d="M25 11.6505H34.4463V17.3146H25V11.6505Z" fill="#D8D8D8"/>
</svg>
