<svg width="24" height="24" viewBox="0 0 24 24" fill="none" xmlns="http://www.w3.org/2000/svg">
<path d="M8.45977 11.29L14.1198 5.64004C14.2127 5.54631 14.3233 5.47191 14.4452 5.42115C14.5671 5.37038 14.6978 5.34424 14.8298 5.34424C14.9618 5.34424 15.0925 5.37038 15.2144 5.42115C15.3362 5.47191 15.4468 5.54631 15.5398 5.64004C15.726 5.8274 15.8306 6.08085 15.8306 6.34504C15.8306 6.60922 15.726 6.86267 15.5398 7.05004L10.5898 12.05L15.5398 17C15.726 17.1874 15.8306 17.4409 15.8306 17.705C15.8306 17.9692 15.726 18.2227 15.5398 18.41C15.4472 18.5045 15.3367 18.5797 15.2148 18.6312C15.093 18.6827 14.9621 18.7095 14.8298 18.71C14.6975 18.7095 14.5666 18.6827 14.4447 18.6312C14.3228 18.5797 14.2124 18.5045 14.1198 18.41L8.45977 12.76C8.35827 12.6664 8.27726 12.5527 8.22185 12.4262C8.16645 12.2997 8.13784 12.1631 8.13784 12.025C8.13784 11.8869 8.16645 11.7503 8.22185 11.6238C8.27726 11.4973 8.35827 11.3837 8.45977 11.29Z" fill="#9C4DF4"/>
</svg>
