<svg width="5" height="5" viewBox="0 0 5 5" fill="none" xmlns="http://www.w3.org/2000/svg">
<path d="M4.90986 0.251334C2.69367 1.03238 0.956027 2.41315 0.444956 4.81672C0.333449 4.73304 0.221942 4.64471 0.110436 4.56103C0.681906 4.19375 1.17904 3.73814 1.59719 3.2035C1.89454 2.82227 2.10826 2.31553 2.45672 1.97615C2.8377 1.60887 3.43705 1.48334 3.88772 1.77623C3.9156 1.79482 3.89701 1.84132 3.86449 1.82738C2.86093 1.45545 2.28946 3.01288 1.81555 3.59402C1.38811 4.12401 0.881691 4.54708 0.338098 4.95155C0.166192 5.08172 -0.0289455 4.86786 0.00357734 4.69584C0.463542 2.41315 2.42884 0.139766 4.87269 0.000294212C5.03066 -0.00900393 5.03995 0.204843 4.90986 0.251334Z" fill="black"/>
</svg>
