<svg width="32" height="35" viewBox="0 0 32 35" fill="none" xmlns="http://www.w3.org/2000/svg">
<path d="M13.5039 26.4055C13.5039 26.4055 2.92605 32.8583 0.454326 19.8005C-0.146125 14.3971 -0.894632 5.61513 3.60464 2.18299C8.10391 -1.24915 18.4555 -1.64422 18.6817 8.54521C18.2869 11.4712 18.4021 11.6975 18.4021 11.6975C18.4021 11.6975 22.2844 10.6275 21.4413 15.4671C20.9931 17.6606 20.409 18.4507 20.409 18.4507C20.409 18.4507 28.3506 24.673 28.3589 24.6812C29.0909 25.2532 29.7037 26.208 30.7154 25.7471C30.8265 25.6977 30.9334 25.6318 31.0527 25.6113C31.1719 25.5907 31.3118 25.6277 31.3735 25.7347C31.4105 25.8006 31.4064 25.8829 31.4105 25.9611C31.4228 26.352 31.575 26.7183 31.6778 27.0928C32.0767 28.529 31.6613 29.8747 30.9046 31.1175C30.263 32.171 29.35 33.0682 28.2725 33.669C27.2402 34.2451 26.0804 34.5579 24.9165 34.7678C23.4524 35.0311 21.902 35.134 20.4543 34.7307C19.566 34.4838 18.9614 34.2081 18.3445 33.4879C18.2293 33.3521 18.1183 33.2122 18.0401 33.0517C17.8633 32.6896 17.8551 32.2739 17.8592 31.8706C17.8592 31.813 17.8633 31.7554 17.9003 31.7101C17.9373 31.6649 18.0031 31.6566 18.0607 31.6484C18.7064 31.5414 18.2787 31.1998 18.0114 30.92C17.744 30.6401 17.4726 30.3644 17.2012 30.0846C16.6336 29.5043 16.0578 28.9282 15.4821 28.3521C14.8199 27.7018 14.1619 27.0516 13.5039 26.4055Z" fill="#FE8E68"/>
</svg>
