<svg width="192" height="192" viewBox="0 0 192 192" fill="none" xmlns="http://www.w3.org/2000/svg">
<g filter="url(#filter0_d_44_2038)">
<rect x="70.2718" y="45.1747" width="51.4565" height="51.4565" rx="10" fill="white"/>
</g>
<g clip-path="url(#clip0_44_2038)">
<path d="M97.221 60.4487C96.968 60.4492 96.7467 60.2783 96.6832 60.0333C96.6197 59.7884 96.7301 59.5315 96.9515 59.409C101.19 57.058 106.368 55.3058 108.186 57.4461C108.385 57.6795 108.357 58.03 108.124 58.2291C107.891 58.4281 107.54 58.4003 107.341 58.167C106.407 57.0696 102.724 57.4772 97.4894 60.3816C97.4069 60.4261 97.3147 60.4491 97.221 60.4487Z" fill="#E57E25"/>
<path d="M83.9409 75.2111C83.7135 75.2113 83.5091 75.0726 83.4252 74.8613C82.6661 72.9511 84.3856 69.6652 88.0274 66.0699C88.2485 65.8776 88.5811 65.8905 88.7866 66.0994C88.9921 66.3082 88.9996 66.641 88.8037 66.8589C85.1502 70.4686 83.9874 73.2732 84.4554 74.4515C84.5234 74.6222 84.5024 74.8155 84.3994 74.9676C84.2963 75.1198 84.1246 75.211 83.9409 75.2111Z" fill="#E57E25"/>
<path d="M94.9248 60.5292C94.8301 60.5292 94.7369 60.505 94.6542 60.4588C89.2657 57.438 85.7331 57.1136 84.7289 58.0878C84.5096 58.3022 84.1581 58.2982 83.9437 58.0789C83.7294 57.8597 83.7333 57.5081 83.9526 57.2938C85.9238 55.3753 91.0501 57.1707 95.1915 59.4907C95.4121 59.6139 95.5215 59.8706 95.4575 60.1151C95.3936 60.3595 95.1725 60.5298 94.9198 60.5292H94.9248Z" fill="#E57E25"/>
<path d="M108.083 75.1561C107.902 75.1561 107.733 75.0682 107.629 74.9206C107.525 74.773 107.5 74.5841 107.561 74.4142C108.084 72.9598 106.372 69.9944 103.198 66.8593C102.986 66.6431 102.987 66.2969 103.2 66.0815C103.412 65.8661 103.758 65.8611 103.977 66.0703C107.564 69.614 109.294 72.8733 108.604 74.789C108.525 75.009 108.316 75.1558 108.083 75.1561Z" fill="#E57E25"/>
<path d="M91.565 82.547H89.9016C89.5953 82.547 89.3471 82.2988 89.3471 81.9925C89.3471 81.6863 89.5953 81.4381 89.9016 81.4381H91.565C91.8713 81.4381 92.1195 81.6863 92.1195 81.9925C92.1195 82.2988 91.8713 82.547 91.565 82.547Z" fill="#7F8284"/>
<path d="M102.1 82.547H100.436C100.13 82.547 99.882 82.2988 99.882 81.9925C99.882 81.6863 100.13 81.4381 100.436 81.4381H102.1C102.406 81.4381 102.654 81.6863 102.654 81.9925C102.654 82.2988 102.406 82.547 102.1 82.547Z" fill="#7F8284"/>
<path d="M105.937 67.9865C105.717 70.2603 104.721 72.389 103.115 74.0137C101.427 75.6852 100.465 77.954 100.437 80.3294H91.5647C91.5608 79.154 91.3174 77.9919 90.8494 76.9137C90.3803 75.8339 89.7147 74.8506 88.8866 74.0137C86.3322 71.4225 85.3925 67.6454 86.4349 64.1593C87.4772 60.6733 90.3361 58.032 93.8936 57.2682C94.1498 57.2159 94.3346 56.9918 94.3372 56.7303V56.4864C94.3372 55.5677 95.0819 54.8229 96.0006 54.8229C96.9193 54.8229 97.6641 55.5677 97.6641 56.4864V56.7303C97.6667 56.9918 97.8515 57.2159 98.1077 57.2682C103.059 58.3365 106.425 62.9446 105.937 67.9865Z" fill="#F0C419"/>
<path d="M104.164 67.9865C104.014 70.1828 103.206 72.2831 101.845 74.0137C100.415 75.8077 99.6392 78.0353 99.645 80.3294H92.3568C92.3557 79.1658 92.1569 78.0108 91.769 76.9137C91.3995 75.8628 90.8543 74.8822 90.1566 74.0137C88.7959 72.2831 87.9878 70.1828 87.8377 67.9865C87.4368 62.7798 90.3252 58.294 94.2698 57.2682C94.4975 57.1901 94.6461 56.9708 94.6341 56.7303V56.4864C94.5592 55.6517 95.1676 54.9113 96.0009 54.8229C96.38 54.8314 96.735 55.0107 96.9668 55.3109C97.2313 55.6451 97.3729 56.0601 97.3677 56.4864V56.7303C97.3557 56.9708 97.5043 57.1901 97.732 57.2682C101.677 58.294 104.565 62.7798 104.164 67.9865Z" fill="#F3D55B"/>
<path d="M100.436 80.3293V83.6562C100.435 84.2679 99.9392 84.7634 99.3275 84.7652H92.6736C92.0619 84.7634 91.5665 84.2679 91.5646 83.6562V80.3293H100.436Z" fill="#95A5A5"/>
<path d="M98.7732 85.0426C98.7732 86.1128 97.5311 86.9833 96.0007 86.9833C94.4704 86.9833 93.2283 86.1128 93.2283 85.0426C93.2281 84.9492 93.2393 84.8561 93.2616 84.7654H98.7399C98.7622 84.8561 98.7734 84.9492 98.7732 85.0426Z" fill="#393F4A"/>
<path d="M86.4342 76.4483C85.6214 76.4932 84.8168 76.2669 84.1464 75.8051C83.9795 75.6872 83.8911 75.487 83.9162 75.2842C83.9413 75.0814 84.076 74.9088 84.2666 74.8351C84.4572 74.7615 84.6729 74.7986 84.8279 74.9318C85.623 75.5512 87.409 75.4669 89.7279 74.7017C91.8241 73.9816 93.8319 73.0265 95.713 71.8544C96.4427 71.4108 97.1547 70.9456 97.8367 70.4754C100.565 68.6301 103.031 66.4251 105.17 63.9202C106.979 61.7161 107.88 59.7488 107.581 58.657C107.502 58.3625 107.676 58.0598 107.97 57.9794C108.264 57.8989 108.568 58.0708 108.65 58.3642C109.17 60.2623 107.511 62.8157 106.028 64.6233C103.824 67.2081 101.281 69.4836 98.4677 71.3881C97.7707 71.8705 97.0383 72.3462 96.2897 72.8026C94.3354 74.0189 92.2496 75.0098 90.0722 75.7563C88.9017 76.1704 87.675 76.4038 86.4342 76.4483Z" fill="#F29C1F"/>
<path d="M105.566 76.4522C104.324 76.4099 103.096 76.1746 101.927 75.7546C99.7507 75.0081 97.6662 74.0176 95.7131 72.802C94.9634 72.3451 94.2309 71.8693 93.5339 71.3864C90.7209 69.4819 88.1778 67.2064 85.9735 64.6216C84.4725 62.7918 82.8018 60.2129 83.3674 58.3121C83.4563 58.0207 83.7637 57.8557 84.0557 57.9425C84.3478 58.0293 84.515 58.3355 84.4303 58.6281C84.1082 59.7144 85.0059 61.6923 86.8329 63.9185C88.971 66.4235 91.4372 68.6287 94.1649 70.4742C94.8447 70.945 95.5589 71.4097 96.2897 71.8544C98.1696 73.0258 100.176 73.9804 102.271 74.7C104.699 75.5012 106.573 75.55 107.287 74.8309C107.503 74.6136 107.854 74.6125 108.071 74.8284C108.289 75.0443 108.29 75.3954 108.074 75.6127C107.385 76.2186 106.481 76.5212 105.566 76.4522Z" fill="#F29C1F"/>
<path d="M84.0792 77.0022C85.1511 77.0022 86.0199 76.1333 86.0199 75.0614C86.0199 73.9896 85.1511 73.1207 84.0792 73.1207C83.0074 73.1207 82.1385 73.9896 82.1385 75.0614C82.1385 76.1333 83.0074 77.0022 84.0792 77.0022Z" fill="#3B97D3"/>
<path d="M84.0792 59.8131C85.1511 59.8131 86.0199 58.9442 86.0199 57.8724C86.0199 56.8006 85.1511 55.9317 84.0792 55.9317C83.0074 55.9317 82.1385 56.8006 82.1385 57.8724C82.1385 58.9442 83.0074 59.8131 84.0792 59.8131Z" fill="#3B97D3"/>
<path d="M107.922 77.0022C108.994 77.0022 109.863 76.1333 109.863 75.0614C109.863 73.9896 108.994 73.1207 107.922 73.1207C106.851 73.1207 105.982 73.9896 105.982 75.0614C105.982 76.1333 106.851 77.0022 107.922 77.0022Z" fill="#3B97D3"/>
<path d="M107.922 59.8131C108.994 59.8131 109.863 58.9442 109.863 57.8724C109.863 56.8006 108.994 55.9317 107.922 55.9317C106.851 55.9317 105.982 56.8006 105.982 57.8724C105.982 58.9442 106.851 59.8131 107.922 59.8131Z" fill="#3B97D3"/>
<path d="M89.0614 64.1067C88.8691 64.1067 88.6906 64.0071 88.5896 63.8435C88.4886 63.6799 88.4795 63.4757 88.5657 63.3038C89.6069 61.2186 91.4755 59.6662 93.7163 59.0248C93.909 58.9635 94.1199 59.012 94.2665 59.1513C94.4131 59.2907 94.4722 59.4988 94.4207 59.6944C94.3692 59.89 94.2153 60.042 94.0191 60.0911C92.0778 60.6475 90.4592 61.9931 89.5576 63.8001C89.4637 63.9881 89.2715 64.1068 89.0614 64.1067Z" fill="white"/>
</g>
<defs>
<filter id="filter0_d_44_2038" x="0" y="0" width="192" height="192" filterUnits="userSpaceOnUse" color-interpolation-filters="sRGB">
<feFlood flood-opacity="0" result="BackgroundImageFix"/>
<feColorMatrix in="SourceAlpha" type="matrix" values="0 0 0 0 0 0 0 0 0 0 0 0 0 0 0 0 0 0 127 0" result="hardAlpha"/>
<feOffset dy="25"/>
<feGaussianBlur stdDeviation="35"/>
<feColorMatrix type="matrix" values="0 0 0 0 0.0392157 0 0 0 0 0.0117647 0 0 0 0 0.235294 0 0 0 0.15 0"/>
<feBlend mode="normal" in2="BackgroundImageFix" result="effect1_dropShadow_44_2038"/>
<feBlend mode="normal" in="SourceGraphic" in2="effect1_dropShadow_44_2038" result="shape"/>
</filter>
<clipPath id="clip0_44_2038">
<rect width="32.0359" height="32.0359" fill="white" transform="translate(79.9205 54.8229) scale(1.00388)"/>
</clipPath>
</defs>
</svg>
