<svg width="18" height="18" viewBox="0 0 18 18" fill="none" xmlns="http://www.w3.org/2000/svg">
<path d="M2.75321 2.12402C2.75272 2.12402 2.75218 2.12402 2.75169 2.12402C2.58145 2.12402 2.42133 2.19039 2.30042 2.31099C2.17817 2.43293 2.11084 2.5953 2.11084 2.76815V12.4267C2.11084 12.7808 2.40011 13.0697 2.75575 13.0706C4.25503 13.0742 6.76692 13.3867 8.49978 15.2001V5.09215C8.49978 4.97209 8.46911 4.8593 8.41123 4.76597C6.98898 2.47554 4.25588 2.12754 2.75321 2.12402Z" fill="white"/>
<path d="M15.8889 12.4267V2.76815C15.8889 2.5953 15.8215 2.43293 15.6993 2.31099C15.5784 2.19039 15.4181 2.12402 15.2481 2.12402C15.2475 2.12402 15.247 2.12402 15.2465 2.12402C13.7439 2.1276 11.0108 2.4756 9.58848 4.76603C9.53061 4.85937 9.5 4.97215 9.5 5.09222V15.2001C11.2329 13.3867 13.7447 13.0742 15.244 13.0706C15.5996 13.0697 15.8889 12.7808 15.8889 12.4267Z" fill="white"/>
<path d="M17.3562 4.35156H16.8891V12.4268C16.8891 13.3311 16.1524 14.0685 15.2467 14.0707C13.975 14.0738 11.8781 14.3224 10.3931 15.728C12.9614 15.0991 15.669 15.5079 17.212 15.8595C17.4047 15.9034 17.6038 15.8581 17.7581 15.7351C17.9119 15.6123 18.0002 15.4289 18.0002 15.232V4.99556C18.0002 4.64047 17.7113 4.35156 17.3562 4.35156Z" fill="white"/>
<path d="M1.11103 12.4268V4.35156H0.644002C0.288971 4.35156 0 4.64047 0 4.99556V15.2318C0 15.4288 0.0882427 15.6121 0.242061 15.7349C0.396304 15.8578 0.595214 15.9034 0.788184 15.8594C2.33122 15.5077 5.0388 15.0989 7.60706 15.7278C6.12208 14.3223 4.02523 14.0737 2.75352 14.0707C1.84788 14.0685 1.11103 13.3311 1.11103 12.4268Z" fill="white"/>
</svg>
