<svg width="192" height="192" viewBox="0 0 192 192" fill="none" xmlns="http://www.w3.org/2000/svg">
<g filter="url(#filter0_d_44_2061)">
<rect x="70.2718" y="45.1747" width="51.4565" height="51.4565" rx="10" fill="white"/>
</g>
<g clip-path="url(#clip0_44_2061)">
<path d="M84.688 71.6409H83.1466C82.8813 71.6414 82.6535 71.8296 82.6032 72.09L80.1745 84.5549C80.1115 84.8805 80.1975 85.2173 80.409 85.4728C80.6205 85.7282 80.9352 85.8757 81.2668 85.8746H93.2272C93.2272 86.4845 94.4692 86.9836 95.9996 86.9836C97.53 86.9836 98.772 86.4845 98.772 85.8746H110.732C111.064 85.8757 111.379 85.7282 111.59 85.4728C111.802 85.2173 111.888 84.8805 111.825 84.5549L109.396 72.09C109.346 71.8296 109.118 71.6414 108.853 71.6409H84.688Z" fill="#E64C3C"/>
<path d="M95.9998 73.2541V83.6563C95.1886 83.304 94.3431 83.0364 93.4769 82.8579C90.1842 82.142 86.7602 82.3162 83.5571 83.3624C83.373 83.4186 83.1729 83.3761 83.0276 83.2499C82.8822 83.1237 82.812 82.9316 82.8418 82.7414L84.6882 71.6406L84.8435 70.7035C84.8832 70.4657 85.071 70.2801 85.3093 70.2433C85.6863 70.1878 86.0745 70.1324 86.4626 70.088C87.1402 71.4051 88.4969 72.2333 89.9781 72.2339C90.0779 72.2339 90.1721 72.2283 90.2664 72.2228C90.6356 72.194 90.9993 72.1156 91.3476 71.9899C91.3488 72.0017 91.3526 72.0131 91.3587 72.0232C91.7736 73.1852 92.8751 73.9602 94.109 73.9583C94.8038 73.9606 95.4758 73.7104 95.9998 73.2541Z" fill="#F5EFCA"/>
<path d="M108.442 83.3622C105.239 82.3159 101.815 82.1417 98.5227 82.8576C97.6564 83.0361 96.811 83.3037 95.9998 83.6561V73.2539C96.1164 73.1585 96.224 73.0527 96.3214 72.9378C96.8754 73.1582 97.4662 73.2711 98.0625 73.2705H98.0957C98.1245 73.667 98.2756 74.0448 98.5282 74.3517C99.0664 74.8838 99.7392 75.2595 100.474 75.4385C101.008 75.6089 101.484 75.9236 101.85 76.3479C102.176 76.7517 102.728 76.8937 103.208 76.6972C103.631 76.5146 103.905 76.0987 103.907 75.6382C103.907 75.5177 103.889 75.3979 103.851 75.2833C103.796 75.1114 103.735 74.9395 103.663 74.7732C103.524 74.4296 103.341 74.1053 103.119 73.8083C104.219 73.2136 104.991 72.154 105.221 70.925C105.238 70.9028 105.26 70.8806 105.276 70.8585C105.466 70.6352 105.621 70.3848 105.737 70.1155C106.058 70.1543 106.374 70.1931 106.69 70.243C106.929 70.2799 107.116 70.4654 107.156 70.7032L107.311 71.6403L109.158 82.7412C109.188 82.9313 109.117 83.1234 108.972 83.2496C108.827 83.3758 108.627 83.4184 108.442 83.3622Z" fill="#F9EAB0"/>
<path d="M98.7717 85.874C98.7717 86.4839 97.5296 86.983 95.9993 86.983C94.4689 86.983 93.2268 86.4839 93.2268 85.874L93.4763 82.8576C94.3426 83.0361 95.188 83.3037 95.9993 83.6561C96.8105 83.3037 97.6559 83.0361 98.5222 82.8576L98.7717 85.874Z" fill="#C03A2B"/>
<path d="M105.98 68.9564C105.98 69.3554 105.897 69.75 105.736 70.1153C105.621 70.3846 105.466 70.6351 105.276 70.8583C105.26 70.8805 105.237 70.9027 105.221 70.9249C104.991 72.1539 104.219 73.2135 103.119 73.8082C103.341 74.1052 103.524 74.4295 103.663 74.773C103.735 74.9394 103.796 75.1113 103.851 75.2832C103.888 75.3977 103.907 75.5175 103.907 75.638C103.905 76.0986 103.631 76.5145 103.208 76.6971C102.728 76.8936 102.175 76.7516 101.849 76.3478C101.484 75.9235 101.008 75.6088 100.474 75.4384C99.739 75.2593 99.0663 74.8837 98.5281 74.3516C98.2755 74.0446 98.1244 73.6669 98.0956 73.2704H98.0623C97.4661 73.2709 96.8752 73.158 96.3212 72.9377C96.2238 73.0526 96.1162 73.1584 95.9996 73.2537C95.4756 73.71 94.8036 73.9602 94.1088 73.9579C92.8749 73.9598 91.7734 73.1848 91.3585 72.0228C91.3524 72.0126 91.3486 72.0013 91.3474 71.9895C90.9991 72.1152 90.6354 72.1936 90.2662 72.2224C90.1719 72.2279 90.0777 72.2335 89.9778 72.2335C88.4792 72.2324 87.1094 71.3859 86.4383 70.0459C85.7671 68.706 85.9095 67.102 86.8062 65.9012C86.7395 65.7201 86.7057 65.5286 86.7064 65.3356C86.703 64.5162 87.2786 63.8083 88.0815 63.6444C88.0845 63.6414 88.0884 63.6395 88.0926 63.6389C88.087 63.5724 88.0815 63.5058 88.0815 63.4337C88.0808 63.1262 88.145 62.822 88.27 62.541C88.6238 61.7228 89.4302 61.1932 90.3216 61.1936C90.6578 61.192 90.9899 61.2679 91.292 61.4154C91.8823 60.4215 92.9528 59.8125 94.1088 59.8129C94.9019 59.81 95.6681 60.1003 96.2602 60.628C96.6001 60.0797 97.2184 59.7679 97.8613 59.8205C98.5043 59.8731 99.0636 60.2813 99.3099 60.8775C99.4682 60.8599 99.6274 60.8506 99.7867 60.8498C101.935 60.8534 103.723 62.5015 103.901 64.6425H103.918C104.375 64.6425 104.813 64.8244 105.135 65.1479C105.458 65.4715 105.638 65.9101 105.637 66.367C105.636 66.6657 105.559 66.9594 105.415 67.2209C105.783 67.7247 105.981 68.3326 105.98 68.9564Z" fill="#FB7B76"/>
<path d="M95.9994 56.4864C95.6931 56.4864 95.4449 56.2381 95.4449 55.9319V55.3774C95.4449 55.0712 95.6931 54.8229 95.9994 54.8229C96.3056 54.8229 96.5538 55.0712 96.5538 55.3774V55.9319C96.5538 56.2381 96.3056 56.4864 95.9994 56.4864Z" fill="#F0C419"/>
<path d="M104.936 60.3029C104.712 60.3028 104.51 60.1677 104.424 59.9605C104.338 59.7534 104.386 59.5149 104.544 59.3563L105.099 58.8019C105.238 58.6577 105.444 58.5999 105.638 58.6506C105.832 58.7014 105.983 58.8528 106.034 59.0467C106.085 59.2405 106.027 59.4467 105.883 59.5859L105.328 60.1404C105.224 60.2444 105.083 60.3028 104.936 60.3029Z" fill="#F0C419"/>
<path d="M87.063 60.3029C86.916 60.3028 86.7749 60.2444 86.671 60.1404L86.1165 59.5859C85.9723 59.4467 85.9145 59.2405 85.9653 59.0467C86.016 58.8528 86.1674 58.7014 86.3613 58.6506C86.5552 58.5999 86.7613 58.6577 86.9005 58.8019L87.455 59.3563C87.6136 59.5149 87.661 59.7534 87.5752 59.9605C87.4894 60.1677 87.2872 60.3028 87.063 60.3029Z" fill="#F0C419"/>
<path d="M91.3311 57.9696C91.1069 57.9696 90.9047 57.8346 90.8188 57.6275L90.1822 56.0904C90.1013 55.9065 90.1262 55.6932 90.2473 55.5329C90.3684 55.3725 90.5668 55.2903 90.7658 55.3178C90.9649 55.3454 91.1334 55.4785 91.2064 55.6657L91.8435 57.2027C91.9 57.3387 91.9002 57.4915 91.8439 57.6276C91.7876 57.7636 91.6796 57.8717 91.5435 57.928C91.4761 57.9555 91.404 57.9696 91.3311 57.9696Z" fill="#F0C419"/>
<path d="M100.668 57.9696C100.595 57.9694 100.523 57.9551 100.456 57.9274C100.32 57.8711 100.212 57.7632 100.155 57.6272C100.099 57.4913 100.099 57.3386 100.156 57.2027L100.793 55.6657C100.866 55.4785 101.034 55.3454 101.233 55.3178C101.432 55.2903 101.631 55.3725 101.752 55.5329C101.873 55.6932 101.898 55.9065 101.817 56.0904L101.18 57.6275C101.094 57.8346 100.892 57.9696 100.668 57.9696Z" fill="#F0C419"/>
<path d="M107.27 64.5716C107.005 64.5725 106.776 64.3854 106.724 64.1254C106.673 63.8653 106.812 63.605 107.057 63.5043L108.594 62.8677C108.778 62.7919 108.987 62.8196 109.144 62.9402C109.301 63.0608 109.382 63.2561 109.356 63.4525C109.33 63.649 109.202 63.8166 109.019 63.8924L107.482 64.529C107.415 64.557 107.343 64.5715 107.27 64.5716Z" fill="#F0C419"/>
<path d="M84.7298 64.5716C84.6569 64.5715 84.5847 64.557 84.5174 64.529L82.9809 63.8924C82.7979 63.8166 82.6692 63.649 82.6433 63.4525C82.6174 63.2561 82.6982 63.0608 82.8554 62.9402C83.0125 62.8196 83.2221 62.7919 83.4051 62.8677L84.9422 63.5043C85.1874 63.605 85.327 63.8653 85.2753 64.1254C85.2236 64.3854 84.9949 64.5725 84.7298 64.5716Z" fill="#F0C419"/>
<path d="M105.276 70.859C105.26 70.8812 105.237 70.9033 105.221 70.9255C105.123 71.4595 104.919 71.9686 104.622 72.4226C104.331 72.505 104.031 72.5461 103.729 72.5446C103.18 72.5431 102.638 72.412 102.149 72.162C101.917 72.0381 101.7 71.8893 101.5 71.7184C101.279 71.8041 101.044 71.8492 100.807 71.8515C100.075 71.8553 99.4037 71.4424 99.077 70.7869C98.9878 70.6096 99 70.3982 99.109 70.2324C99.218 70.0665 99.4072 69.9714 99.6053 69.9828C99.8034 69.9943 99.9804 70.1106 100.07 70.2879C100.179 70.4981 100.373 70.6516 100.603 70.7099C100.833 70.7681 101.076 70.7255 101.273 70.5928C101.495 70.4415 101.627 70.1904 101.628 69.9219C101.628 69.7934 101.6 69.6663 101.544 69.5504C101.433 69.2823 101.547 68.9734 101.806 68.8424C102.065 68.7114 102.382 68.8025 102.531 69.0513C102.666 69.3217 102.737 69.6197 102.737 69.9219C102.732 70.3093 102.61 70.6863 102.387 71.0032C102.476 71.0641 102.565 71.1251 102.653 71.175C102.986 71.3463 103.355 71.4357 103.729 71.4357C104.298 71.4388 104.848 71.2337 105.276 70.859Z" fill="#FF5364"/>
<path d="M98.4948 68.6819C99.2131 68.187 99.7071 67.4286 99.8694 66.5715C99.9106 66.3753 99.8428 66.1721 99.6919 66.0401C99.541 65.908 99.3306 65.8678 99.1416 65.9347C98.9526 66.0017 98.8145 66.1655 98.7804 66.363C98.6716 66.9349 98.3417 67.4409 97.8621 67.7709C96.9396 68.3922 95.7023 68.2512 94.9433 67.4382C94.7367 67.2116 94.3856 67.1953 94.159 67.4019C93.9324 67.6084 93.9161 67.9596 94.1227 68.1862C94.593 68.7055 95.2147 69.064 95.8998 69.2109C95.5891 69.6475 95.086 69.9063 94.5502 69.9051C94.2439 69.9051 93.9957 70.1534 93.9957 70.4596C93.9957 70.7659 94.2439 71.0141 94.5502 71.0141C95.698 71.0187 96.728 70.3097 97.1335 69.2359C97.6228 69.1545 98.0878 68.9653 98.4948 68.6819Z" fill="#FF5364"/>
<path d="M103.663 74.7742C103.255 74.9822 102.817 75.1245 102.365 75.1957C102.336 75.2003 102.306 75.2021 102.276 75.2012C101.984 75.2039 101.74 74.9796 101.718 74.6884C101.696 74.3972 101.904 74.1389 102.193 74.0978C102.515 74.0491 102.827 73.9519 103.119 73.8094C103.341 74.1064 103.524 74.4307 103.663 74.7742Z" fill="#FF5364"/>
<path d="M91.3086 70.9032C91.2806 71.0588 91.2657 71.2164 91.2642 71.3745C91.2631 71.5825 91.2911 71.7897 91.3474 71.99C90.999 72.1157 90.6354 72.194 90.2661 72.2229C90.1952 71.9512 90.1579 71.6719 90.1552 71.3911C89.1785 71.2846 88.4382 70.4606 88.4363 69.4781C88.4345 69.1693 88.682 68.9168 88.9908 68.9126C89.1372 68.9117 89.2779 68.9691 89.3819 69.072C89.4859 69.175 89.5447 69.3151 89.5453 69.4615V69.4781C89.5536 69.9163 89.9005 70.2729 90.3382 70.2932C90.4149 70.0431 90.521 69.803 90.6543 69.578C90.7287 69.4508 90.8514 69.3591 90.9944 69.3236C91.1374 69.2881 91.2887 69.3118 91.4139 69.3894C91.6747 69.5506 91.7585 69.8908 91.6025 70.1546C91.4617 70.3851 91.3622 70.6384 91.3086 70.9032Z" fill="#FF5364"/>
<path d="M99.5541 74.1471C99.2209 74.2537 98.8768 74.3225 98.5283 74.3522C98.2757 74.0453 98.1246 73.6675 98.0958 73.271C98.1494 73.272 98.2031 73.2701 98.2566 73.2654C98.5858 73.2445 98.9115 73.185 99.2269 73.088C99.4181 73.0224 99.6299 73.0661 99.7796 73.202C99.9293 73.3379 99.9931 73.5446 99.9462 73.7412C99.8992 73.9379 99.749 74.0934 99.5541 74.1471Z" fill="#FF5364"/>
<path d="M94.7801 64.2496C94.7801 63.9434 94.5318 63.6951 94.2256 63.6951C92.8175 63.6966 91.6764 64.8377 91.6749 66.2458C91.6749 66.552 91.9232 66.8002 92.2294 66.8002C92.5356 66.8002 92.7839 66.552 92.7839 66.2458C92.7839 65.8634 92.9358 65.4967 93.2062 65.2263C93.4765 64.956 93.8432 64.8041 94.2256 64.8041C94.5318 64.8041 94.7801 64.5558 94.7801 64.2496Z" fill="#FF5364"/>
<path d="M87.5427 67.3675C87.442 67.3676 87.3432 67.34 87.2571 67.2877C86.7999 67.0118 86.4539 66.5842 86.2796 66.0795C86.1952 65.8395 86.1523 65.5869 86.1526 65.3326C86.1526 64.0759 87.1693 63.0562 88.426 63.0525C89.146 63.0497 89.8239 63.3917 90.2497 63.9724C90.3679 64.1315 90.3922 64.3415 90.3135 64.5234C90.2348 64.7052 90.0651 64.8313 89.8683 64.8541C89.6714 64.8769 89.4774 64.793 89.3592 64.6339C89.1419 64.3374 88.7959 64.1626 88.4282 64.1637C87.9034 64.1666 87.4445 64.5183 87.3052 65.0243C87.1659 65.5303 87.38 66.0672 87.8294 66.3384C88.043 66.4669 88.1447 66.7221 88.0778 66.9623C88.0109 67.2025 87.792 67.3685 87.5427 67.3681V67.3675Z" fill="#FF5364"/>
<path d="M99.4416 62.0932C99.1353 62.0932 98.8871 61.845 98.8871 61.5388C98.8871 60.8946 98.3649 60.3724 97.7207 60.3724C97.0765 60.3724 96.5543 60.8946 96.5543 61.5388C96.5543 61.845 96.3061 62.0932 95.9999 62.0932C95.6936 62.0932 95.4454 61.845 95.4454 61.5388C95.4454 60.2821 96.4641 59.2634 97.7207 59.2634C98.9773 59.2634 99.9961 60.2821 99.9961 61.5388C99.9961 61.6858 99.9376 61.8269 99.8336 61.9308C99.7297 62.0348 99.5886 62.0932 99.4416 62.0932Z" fill="#FF5364"/>
<path d="M104.643 68.4867C104.385 68.4841 104.163 68.3047 104.107 68.0535C104.051 67.8023 104.175 67.5453 104.406 67.4331C104.627 67.3293 104.811 67.1596 104.932 66.9474C105.214 66.4667 105.116 65.8535 104.698 65.4848C104.279 65.1161 103.659 65.0954 103.217 65.4353C102.972 65.619 102.625 65.5694 102.441 65.3244C102.257 65.0794 102.307 64.7319 102.552 64.5481C102.94 64.2543 103.412 64.0941 103.899 64.0912C104.97 64.084 105.902 64.8236 106.138 65.8686C106.374 66.9136 105.851 67.9819 104.88 68.4356C104.806 68.4702 104.725 68.4876 104.643 68.4867Z" fill="#FF5364"/>
</g>
<defs>
<filter id="filter0_d_44_2061" x="0" y="0" width="192" height="192" filterUnits="userSpaceOnUse" color-interpolation-filters="sRGB">
<feFlood flood-opacity="0" result="BackgroundImageFix"/>
<feColorMatrix in="SourceAlpha" type="matrix" values="0 0 0 0 0 0 0 0 0 0 0 0 0 0 0 0 0 0 127 0" result="hardAlpha"/>
<feOffset dy="25"/>
<feGaussianBlur stdDeviation="35"/>
<feColorMatrix type="matrix" values="0 0 0 0 0.0392157 0 0 0 0 0.0117647 0 0 0 0 0.235294 0 0 0 0.15 0"/>
<feBlend mode="normal" in2="BackgroundImageFix" result="effect1_dropShadow_44_2061"/>
<feBlend mode="normal" in="SourceGraphic" in2="effect1_dropShadow_44_2061" result="shape"/>
</filter>
<clipPath id="clip0_44_2061">
<rect width="32.0359" height="32.0359" fill="white" transform="translate(79.9195 54.8229) scale(1.00388)"/>
</clipPath>
</defs>
</svg>
