<svg width="50" height="50" viewBox="0 0 50 50" fill="none" xmlns="http://www.w3.org/2000/svg">
<path d="M25 50C38.8071 50 50 38.8071 50 25C50 11.1929 38.8071 0 25 0C11.1929 0 0 11.1929 0 25C0 38.8071 11.1929 50 25 50Z" fill="#FF6529"/>
<path d="M49.4274 30.3345L32.2287 13.1359C32.2287 13.1359 19.2437 13.0811 19.2437 25.0389C19.2437 36.9967 19.2437 36.9967 19.2437 36.9967L31.4148 49.1678C40.4231 46.7828 47.4359 39.4961 49.4274 30.3345Z" fill="#E53B07"/>
<path d="M24.9753 21.1986C23.8243 21.1986 22.7235 21.4173 21.7121 21.8152C21.7912 20.7122 22.2407 19.6725 23 18.8567C24.3809 17.3731 26.5645 16.9027 28.4336 17.6865L30.0391 18.3595L32.2291 13.1359L30.6236 12.4628C26.5748 10.7653 21.8448 11.7841 18.8539 14.9978C17.0356 16.9514 16.0342 19.4971 16.0342 22.1659V29.7458V30.1396C16.0342 35.0698 20.0452 39.0808 24.9754 39.0808C29.9055 39.0808 33.9165 35.0699 33.9165 30.1396C33.9164 25.2096 29.9054 21.1986 24.9753 21.1986ZM24.9753 33.4167C23.1684 33.4167 21.6982 31.9466 21.6982 30.1396C21.6982 28.3326 23.1684 26.8625 24.9753 26.8625H24.9754C26.7823 26.8625 28.2524 28.3326 28.2524 30.1396C28.2523 31.9467 26.7822 33.4167 24.9753 33.4167Z" fill="#F8FFFB"/>
<path d="M28.4336 17.6863L30.0391 18.3592L32.2285 13.1355L30.623 12.4627C28.8125 11.7039 26.8662 11.4881 25 11.7684V17.5682C26.0986 17.1971 27.3223 17.2195 28.4336 17.6863ZM25 21.198V26.8621C25.8936 26.8689 26.7041 27.2361 27.291 27.823C27.8848 28.4168 28.252 29.2361 28.252 30.1395C28.252 31.9383 26.7959 33.4031 25 33.4168V39.0809C29.9189 39.0672 33.916 35.0613 33.916 30.1395C33.916 25.2166 29.9189 21.2117 25 21.198Z" fill="#D8D8D8"/>
</svg>
