<svg width="192" height="192" viewBox="0 0 192 192" fill="none" xmlns="http://www.w3.org/2000/svg">
<g filter="url(#filter0_d_44_2088)">
<rect x="70.2718" y="45.1747" width="51.4565" height="51.4565" rx="10" fill="white"/>
</g>
<g clip-path="url(#clip0_44_2088)">
<path d="M109.163 86.9826H99.6331C98.199 86.9826 97.0365 85.8201 97.0365 84.3861V74.8565C97.0365 73.4225 98.199 72.26 99.6331 72.26H109.163C110.597 72.26 111.759 73.4225 111.759 74.8565V84.3861C111.759 85.8201 110.597 86.9826 109.163 86.9826Z" fill="#BDF4E3"/>
<path d="M108.318 84.6889H100.478C99.8445 84.6889 99.331 84.1754 99.331 83.542V75.7019C99.331 75.0685 99.8445 74.555 100.478 74.555H108.318C108.951 74.555 109.465 75.0685 109.465 75.7019V83.542C109.465 84.1754 108.951 84.6889 108.318 84.6889Z" fill="#FFDCB6"/>
<path d="M109.163 72.26H106.353C107.455 72.26 108.348 73.1532 108.348 74.2549V81.5766C108.348 82.6784 107.455 83.5715 106.353 83.5715H99.0314C97.9296 83.5715 97.0365 82.6783 97.0365 81.5766V84.3861C97.0365 85.8201 98.199 86.9826 99.633 86.9826H109.163C110.597 86.9826 111.759 85.8201 111.759 84.3861V74.8565C111.759 73.4225 110.597 72.26 109.163 72.26Z" fill="#B1B7E3"/>
<path d="M108.348 74.556V81.5767C108.348 82.6784 107.455 83.5716 106.353 83.5716H99.3325C99.3486 84.1909 99.8546 84.6884 100.478 84.6884H108.318C108.951 84.6884 109.465 84.1749 109.465 83.5415V75.7014C109.465 75.0781 108.967 74.5721 108.348 74.556Z" fill="#EFA5B6"/>
<path d="M107.274 72.2459H97.7444C96.3104 72.2459 95.1478 71.0834 95.1478 69.6494V60.1199C95.1478 58.6858 96.3104 57.5233 97.7444 57.5233H107.274C108.708 57.5233 109.871 58.6858 109.871 60.1199V69.6494C109.87 71.0835 108.708 72.2459 107.274 72.2459Z" fill="#EF8BBD"/>
<path d="M106.429 69.9513H98.5888C97.9554 69.9513 97.4419 69.4378 97.4419 68.8044V60.9642C97.4419 60.3308 97.9554 59.8173 98.5888 59.8173H106.429C107.062 59.8173 107.576 60.3308 107.576 60.9642V68.8044C107.576 69.4378 107.062 69.9513 106.429 69.9513Z" fill="#FFDCB6"/>
<path d="M107.274 57.5233H104.464C105.566 57.5233 106.459 58.4165 106.459 59.5182V66.8399C106.459 67.9416 105.566 68.8348 104.464 68.8348H97.1428C96.041 68.8348 95.1478 67.9416 95.1478 66.8399V69.6494C95.1478 71.0834 96.3104 72.2459 97.7444 72.2459H107.274C108.708 72.2459 109.871 71.0834 109.871 69.6494V60.1199C109.87 58.6858 108.708 57.5233 107.274 57.5233Z" fill="#E068BD"/>
<path d="M106.459 59.8193V66.84C106.459 67.9417 105.566 68.8349 104.464 68.8349H97.4423C97.4585 69.4542 97.9656 69.9517 98.5889 69.9517H106.429C107.062 69.9517 107.576 69.4382 107.576 68.8048V60.9647C107.576 60.3414 107.078 59.8354 106.459 59.8193Z" fill="#EFA5B6"/>
<path d="M92.3682 86.9826H82.8386C81.4046 86.9826 80.242 85.8201 80.242 84.3861V74.8565C80.242 73.4225 81.4046 72.26 82.8386 72.26H92.3682C93.8022 72.26 94.9647 73.4225 94.9647 74.8565V84.3861C94.9647 85.8201 93.8022 86.9826 92.3682 86.9826Z" fill="#CAB4EF"/>
<path d="M91.5236 84.6879H83.6835C83.05 84.6879 82.5365 84.1744 82.5365 83.541V75.7009C82.5365 75.0675 83.05 74.554 83.6835 74.554H91.5236C92.157 74.554 92.6705 75.0675 92.6705 75.7009V83.5411C92.6705 84.1744 92.157 84.6879 91.5236 84.6879Z" fill="#FFDCB6"/>
<path d="M92.3691 72.26H89.5595C90.6613 72.26 91.5545 73.1532 91.5545 74.2549V81.5766C91.5545 82.6784 90.6613 83.5715 89.5595 83.5715H82.238C81.1361 83.5715 80.243 82.6784 80.243 81.5766V84.3861C80.2429 85.8201 81.4055 86.9826 82.8395 86.9826H92.3691C93.8031 86.9826 94.9657 85.8201 94.9657 84.3861V74.8565C94.9656 73.4225 93.8031 72.26 92.3691 72.26Z" fill="#BE87EF"/>
<path d="M91.5536 74.556V81.5766C91.5536 82.6784 90.6604 83.5715 89.5586 83.5715H82.538C82.5542 84.1909 83.0601 84.6883 83.6834 84.6883H91.5236C92.157 84.6883 92.6705 84.1748 92.6705 83.5414V75.7014C92.6704 75.0781 92.173 74.572 91.5536 74.556Z" fill="#EFA5B6"/>
<path d="M84.2573 79.8297C83.9104 79.8297 83.6292 79.5484 83.6292 79.2015V78.4252C83.6292 78.0783 83.9104 77.797 84.2573 77.797C84.6042 77.797 84.8854 78.0783 84.8854 78.4252V79.2015C84.8854 79.5484 84.6042 79.8297 84.2573 79.8297Z" fill="white"/>
<path d="M84.2573 77.2162C83.9104 77.2162 83.6292 76.9349 83.6292 76.588V76.3032C83.6292 75.9563 83.9104 75.675 84.2573 75.675C84.6042 75.675 84.8854 75.9563 84.8854 76.3032V76.588C84.8854 76.9349 84.6042 77.2162 84.2573 77.2162Z" fill="white"/>
<path d="M105.059 83.5356C104.725 83.514 104.472 83.2219 104.472 82.8873V76.9627H103.717C103.382 76.9627 103.09 76.7102 103.068 76.3764C103.045 76.0106 103.335 75.7064 103.695 75.7064H105.159C105.473 75.7064 105.729 75.9616 105.729 76.2763V82.9089C105.729 83.2696 105.424 83.5594 105.059 83.5356Z" fill="#D58A9C"/>
<path d="M102.204 68.8656C100.943 68.8656 100.851 68.8347 100.766 68.8065C100.557 68.7368 100.4 68.5785 100.337 68.3724C100.227 68.0169 100.381 67.8162 100.79 67.2796C101.125 66.8418 101.747 66.0269 102.79 64.5368C103.1 64.0936 103.3 63.6968 103.385 63.3564L103.407 63.1801C103.389 62.6151 102.923 62.1612 102.354 62.1612C101.851 62.1612 101.416 62.5184 101.32 63.0103C101.253 63.3508 100.922 63.5725 100.582 63.5057C100.242 63.4388 100.02 63.1087 100.087 62.7683C100.299 61.6887 101.252 60.905 102.354 60.905C103.628 60.905 104.664 61.9414 104.664 63.2154V63.2554L104.623 63.5807L104.616 63.6116C104.499 64.1156 104.231 64.6692 103.819 65.2572C103.039 66.3727 102.49 67.1161 102.119 67.608C102.739 67.6057 103.549 67.6024 104.307 67.5929C104.31 67.5929 104.312 67.5929 104.315 67.5929C104.658 67.5929 104.939 67.8689 104.943 68.2131C104.947 68.5599 104.67 68.8447 104.323 68.8491C103.385 68.8607 102.703 68.8656 102.204 68.8656Z" fill="#D58A9C"/>
<path d="M87.6026 80.2496C87.2557 80.2496 86.9745 79.9683 86.9745 79.6215C86.9745 79.2746 87.2557 78.9934 87.6026 78.9934C88.1839 78.9934 88.6567 78.5205 88.6567 77.9392C88.6567 77.358 88.1839 76.8852 87.6026 76.8852C87.0999 76.8852 86.6649 77.2423 86.5683 77.7343C86.5015 78.0747 86.1716 78.2968 85.8309 78.2296C85.4905 78.1628 85.2687 77.8326 85.3356 77.4923C85.5476 76.4126 86.501 75.629 87.6026 75.629C88.8766 75.629 89.913 76.6654 89.913 77.9393C89.913 79.2132 88.8766 80.2496 87.6026 80.2496Z" fill="#D58A9C"/>
<path d="M87.6031 83.6137C86.4569 83.6137 85.4732 82.7587 85.315 81.6248C85.3003 81.5191 85.2928 81.411 85.2928 81.3033C85.2928 80.9565 85.574 80.6752 85.9209 80.6752C86.2679 80.6752 86.5491 80.9565 86.5491 81.3033C86.5491 81.3529 86.5525 81.4026 86.5593 81.451C86.6314 81.9679 87.0802 82.3575 87.6032 82.3575C88.1845 82.3575 88.6573 81.8847 88.6573 81.3034C88.6573 80.7222 88.1845 80.2493 87.6032 80.2493C87.2563 80.2493 86.9751 79.968 86.9751 79.6212C86.9751 79.2743 87.2563 78.9931 87.6032 78.9931C88.8772 78.9931 89.9136 80.0295 89.9136 81.3034C89.9136 82.5773 88.8771 83.6137 87.6031 83.6137Z" fill="#D58A9C"/>
<path d="M91.0076 54.9858L91.5544 56.5232C91.5778 56.589 91.6241 56.6411 91.6826 56.6675L93.0486 57.283C93.2415 57.3699 93.2415 57.6774 93.0486 57.7643L91.6826 58.3797C91.6241 58.4061 91.5778 58.4583 91.5544 58.5241L91.0076 60.0616C90.9303 60.2788 90.6571 60.2788 90.5799 60.0616L90.0331 58.5241C90.0097 58.4583 89.9633 58.4061 89.9048 58.3797L88.5389 57.7643C88.3459 57.6774 88.3459 57.3699 88.5389 57.283L89.9048 56.6675C89.9633 56.6411 90.0097 56.589 90.0331 56.5232L90.5799 54.9858C90.6572 54.7686 90.9304 54.7686 91.0076 54.9858Z" fill="#F7C4DB"/>
<path d="M84.1503 68.3431C84.4028 67.7338 84.1136 67.0352 83.5043 66.7827C82.895 66.5301 82.1964 66.8193 81.9438 67.4285C81.6913 68.0378 81.9805 68.7364 82.5898 68.989C83.1991 69.2415 83.8977 68.9524 84.1503 68.3431Z" fill="#EF8BBD"/>
<path d="M85.5884 59.8987C85.6331 59.6231 85.4459 59.3635 85.1703 59.3188C84.8947 59.2741 84.6351 59.4613 84.5904 59.7369C84.5457 60.0125 84.7329 60.2721 85.0085 60.3168C85.2841 60.3615 85.5437 60.1743 85.5884 59.8987Z" fill="#EF8BBD"/>
<path d="M87.7617 64.3507L88.1673 65.4912C88.1847 65.54 88.2191 65.5787 88.2624 65.5982L89.2757 66.0547C89.4188 66.1192 89.4188 66.3473 89.2757 66.4118L88.2624 66.8683C88.219 66.8879 88.1847 66.9266 88.1673 66.9754L87.7617 68.1158C87.7045 68.2769 87.5018 68.2769 87.4445 68.1158L87.0389 66.9754C87.0215 66.9266 86.9871 66.8879 86.9438 66.8683L85.9305 66.4118C85.7874 66.3473 85.7874 66.1192 85.9305 66.0547L86.9438 65.5982C86.9872 65.5787 87.0215 65.54 87.0389 65.4912L87.4445 64.3507C87.5018 64.1896 87.7044 64.1896 87.7617 64.3507Z" fill="#F7C4DB"/>
</g>
<defs>
<filter id="filter0_d_44_2088" x="0" y="0" width="192" height="192" filterUnits="userSpaceOnUse" color-interpolation-filters="sRGB">
<feFlood flood-opacity="0" result="BackgroundImageFix"/>
<feColorMatrix in="SourceAlpha" type="matrix" values="0 0 0 0 0 0 0 0 0 0 0 0 0 0 0 0 0 0 127 0" result="hardAlpha"/>
<feOffset dy="25"/>
<feGaussianBlur stdDeviation="35"/>
<feColorMatrix type="matrix" values="0 0 0 0 0.0392157 0 0 0 0 0.0117647 0 0 0 0 0.235294 0 0 0 0.15 0"/>
<feBlend mode="normal" in2="BackgroundImageFix" result="effect1_dropShadow_44_2088"/>
<feBlend mode="normal" in="SourceGraphic" in2="effect1_dropShadow_44_2088" result="shape"/>
</filter>
<clipPath id="clip0_44_2088">
<rect width="32.0359" height="32.0359" fill="white" transform="translate(79.9205 54.8229) scale(1.00388)"/>
</clipPath>
</defs>
</svg>
