<svg width="2" height="6" viewBox="0 0 2 6" fill="none" xmlns="http://www.w3.org/2000/svg">
<path d="M0.121823 0.000558386C1.31921 -0.0370308 1.26756 1.83303 1.38025 2.6318C1.53052 3.71719 1.83573 5.11738 0.901299 5.93495C0.741648 6.07591 0.525646 5.97253 0.502168 5.77049C0.497472 5.71881 0.492777 5.66712 0.488082 5.62013C0.473995 5.50266 0.610169 5.46508 0.69469 5.50266C0.746342 5.52616 0.802688 5.54966 0.85434 5.57316C0.74634 5.60135 0.64304 5.62954 0.535041 5.65773C1.08443 4.82137 1.02338 4.0132 0.905992 3.06877C0.788601 2.11965 0.854342 0.855712 0.0419984 0.2073C-0.051914 0.13682 0.0279107 0.00525703 0.121823 0.000558386Z" fill="black"/>
</svg>
