<svg width="20" height="20" viewBox="0 0 20 20" fill="none" xmlns="http://www.w3.org/2000/svg">
<g clip-path="url(#clip0_28_5547)">
<path d="M13.5366 9.3847L1.22905 0.154016C0.998281 -0.0213665 0.684438 -0.0490586 0.424441 0.0817094C0.162905 0.212477 -0.00170898 0.478629 -0.00170898 0.769395V19.2308C-0.00170898 19.5215 0.162905 19.7877 0.422902 19.9184C0.532132 19.9723 0.650592 20 0.767514 20C0.93059 20 1.09367 19.9477 1.22905 19.8461L13.5366 10.6155C13.7305 10.4708 13.8443 10.2416 13.8443 10.0001C13.8443 9.75854 13.7305 9.52931 13.5366 9.3847Z" fill="white"/>
<path d="M19.2288 0H17.6904C17.2658 0 16.9211 0.344612 16.9211 0.769223V19.2306C16.9211 19.6552 17.2658 19.9998 17.6904 19.9998H19.2288C19.6534 19.9998 19.998 19.6552 19.998 19.2306V0.769223C19.998 0.344612 19.6534 0 19.2288 0Z" fill="white"/>
</g>
<defs>
<clipPath id="clip0_28_5547">
<rect width="20" height="20" fill="white"/>
</clipPath>
</defs>
</svg>
