<svg width="33" height="24" viewBox="0 0 33 24" fill="none" xmlns="http://www.w3.org/2000/svg">
<path d="M32.9664 17.0677C31.6331 16.2451 25.4044 12.2673 24.8441 10.8309C24.5864 10.1638 23.1714 8.10944 21.9526 6.18193C21.2287 5.04015 19.4006 2.80162 18.9384 2.32281C18.145 1.50024 17.004 -0.537758 16.3128 0.133392C15.4539 0.968238 16.7954 3.05535 17.552 4.33626C17.8301 4.80688 18.1286 5.27751 18.2473 5.80952C18.3659 6.34153 18.3413 6.73849 18.0264 7.18865C17.8546 7.43419 16.6931 7.54878 16.3005 7.53242C13.3599 7.40146 12.0839 7.57743 9.88772 6.75895C7.6915 5.94047 5.64251 4.78642 3.57308 3.68966C3.21727 3.50142 3.00459 3.11674 2.20299 3.04307C1.8022 3.00624 0.959701 3.05944 1.00469 3.46049C1.0415 3.77151 3.51173 5.70312 3.7653 5.88318C5.13538 6.85717 4.97997 6.74667 6.35005 7.72066C6.56272 7.87208 6.79174 8.04805 6.84491 8.30178C6.8899 8.51458 6.79583 8.73557 6.79174 8.95247C6.78356 9.34533 7.0535 9.68091 7.32342 9.96738C7.79375 10.4707 8.28861 10.9414 8.8121 11.3874C9.54008 12.0136 8.94707 12.5456 9.74049 13.094C10.6157 13.6996 12.8815 14.3135 13.7812 14.8782C14.4969 15.3325 15.2208 15.7908 16.0101 16.1059C16.9549 16.4824 17.9651 16.6502 18.963 16.8549C21.6909 17.4196 26.4677 22.3673 28.7744 24.0001" fill="#FE8E68"/>
<path d="M17.2986 16.5031C17.2986 16.5031 13.8673 16.0693 11.1394 14.8007C8.4115 13.532 1.66744 9.36601 1.66744 9.36601C1.66744 9.36601 1.57338 9.12865 1.647 8.96495C1.71652 8.80126 2.74307 8.57208 3.5692 8.92812C4.39534 9.28416 9.67935 11.58 9.67935 11.58" fill="#FE8E68"/>
<path d="M17.9775 15.3489C17.9775 15.3489 13.6301 14.4404 10.9022 13.1718C8.17428 11.9032 1.43022 7.73712 1.43022 7.73712C1.43022 7.73712 1.33616 7.49975 1.40978 7.33606C1.48339 7.17236 2.50583 6.94319 3.33197 7.29923C4.15811 7.65936 9.44211 9.95109 9.44211 9.95109" fill="#FE8E68"/>
<path d="M16.6031 12.8484C16.6031 12.8484 12.2556 11.9399 9.52775 10.6712C6.79986 9.40261 2.56283 7.23365 0.162118 5.5926C0.00261681 5.4862 -0.0382818 5.0033 0.0353357 4.83551C0.108951 4.67181 1.13141 4.44264 1.95754 4.80277C2.78368 5.1629 8.0677 7.45464 8.0677 7.45464" fill="#FE8E68"/>
</svg>
