<svg width="192" height="192" viewBox="0 0 192 192" fill="none" xmlns="http://www.w3.org/2000/svg">
<g filter="url(#filter0_d_44_2021)">
<rect x="70.2718" y="45.1747" width="51.4565" height="51.4565" rx="10" fill="white"/>
</g>
<g clip-path="url(#clip0_44_2021)">
<path d="M97.0094 84.9564C96.3219 84.9564 95.9119 84.2752 96.1239 83.692L100.161 72.5908C100.339 72.1018 100.879 71.8495 101.368 72.0272C101.857 72.2051 102.11 72.7458 101.932 73.2349L97.895 84.3359C97.7556 84.7186 97.3944 84.9564 97.0094 84.9564Z" fill="#3AB4FB"/>
<path d="M107.102 84.9564C106.718 84.9564 106.357 84.7201 106.217 84.3388L102.14 73.2375C101.96 72.749 102.211 72.2077 102.7 72.0284C103.188 71.8488 103.729 72.0995 103.909 72.5878L107.986 83.6891C108.216 84.3142 107.744 84.9564 107.102 84.9564Z" fill="#1D9CFD"/>
<path d="M109.12 56.8331H94.9906C93.3558 56.8331 92.0303 58.1586 92.0303 59.7934V70.8952C92.0303 72.53 93.3558 73.8555 94.9906 73.8555H109.12C110.755 73.8555 112.08 72.53 112.08 70.8952V59.7934C112.08 58.1586 110.755 56.8331 109.12 56.8331Z" fill="#EFF6FE"/>
<path d="M109.12 56.8331H101.931V73.8555H109.12C110.755 73.8555 112.08 72.53 112.08 70.8952V59.7934C112.08 58.1586 110.755 56.8331 109.12 56.8331Z" fill="#D9E4EF"/>
<path d="M90.0116 62.8213C90.0116 65.0877 88.1744 66.925 85.9079 66.925C83.6415 66.925 81.8042 65.0877 81.8042 62.8213C81.8042 60.5546 83.6415 58.7174 85.9079 58.7174C88.1744 58.7174 90.0116 60.5546 90.0116 62.8213Z" fill="#FFCFBE"/>
<path d="M95.0742 72.7468C94.6087 72.514 94.4203 71.9482 94.6529 71.4827L97.176 66.4366C97.4088 65.9711 97.9749 65.7827 98.4401 66.0153C98.9055 66.2481 99.094 66.8139 98.8614 67.2794L96.3383 72.3253C96.1052 72.7915 95.5389 72.9792 95.0742 72.7468Z" fill="#FFB826"/>
<path d="M90.0124 62.8216C90.0124 65.088 88.1751 66.9253 85.908 66.9253V58.7174C88.1751 58.7174 90.0124 60.5546 90.0124 62.8216Z" fill="#F9BCAA"/>
<path d="M107.102 62.2497H97.0096C96.4892 62.2497 96.0674 61.8277 96.0674 61.3075C96.0674 60.7871 96.4892 60.3653 97.0096 60.3653H107.102C107.622 60.3653 108.044 60.7871 108.044 61.3075C108.044 61.8277 107.622 62.2497 107.102 62.2497Z" fill="#3AB4FB"/>
<path d="M107.101 66.2863H102.874C102.353 66.2863 101.931 65.8646 101.931 65.3441C101.931 64.8237 102.353 64.4019 102.874 64.4019H107.101C107.622 64.4019 108.043 64.8237 108.043 65.3441C108.043 65.8646 107.622 66.2863 107.101 66.2863Z" fill="#1D9CFD"/>
<path d="M107.101 70.323H102.874C102.353 70.323 101.931 69.9009 101.931 69.3808C101.931 68.8603 102.353 68.4386 102.874 68.4386H107.101C107.622 68.4386 108.043 68.8603 108.043 69.3808C108.043 69.9009 107.622 70.323 107.101 70.323Z" fill="#1D9CFD"/>
<path d="M107.101 60.3653H101.931V62.2497H107.101C107.622 62.2497 108.043 61.8277 108.043 61.3075C108.043 60.7871 107.622 60.3653 107.101 60.3653Z" fill="#1D9CFD"/>
<path d="M88.9356 84.9564H82.8805C82.3601 84.9564 81.9383 84.5347 81.9383 84.0142V78.7475C80.7662 78.3532 79.92 77.2439 79.92 75.9405V72.913C79.92 71.311 80.5434 69.8069 81.6753 68.678C82.7858 67.5646 84.3292 66.9249 85.9083 66.9249H86.7408C88.3936 66.9249 89.3623 67.5302 90.7199 68.2052C92.2149 68.9486 94.0802 69.8761 95.2697 70.4687C96.3672 71.0141 96.8928 72.2932 96.4977 73.4511C96.4965 73.4548 96.4953 73.4584 96.4941 73.4621C96.2563 74.1653 95.7234 74.7319 95.0317 75.0165C94.3378 75.2989 93.5602 75.269 92.8943 74.936C91.9448 74.461 90.7712 73.8743 89.8781 73.428V84.0142C89.8778 84.5347 89.456 84.9564 88.9356 84.9564Z" fill="#FF7579"/>
<path d="M95.2698 70.4687C94.0803 69.8761 92.2151 68.9486 90.7198 68.2052C89.3625 67.5302 88.3938 66.9249 86.741 66.9249H85.9082C85.9082 66.9249 85.9082 66.9249 85.908 66.9249V84.9564H88.9358C89.4562 84.9564 89.878 84.5347 89.878 84.0142V73.428C90.7713 73.8743 91.9449 74.461 92.8945 74.936C93.5601 75.269 94.3379 75.2987 95.0316 75.0165C95.7233 74.7319 96.2564 74.1653 96.4942 73.4619C96.4954 73.4582 96.4967 73.4545 96.4979 73.4508C96.8929 72.2932 96.3674 71.0141 95.2698 70.4687Z" fill="#FE4A60"/>
</g>
<defs>
<filter id="filter0_d_44_2021" x="0" y="0" width="192" height="192" filterUnits="userSpaceOnUse" color-interpolation-filters="sRGB">
<feFlood flood-opacity="0" result="BackgroundImageFix"/>
<feColorMatrix in="SourceAlpha" type="matrix" values="0 0 0 0 0 0 0 0 0 0 0 0 0 0 0 0 0 0 127 0" result="hardAlpha"/>
<feOffset dy="25"/>
<feGaussianBlur stdDeviation="35"/>
<feColorMatrix type="matrix" values="0 0 0 0 0.0392157 0 0 0 0 0.0117647 0 0 0 0 0.235294 0 0 0 0.15 0"/>
<feBlend mode="normal" in2="BackgroundImageFix" result="effect1_dropShadow_44_2021"/>
<feBlend mode="normal" in="SourceGraphic" in2="effect1_dropShadow_44_2021" result="shape"/>
</filter>
<clipPath id="clip0_44_2021">
<rect width="32.0359" height="32.0359" fill="white" transform="translate(79.92 54.8229) scale(1.00388)"/>
</clipPath>
</defs>
</svg>
