<svg width="20" height="20" viewBox="0 0 20 20" fill="none" xmlns="http://www.w3.org/2000/svg">
<path d="M8.50842 12.2915C8.58588 12.3696 8.67805 12.4316 8.7796 12.4739C8.88115 12.5162 8.99007 12.538 9.10008 12.538C9.21009 12.538 9.31901 12.5162 9.42056 12.4739C9.52211 12.4316 9.61428 12.3696 9.69175 12.2915L13.0917 8.8915C13.2487 8.73458 13.3368 8.52176 13.3368 8.29984C13.3368 8.07792 13.2487 7.86509 13.0917 7.70817C12.9348 7.55125 12.722 7.46309 12.5001 7.46309C12.2782 7.46309 12.0653 7.55125 11.9084 7.70817L9.10008 10.5248L8.09175 9.50817C7.93483 9.35125 7.722 9.26309 7.50008 9.26309C7.27816 9.26309 7.06533 9.35125 6.90841 9.50817C6.7515 9.66509 6.66334 9.87792 6.66334 10.0998C6.66334 10.3218 6.7515 10.5346 6.90841 10.6915L8.50842 12.2915ZM17.5001 1.6665H2.50008C2.27907 1.6665 2.06711 1.7543 1.91083 1.91058C1.75455 2.06686 1.66675 2.27882 1.66675 2.49984V17.4998C1.66675 17.7209 1.75455 17.9328 1.91083 18.0891C2.06711 18.2454 2.27907 18.3332 2.50008 18.3332H17.5001C17.7211 18.3332 17.9331 18.2454 18.0893 18.0891C18.2456 17.9328 18.3334 17.7209 18.3334 17.4998V2.49984C18.3334 2.27882 18.2456 2.06686 18.0893 1.91058C17.9331 1.7543 17.7211 1.6665 17.5001 1.6665ZM16.6667 16.6665H3.33341V3.33317H16.6667V16.6665Z" fill="#9C4DF4"/>
</svg>
