<svg width="50" height="50" viewBox="0 0 50 50" fill="none" xmlns="http://www.w3.org/2000/svg">
<path d="M25 50C38.8071 50 50 38.8071 50 25C50 11.1929 38.8071 0 25 0C11.1929 0 0 11.1929 0 25C0 38.8071 11.1929 50 25 50Z" fill="#424242"/>
<path d="M27.6941 49.8553C38.4397 48.7037 47.1468 40.7443 49.4188 30.3748L33.2989 14.2548C33.2989 14.2548 20.1108 13.8904 15.3472 21.7253L22.367 28.7629L16.1159 38.3498L27.6941 49.8553Z" fill="#232323"/>
<path d="M35.3983 38.3496H16.1161V31.8409L28.4996 22.4656C30.07 21.2767 29.6915 19.619 29.5382 19.1392C29.3905 18.6771 28.7616 17.1646 26.8716 17.1094C26.8295 17.1083 26.7554 17.1076 26.7257 17.1074H24.5361C21.3106 17.1074 21.06 20.6418 21.06 21.7251H15.3474C15.3474 15.6427 19.1259 11.3948 24.5361 11.3948L26.758 11.3949C26.758 11.3949 26.9448 11.3965 27.0377 11.3992C30.7317 11.5071 33.8488 13.8625 34.9796 17.3997C36.1249 20.9825 34.9349 24.7586 31.9479 27.0201L24.5288 32.637H35.3984V38.3496H35.3983Z" fill="#F8FFFB"/>
<path d="M31.9477 27.0198L25.3783 31.9937V24.8284L28.4995 22.4655C30.0695 21.2768 29.6913 19.619 29.5385 19.1395C29.3908 18.6766 28.7614 17.1646 26.8713 17.1096C26.829 17.1086 26.7551 17.1076 26.7255 17.1076H25.3782V11.395H26.7581C26.7581 11.395 26.9442 11.397 27.0377 11.3989C30.7312 11.5072 33.8485 13.8622 34.9793 17.4001C36.1248 20.9822 34.935 24.7585 31.9477 27.0198Z" fill="#D8D8D8"/>
<path d="M25.3792 32.6367H35.3989V38.3493H25.3792V32.6367Z" fill="#D8D8D8"/>
</svg>
