<svg width="183" height="183" viewBox="0 0 183 183" fill="none" xmlns="http://www.w3.org/2000/svg">
<g filter="url(#filter0_d_44_1683)">
<rect x="70.3554" y="45.2284" width="42.2891" height="42.2891" rx="5" fill="white"/>
</g>
<g clip-path="url(#clip0_44_1683)">
<path d="M91.4998 53.6862H78.8131V57.403L92.9866 60.3765L91.4998 53.6862Z" fill="#A1A1A1"/>
<path d="M91.4998 53.6862H95.2166V59.6331H91.4998V53.6862Z" fill="#828282"/>
<path d="M92.9866 57.403H78.8131V61.1198L92.9866 64.8366V57.403Z" fill="#636363"/>
<path d="M91.4998 64.0933L104.186 61.1198V53.6862H95.2166L91.4998 57.403V64.0933Z" fill="#434343"/>
<path d="M104.186 61.1197H91.4996L85.5527 70.0897L91.4996 79.0596H104.186V61.1197Z" fill="#0FDBFF"/>
<path d="M78.8131 61.1197H91.4998V79.0596H78.8131V61.1197Z" fill="#80EEFF"/>
<path d="M81.7866 74.5995H83.2734V72.3198H87.271V65.58H81.7866V74.5995ZM83.2734 67.0667H85.7843V70.8331H83.2734V67.0667Z" fill="white"/>
<path d="M95.7286 65.58V74.5995H97.2154V72.3198H101.213V65.58H95.7286ZM99.7263 70.8331H97.2154V67.0667H99.7263V70.8331Z" fill="#C2F7FF"/>
<path d="M92.7551 65.58V69.3464H91.4996L90.7563 70.065L91.4996 70.8331H92.7551V74.5995H94.2418V65.58H92.7551Z" fill="#C2F7FF"/>
<path d="M90.2446 69.3464V65.58H88.7579V74.5995H90.2446V70.8331H91.5V69.3464H90.2446Z" fill="white"/>
</g>
<defs>
<filter id="filter0_d_44_1683" x="0" y="0" width="183" height="183" filterUnits="userSpaceOnUse" color-interpolation-filters="sRGB">
<feFlood flood-opacity="0" result="BackgroundImageFix"/>
<feColorMatrix in="SourceAlpha" type="matrix" values="0 0 0 0 0 0 0 0 0 0 0 0 0 0 0 0 0 0 127 0" result="hardAlpha"/>
<feOffset dy="25"/>
<feGaussianBlur stdDeviation="35"/>
<feColorMatrix type="matrix" values="0 0 0 0 0.0392157 0 0 0 0 0.0117647 0 0 0 0 0.235294 0 0 0 0.15 0"/>
<feBlend mode="normal" in2="BackgroundImageFix" result="effect1_dropShadow_44_1683"/>
<feBlend mode="normal" in="SourceGraphic" in2="effect1_dropShadow_44_1683" result="shape"/>
</filter>
<clipPath id="clip0_44_1683">
<rect width="25.2453" height="25.2453" fill="white" transform="translate(78.8131 53.6862) scale(1.00508)"/>
</clipPath>
</defs>
</svg>
