<svg width="10" height="10" viewBox="0 0 10 10" fill="none" xmlns="http://www.w3.org/2000/svg">
<path d="M4.99999 5.41634C4.87314 5.41486 4.74887 5.45227 4.64392 5.52355C4.53898 5.59483 4.45838 5.69655 4.413 5.81501C4.36761 5.93348 4.3596 6.063 4.39005 6.18616C4.4205 6.30931 4.48795 6.42018 4.58332 6.50384V7.08301C4.58332 7.19351 4.62722 7.2995 4.70536 7.37764C4.7835 7.45578 4.88948 7.49967 4.99999 7.49967C5.1105 7.49967 5.21648 7.45578 5.29462 7.37764C5.37276 7.2995 5.41666 7.19351 5.41666 7.08301V6.50384C5.51203 6.42018 5.57948 6.30931 5.60993 6.18616C5.64038 6.063 5.63237 5.93348 5.58698 5.81501C5.54159 5.69655 5.461 5.59483 5.35606 5.52355C5.25111 5.45227 5.12684 5.41486 4.99999 5.41634ZM7.08332 3.74967V2.91634C7.08332 2.36381 6.86383 1.8339 6.47313 1.4432C6.08243 1.0525 5.55252 0.833008 4.99999 0.833008C4.44746 0.833008 3.91755 1.0525 3.52685 1.4432C3.13615 1.8339 2.91666 2.36381 2.91666 2.91634V3.74967C2.58514 3.74967 2.26719 3.88137 2.03277 4.11579C1.79835 4.35021 1.66666 4.66815 1.66666 4.99967V7.91634C1.66666 8.24786 1.79835 8.5658 2.03277 8.80023C2.26719 9.03465 2.58514 9.16634 2.91666 9.16634H7.08332C7.41484 9.16634 7.73279 9.03465 7.96721 8.80023C8.20163 8.5658 8.33332 8.24786 8.33332 7.91634V4.99967C8.33332 4.66815 8.20163 4.35021 7.96721 4.11579C7.73279 3.88137 7.41484 3.74967 7.08332 3.74967ZM3.74999 2.91634C3.74999 2.58482 3.88169 2.26688 4.11611 2.03246C4.35053 1.79804 4.66847 1.66634 4.99999 1.66634C5.33151 1.66634 5.64945 1.79804 5.88387 2.03246C6.11829 2.26688 6.24999 2.58482 6.24999 2.91634V3.74967H3.74999V2.91634ZM7.49999 7.91634C7.49999 8.02685 7.45609 8.13283 7.37795 8.21097C7.29981 8.28911 7.19383 8.33301 7.08332 8.33301H2.91666C2.80615 8.33301 2.70017 8.28911 2.62203 8.21097C2.54389 8.13283 2.49999 8.02685 2.49999 7.91634V4.99967C2.49999 4.88917 2.54389 4.78319 2.62203 4.70505C2.70017 4.62691 2.80615 4.58301 2.91666 4.58301H7.08332C7.19383 4.58301 7.29981 4.62691 7.37795 4.70505C7.45609 4.78319 7.49999 4.88917 7.49999 4.99967V7.91634Z" fill="#954AE9"/>
</svg>
