<svg width="18" height="18" viewBox="0 0 18 18" fill="none" xmlns="http://www.w3.org/2000/svg">
<path d="M9.00039 2.45459C7.22281 2.45459 6.99972 2.46236 6.30156 2.49414C5.60477 2.52604 5.12915 2.63636 4.71298 2.79823C4.28249 2.96541 3.91732 3.18904 3.55351 3.553C3.18943 3.91682 2.9658 4.282 2.79808 4.71236C2.63581 5.12868 2.52536 5.60445 2.494 6.301C2.46277 6.99918 2.45459 7.22241 2.45459 9.00004C2.45459 10.7777 2.4625 11.0001 2.49413 11.6983C2.52618 12.3951 2.63649 12.8707 2.79822 13.2869C2.96553 13.7174 3.18916 14.0826 3.5531 14.4464C3.91677 14.8105 4.28194 15.0347 4.71216 15.2019C5.1286 15.3637 5.60436 15.474 6.30102 15.5059C6.99918 15.5377 7.22213 15.5455 8.99957 15.5455C10.7773 15.5455 10.9997 15.5377 11.6979 15.5059C12.3947 15.474 12.8708 15.3637 13.2873 15.2019C13.7176 15.0347 14.0822 14.8105 14.4459 14.4464C14.81 14.0826 15.0336 13.7174 15.2013 13.287C15.3622 12.8707 15.4727 12.3949 15.5054 11.6984C15.5368 11.0002 15.545 10.7777 15.545 9.00004C15.545 7.22241 15.5368 6.99931 15.5054 6.30113C15.4727 5.60432 15.3622 5.12868 15.2013 4.7125C15.0336 4.282 14.81 3.91682 14.4459 3.553C14.0818 3.18891 13.7177 2.96527 13.2869 2.79823C12.8696 2.63636 12.3937 2.52604 11.6969 2.49414C10.9987 2.46236 10.7765 2.45459 8.99835 2.45459H9.00039ZM8.41323 3.63413C8.58749 3.63386 8.78194 3.63413 9.00039 3.63413C10.748 3.63413 10.9551 3.64041 11.6452 3.67177C12.2834 3.70095 12.6297 3.80759 12.8605 3.89718C13.1659 4.01582 13.3837 4.15763 13.6126 4.38673C13.8417 4.61582 13.9835 4.834 14.1024 5.13945C14.192 5.36991 14.2988 5.71627 14.3278 6.35445C14.3592 7.04445 14.366 7.25172 14.366 8.99854C14.366 10.7454 14.3592 10.9526 14.3278 11.6426C14.2986 12.2808 14.192 12.6272 14.1024 12.8576C13.9838 13.1631 13.8417 13.3806 13.6126 13.6095C13.3835 13.8386 13.166 13.9804 12.8605 14.0991C12.63 14.1891 12.2834 14.2954 11.6452 14.3246C10.9552 14.356 10.748 14.3628 9.00039 14.3628C7.25267 14.3628 7.04554 14.356 6.35556 14.3246C5.7174 14.2952 5.37105 14.1885 5.14019 14.0989C4.83474 13.9803 4.61657 13.8385 4.38749 13.6094C4.1584 13.3803 4.01659 13.1627 3.89768 12.8571C3.80809 12.6266 3.70132 12.2803 3.67228 11.6421C3.64092 10.9521 3.63464 10.7448 3.63464 8.9969C3.63464 7.249 3.64092 7.04282 3.67228 6.35282C3.70146 5.71463 3.80809 5.36827 3.89768 5.13754C4.01632 4.83209 4.1584 4.61391 4.38749 4.38482C4.61657 4.15573 4.83474 4.01391 5.14019 3.895C5.37091 3.805 5.7174 3.69863 6.35556 3.66932C6.95936 3.64204 7.19336 3.63386 8.41323 3.6325V3.63413ZM12.4942 4.72095C12.0606 4.72095 11.7088 5.07236 11.7088 5.50613C11.7088 5.93977 12.0606 6.29159 12.4942 6.29159C12.9278 6.29159 13.2796 5.93977 13.2796 5.50613C13.2796 5.0725 12.9278 4.72068 12.4942 4.72068V4.72095ZM9.00039 5.63868C7.14413 5.63868 5.63913 7.14372 5.63913 9.00004C5.63913 10.8564 7.14413 12.3607 9.00039 12.3607C10.8567 12.3607 12.3611 10.8564 12.3611 9.00004C12.3611 7.14372 10.8565 5.63868 9.00025 5.63868H9.00039ZM9.00039 6.81822C10.2053 6.81822 11.1821 7.795 11.1821 9.00004C11.1821 10.2049 10.2053 11.1819 9.00039 11.1819C7.79538 11.1819 6.81864 10.2049 6.81864 9.00004C6.81864 7.795 7.79538 6.81822 9.00039 6.81822Z" fill="white"/>
</svg>
