<svg width="83" height="34" viewBox="0 0 83 34" fill="none" xmlns="http://www.w3.org/2000/svg">
<path d="M14.5981 31.0342H81.4504C82.0948 31.0342 82.6223 31.5581 82.6223 32.2069V32.2915C82.6223 32.9363 82.0988 33.4642 81.4504 33.4642H14.5981C13.9538 33.4642 13.4262 32.9403 13.4262 32.2915V32.2069C13.4262 31.5581 13.9497 31.0342 14.5981 31.0342Z" fill="#2D2442"/>
<path d="M1.54588 1.23412C15.456 1.09308 29.3661 0.952031 43.2762 0.810988C45.2495 0.790839 47.2269 0.770692 49.2003 0.750543C49.5063 0.746514 49.901 0.927851 50.0339 1.22606C53.8558 10.0553 57.6776 18.8846 61.4995 27.7139C62.0431 28.9752 62.5908 30.2325 63.1345 31.4938C63.1547 31.5341 63.1627 31.5785 63.1748 31.6188C63.1748 31.6188 63.1748 31.6188 63.1748 31.6228C63.1869 31.6631 63.199 31.7034 63.207 31.7437C63.3158 32.2555 63.058 32.8559 62.4298 32.9325C62.2848 32.9768 62.1358 32.9849 61.9908 32.9486C47.6941 33.0614 33.3973 33.1702 19.1006 33.2831C17.0588 33.2992 15.017 33.3153 12.9792 33.3314C12.5241 33.3355 12.202 33.0252 12.0489 32.6222C8.23915 22.5638 4.42537 12.5054 0.615592 2.44708C0.386038 1.8547 0.965963 1.23815 1.54588 1.23412Z" fill="#2D2442"/>
<path d="M1.54617 0.573018C14.385 0.444064 27.2279 0.31511 40.0668 0.182127C41.6293 0.166008 43.1959 0.149891 44.7585 0.133771C46.1721 0.117652 47.8071 -0.128159 49.2046 0.0894496C51.2786 0.411833 51.8102 3.67193 52.519 5.30803C55.0682 11.1956 57.6135 17.0831 60.1627 22.9666C61.2541 25.4892 62.3495 28.0079 63.4369 30.5305C63.8476 31.4815 64.2463 32.6341 63.167 33.3554C62.6193 33.7221 61.7937 33.6052 61.2017 33.6133C59.615 33.6334 58.0242 33.6375 56.4375 33.6496C53.26 33.6738 50.0825 33.6979 46.905 33.7221C40.55 33.7705 34.195 33.8229 27.8441 33.8712C24.6746 33.8954 21.5092 33.9196 18.3398 33.9437C17.0631 33.9518 15.7905 33.9639 14.5139 33.972C13.5312 33.98 12.5566 34.1694 11.7955 33.4441C10.9699 32.6582 10.692 30.873 10.3014 29.8454C9.74563 28.3746 9.18583 26.8997 8.63008 25.4288C7.32927 21.9954 6.02847 18.558 4.72767 15.1246C3.5195 11.937 2.31133 8.74544 1.10315 5.55787C0.499066 3.96207 -1.18432 1.24196 1.377 0.581073C2.20259 0.367494 2.55296 1.64494 1.72737 1.85852C0.881652 2.07613 3.76113 8.86633 4.04707 9.62393C4.97736 12.0781 5.90765 14.5322 6.83392 16.9823C7.76421 19.4365 8.69452 21.8906 9.62079 24.3407C10.0396 25.4449 10.4585 26.5491 10.8773 27.6532C11.3324 28.8581 11.6626 30.6393 12.4117 31.6991C13.3742 33.0693 15.3838 32.6381 16.8094 32.626C18.1062 32.6139 19.3989 32.6059 20.6957 32.5938C23.3416 32.5736 25.9915 32.5535 28.6374 32.5333C33.9333 32.493 39.2291 32.4487 44.5249 32.4084C49.8207 32.3681 55.1166 32.3238 60.4124 32.2835C60.9601 32.2794 61.8864 32.5132 62.273 32.0256C62.7683 31.405 62.4864 32.2996 62.3012 31.1833C62.1441 30.2525 61.4474 29.2128 61.0729 28.3464C59.9654 25.7874 58.8579 23.2326 57.7504 20.6736C55.628 15.7694 53.5057 10.8611 51.3793 5.95683C50.9081 4.86879 50.5295 3.16418 49.7885 2.27763C48.7978 1.09287 47.2272 1.41121 45.874 1.42733C43.1355 1.45554 40.401 1.48376 37.6625 1.51197C25.625 1.63286 13.5876 1.75374 1.55017 1.87867C0.692369 1.90285 0.692388 0.581077 1.54617 0.573018Z" fill="#2D2442"/>
<path d="M33.5744 20.3877C31.7928 20.3877 30.3485 19.3341 30.3485 18.0343C30.3485 16.7346 31.7928 15.6809 33.5744 15.6809C35.3559 15.6809 36.8002 16.7346 36.8002 18.0343C36.8002 19.3341 35.3559 20.3877 33.5744 20.3877Z" fill="#5A4F72"/>
<path d="M27.3727 19.5011C26.443 19.5011 25.6893 18.9527 25.6893 18.2761C25.6893 17.5995 26.443 17.051 27.3727 17.051C28.3024 17.051 29.0561 17.5995 29.0561 18.2761C29.0561 18.9527 28.3024 19.5011 27.3727 19.5011Z" fill="#5A4F72"/>
</svg>
