<svg width="24" height="24" viewBox="0 0 24 24" fill="none" xmlns="http://www.w3.org/2000/svg">
<path d="M8.46002 11.2895L14.12 5.63955C14.213 5.54582 14.3236 5.47143 14.4454 5.42066C14.5673 5.36989 14.698 5.34375 14.83 5.34375C14.962 5.34375 15.0927 5.36989 15.2146 5.42066C15.3365 5.47143 15.4471 5.54582 15.54 5.63955C15.7263 5.82691 15.8308 6.08036 15.8308 6.34455C15.8308 6.60873 15.7263 6.86219 15.54 7.04955L10.59 12.0495L15.54 16.9995C15.7263 17.1869 15.8308 17.4404 15.8308 17.7045C15.8308 17.9687 15.7263 18.2222 15.54 18.4095C15.4474 18.504 15.337 18.5792 15.2151 18.6307C15.0932 18.6822 14.9623 18.709 14.83 18.7095C14.6977 18.709 14.5668 18.6822 14.445 18.6307C14.3231 18.5792 14.2126 18.504 14.12 18.4095L8.46002 12.7595C8.35851 12.6659 8.2775 12.5523 8.2221 12.4258C8.16669 12.2993 8.13809 12.1627 8.13809 12.0245C8.13809 11.8864 8.16669 11.7498 8.2221 11.6233C8.2775 11.4968 8.35851 11.3832 8.46002 11.2895Z" fill="#9C4DF4"/>
</svg>
