<svg width="34" height="34" viewBox="0 0 34 34" fill="none" xmlns="http://www.w3.org/2000/svg">
<g clip-path="url(#clip0_28_2143)">
<path d="M25.0677 20.2796C24.1965 19.4083 23.2119 18.7071 22.1707 18.1758C22.0058 18.0944 21.8671 17.9682 21.7706 17.8116C21.6742 17.655 21.6238 17.4743 21.6253 17.2904L21.9086 14.7829C18.9478 13.7346 15.2645 13.6638 12.1903 14.7404L12.3958 17.2975C12.3887 17.6871 12.1691 18.02 11.8433 18.19C10.7949 18.7142 9.81745 19.4225 8.94621 20.2937C8.56371 20.6762 7.92622 20.6762 7.54372 20.2937L5.09291 17.8429C4.71041 17.4604 4.42 16.83 4.95124 16.2988C11.5316 9.71839 22.4753 9.72548 29.0485 16.2988C29.5515 16.8017 29.3035 17.4462 28.914 17.8358L26.4702 20.2796C26.0877 20.6621 25.4502 20.6621 25.0677 20.2796Z" fill="white"/>
</g>
<defs>
<clipPath id="clip0_28_2143">
<rect width="24" height="24" fill="white" transform="matrix(0.708327 0.708327 0.708327 -0.708327 0 17)"/>
</clipPath>
</defs>
</svg>
